<?xml version="1.0" encoding="utf-8"?>
<!-- Generator: Adobe Illustrator 24.0.1, SVG Export Plug-In . SVG Version: 6.00 Build 0)  -->
<svg version="1.1" id="Layer_1" xmlns="http://www.w3.org/2000/svg" xmlns:xlink="http://www.w3.org/1999/xlink" x="0px" y="0px"
	 viewBox="0 0 389.8 409.6" style="enable-background:new 0 0 389.8 409.6;" xml:space="preserve">
<title>agenda</title>
<path class="svg-fill" d="M245.1,397.6H144V352c0-8.1,6.6-14.7,14.7-14.7l0,0h71.6c8.1,0,14.7,6.6,14.7,14.7l0,0v45.6H245.1z"/>
<path class="svg-fill" d="M64.5,12.1C35,13.8,12,38.2,12.1,67.7v274.2c0,29.5,23,53.8,52.4,55.5V12.1z"/>
<path class="svg-stroke" d="M269.3,111.4H124.7c-6.7,0-12-5.4-12-12c0-6.7,5.4-12,12-12h144.6c6.7,0,12,5.4,12,12S275.9,111.4,269.3,111.4z
	"/>
<path class="svg-stroke" d="M245.2,171.7h-96.4c-6.7,0-12.1-5.4-12.1-12.1s5.4-12.1,12.1-12.1h96.4c6.7,0,12,5.4,12,12.1
	S251.8,171.7,245.2,171.7L245.2,171.7z"/>
<path class="svg-stroke" d="M245.2,231.9h-96.4c-6.7,0-12.1-5.4-12.1-12.1s5.4-12.1,12.1-12.1h96.4c6.7,0,12,5.4,12,12.1
	S251.8,231.9,245.2,231.9L245.2,231.9z"/>
<path class="svg-fill" d="M350,120.9h-20.5V60.7H350c15.3,0,27.7,12.4,27.7,27.7v4.8C377.7,108.5,365.3,120.9,350,120.9z"/>
<path class="svg-fill" d="M350,241.4h-20.5v-60.2H350c15.3,0,27.7,12.4,27.7,27.7v4.8C377.7,229,365.3,241.4,350,241.4z"/>
<path class="svg-stroke" d="M389.8,88.4c0-21.9-17.8-39.7-39.8-39.8h-8.8C338.1,21,314.8,0,286.9,0H67.7C48.6,0,30.4,8.1,17.6,22.2l0,0
	c-0.7,0.8-1.4,1.6-2.1,2.4l-0.1,0.1c-0.6,0.8-1.2,1.5-1.8,2.3l-0.2,0.3c-0.6,0.8-1.1,1.5-1.6,2.3l-0.3,0.5c-0.5,0.7-0.9,1.4-1.4,2.2
	l-0.4,0.6c-0.4,0.7-0.8,1.4-1.2,2.1c-0.1,0.3-0.3,0.5-0.4,0.8c-0.3,0.7-0.7,1.3-1,2c-0.2,0.3-0.3,0.7-0.5,1C6.3,39.4,6,40,5.7,40.6
	c-0.2,0.4-0.3,0.8-0.5,1.1C5,42.4,4.7,43,4.5,43.5C4.4,44,4.2,44.4,4,44.9S3.6,46,3.5,46.5S3.1,47.5,3,48s-0.3,1-0.4,1.5
	s-0.3,1.1-0.5,1.6s-0.2,1-0.3,1.4s-0.3,1.2-0.4,1.8c-0.1,0.4-0.2,0.9-0.2,1.3c-0.1,0.7-0.2,1.3-0.3,2c-0.1,0.4-0.1,0.8-0.1,1.2
	c-0.1,0.7-0.2,1.4-0.3,2.1l-0.1,0.8c-0.3,2.1-0.4,4-0.4,6v274.2c0,2,0.1,3.9,0.3,5.9l0.1,0.8c0.1,0.7,0.2,1.5,0.3,2.2
	c0.1,0.4,0.1,0.8,0.1,1.1c0.1,0.7,0.2,1.3,0.3,2c0.1,0.4,0.1,0.9,0.2,1.3c0.1,0.6,0.3,1.2,0.4,1.8s0.2,1,0.3,1.5
	c0.1,0.5,0.3,1.1,0.5,1.6s0.3,1,0.4,1.6s0.3,1,0.5,1.5s0.4,1.1,0.6,1.7c0.2,0.6,0.3,0.9,0.5,1.3c0.2,0.6,0.4,1.2,0.7,1.8
	c0.2,0.4,0.3,0.8,0.5,1.1c0.3,0.6,0.6,1.3,0.8,1.9c0.2,0.3,0.3,0.6,0.5,1c0.3,0.7,0.7,1.3,1,2c0.1,0.3,0.3,0.5,0.4,0.8
	c0.4,0.7,0.8,1.4,1.2,2.1c0.1,0.2,0.2,0.4,0.4,0.6c0.4,0.7,0.9,1.5,1.4,2.2c0.1,0.2,0.2,0.3,0.3,0.5c0.5,0.8,1.1,1.5,1.6,2.3
	l0.2,0.3c0.6,0.8,1.2,1.6,1.8,2.3l0.1,0.1c0.7,0.8,1.4,1.6,2.1,2.4l0,0c8.1,8.9,18.4,15.5,29.9,19l0.2,0.1c0.7,0.2,1.5,0.4,2.2,0.6
	c5.8,1.6,11.8,2.4,17.9,2.4h219.2c33.7,0,54.6-17.3,54.6-45.2v-60.2c0-6.7-5.4-12-12-12c-6.7,0-12.1,5.4-12.1,12v60.2
	c0,14-10.3,21.1-30.5,21.1h-29.8V352c0-14.8-12-26.8-26.8-26.8h-71.6c-14.8,0-26.7,12-26.7,26.8v33.5H76.5V24.1h210.4
	c16.9,0,30.5,13.7,30.5,30.5v186.7c0,6.6,5.4,12,12,12H350c21.9,0,39.7-17.8,39.8-39.8v-4.8c0-10.4-4-20.3-11.3-27.7
	c7.2-7.4,11.3-17.4,11.3-27.7v-4.8c0-10.4-4-20.3-11.3-27.7c7.2-7.4,11.3-17.4,11.3-27.7V88.4z M28.4,360.8v-0.1
	c-0.3-0.6-0.5-1.2-0.8-1.8c0-0.1,0-0.1-0.1-0.2c-0.5-1.2-1-2.5-1.4-3.8c0-0.1-0.1-0.2-0.1-0.4c-0.2-0.5-0.3-1-0.4-1.6
	c0-0.2-0.1-0.3-0.1-0.5c-0.1-0.5-0.2-1-0.4-1.6l-0.1-0.4c-0.1-0.6-0.2-1.3-0.4-2c0-0.1,0-0.3,0-0.4c-0.1-0.5-0.1-1-0.2-1.6
	c0-0.2,0-0.4-0.1-0.6c0-0.5-0.1-1-0.1-1.4v-0.6c0-0.7-0.1-1.4-0.1-2V67.7c0-0.7,0-1.3,0.1-2c0-0.2,0-0.4,0-0.6c0-0.5,0.1-1,0.1-1.4
	l0.1-0.6c0.1-0.5,0.1-1.1,0.2-1.6c0-0.1,0-0.3,0-0.4c0.1-0.7,0.2-1.3,0.4-2c0-0.1,0-0.2,0.1-0.4c0.1-0.5,0.2-1.1,0.4-1.6
	c0-0.2,0.1-0.3,0.1-0.5c0.1-0.5,0.3-1,0.5-1.6c0-0.1,0.1-0.2,0.1-0.3c0.4-1.3,0.9-2.6,1.4-3.8l0.1-0.2c0.2-0.6,0.5-1.2,0.8-1.8v-0.1
	c4.9-10.1,13.5-17.9,24-21.9v355.9C41.9,378.8,33.3,370.9,28.4,360.8z M156.1,352c0-1.5,1.2-2.7,2.7-2.7h71.6c1.5,0,2.7,1.2,2.7,2.7
	v33.5h-77L156.1,352z M365.6,88.4v4.8c0,8.6-7,15.6-15.6,15.7h-8.4V72.7h8.4C358.6,72.7,365.6,79.7,365.6,88.4z M365.6,148.6v4.8
	c0,8.6-7,15.6-15.6,15.7h-8.4V133h8.4C358.6,133,365.6,140,365.6,148.6z M365.6,213.7c0,8.6-7,15.6-15.6,15.7h-8.4v-36.1h8.4
	c8.6,0,15.6,7,15.7,15.7L365.6,213.7z"/>
</svg>
