<?xml version="1.0" encoding="utf-8"?>
<!-- Generator: Adobe Illustrator 24.0.1, SVG Export Plug-In . SVG Version: 6.00 Build 0)  -->
<svg version="1.1" id="Layer_1" xmlns="http://www.w3.org/2000/svg" xmlns:xlink="http://www.w3.org/1999/xlink" x="0px" y="0px"
	 viewBox="0 0 512 427.5" style="enable-background:new 0 0 512 427.5;" xml:space="preserve">
<title>analytics</title>
<rect x="186.9" y="353.4" class="svg-fill" width="138.3" height="59.6"/>
<path class="svg-stroke" d="M460.2,0H51.8C23.2,0,0,23.2,0,51.8v264.4c0,28.6,23.2,51.7,51.8,51.8h120.6v30.6h-28.8
	c-8,0-14.5,6.5-14.5,14.5s6.5,14.5,14.5,14.5h224.9c8,0,14.5-6.5,14.5-14.5s-6.5-14.5-14.5-14.5l0,0h-28.8v-45.1l0,0
	c0-8-6.5-14.5-14.5-14.5c0,0,0,0,0,0H51.8c-12.6,0-22.8-10.2-22.8-22.8V51.8c0-12.6,10.2-22.8,22.8-22.8h408.5
	c12.6,0,22.8,10.2,22.8,22.8v264.4c0,12.6-10.2,22.8-22.8,22.8h-45.9c-8-0.2-14.6,6.1-14.8,14.1c-0.2,8,6.1,14.6,14.1,14.8
	c0.3,0,0.5,0,0.8,0h45.9c28.6,0,51.7-23.2,51.8-51.8V51.8C512,23.2,488.8,0,460.2,0z M201.3,398.5v-30.6h109.4v30.6H201.3z"/>
<path class="svg-fill" d="M218.2,291.3h-75.6v-90.6c0-20.9,16.9-37.8,37.8-37.8l0,0c20.9,0,37.8,16.9,37.8,37.8c0,0,0,0,0,0L218.2,291.3z
	"/>
<path class="svg-fill" d="M293.8,291.3h-75.6V155.4c0-20.9,16.9-37.8,37.8-37.8l0,0c20.9,0,37.8,16.9,37.8,37.8l0,0V291.3z"/>
<path class="svg-stroke" d="M369.4,215.4c8,0,14.4-6.4,14.5-14.4v-91c0-28.9-23.5-52.2-52.3-52.2c-28.3,0-51.4,22.6-52.2,50.8
	c-25.8-12.9-57.1-2.5-70.1,23.3c-3.4,6.9-5.3,14.4-5.5,22.1c-25.8-12.9-57.2-2.5-70.1,23.3c-3.6,7.3-5.5,15.3-5.5,23.4v90.6
	c0,8,6.5,14.5,14.5,14.5l0,0h226.7c8,0.2,14.6-6.1,14.8-14.1c0.2-8-6.1-14.6-14.1-14.8c-0.3,0-0.5,0-0.8,0h-61.1V110
	c0-12.9,10.4-23.3,23.3-23.3s23.3,10.4,23.3,23.3v91C354.9,209,361.4,215.4,369.4,215.4z M157.1,200.7c0-12.9,10.4-23.3,23.3-23.3
	c12.9,0,23.3,10.4,23.3,23.3c0,0,0,0,0,0v76.1h-46.6V200.7z M232.7,200.7v-45.4c0-12.9,10.4-23.3,23.3-23.3
	c12.9,0,23.3,10.4,23.3,23.3v121.5h-46.6V200.7z"/>
</svg>
