<?xml version="1.0" encoding="utf-8"?>
<!-- Generator: Adobe Illustrator 24.0.1, SVG Export Plug-In . SVG Version: 6.00 Build 0)  -->
<svg version="1.1" id="Layer_1" xmlns="http://www.w3.org/2000/svg" xmlns:xlink="http://www.w3.org/1999/xlink" x="0px" y="0px"
	 viewBox="0 0 409.6 404.7" style="enable-background:new 0 0 409.6 404.7;" xml:space="preserve">
<title>award-2</title>
<path class="svg-stroke" d="M90.8,404.7c-6.5,0-12.4-4-14.7-10.1L57.7,347l-47.7-18.3c-8.1-3.1-12.2-12.2-9-20.4c0.8-2,2-3.9,3.5-5.5
	l93.6-93.6l97.3,97.3l-93.6,93.6C98.9,403,94.9,404.7,90.8,404.7L90.8,404.7z M30.1,310.9l39.5,15.2c4.1,1.6,7.4,4.9,9,9l15.2,39.5
	l68.1-68.1l-63.7-63.7L30.1,310.9z"/>
<path class="svg-stroke" d="M318.8,404.7c-4.2,0-8.2-1.7-11.1-4.6l-20.8-20.8l16.8-16.8l12.1,12.1l15.2-39.5c1.6-4.1,4.9-7.4,9-9l39.4-15.2
	L303,234.4l16.8-16.8l85.2,85.2c6.1,6.1,6.1,16.1,0,22.3c-1.6,1.6-3.4,2.8-5.5,3.6L351.9,347l-18.3,47.6c-1.9,5-6.2,8.7-11.4,9.8
	C321.1,404.6,320,404.7,318.8,404.7L318.8,404.7z"/>
<path class="svg-fill" d="M347.3,224.1c5.1-15.7,31-28.9,31-46.3s-25.9-30.6-31-46.3c-5.3-16.3,7.8-42.2-2.1-55.7s-38.6-9.2-52.4-19.2
	S274.8,18,258.4,12.7C242.7,7.6,222.2,28,204.8,28s-37.9-20.4-53.6-15.3c-16.3,5.3-20.8,34-34.4,43.9s-42.4,5.5-52.4,19.2
	s3.2,39.4-2.1,55.7c-5.1,15.7-31.1,28.8-31.1,46.3s25.9,30.6,31,46.3c5.3,16.3-7.8,42.1,2.1,55.7s38.7,9.2,52.4,19.2
	s18.1,38.6,34.4,43.9c15.7,5.1,36.2-15.3,53.6-15.3s37.9,20.4,53.6,15.3c16.3-5.3,20.8-34,34.4-43.9s42.4-5.5,52.4-19.2
	S342,240.5,347.3,224.1L347.3,224.1z M204.8,272.8c-52.5,0-95-42.5-95-95s42.5-95,95-95s95,42.5,95,95v0
	C299.8,230.3,257.3,272.8,204.8,272.8L204.8,272.8L204.8,272.8z"/>
<path class="svg-stroke" d="M253,355.7c-10.1,0-19.6-4.6-28.8-9.1c-7-3.4-14.3-7-19.4-7s-12.4,3.6-19.4,7c-9.2,4.5-18.7,9.1-28.8,9.1
	c-3.1,0-6.2-0.5-9.1-1.4c-13.7-4.5-20.7-17.6-26.8-29.2c-3.5-6.7-7.2-13.6-10.9-16.3s-11.6-4.2-19.2-5.5
	c-12.8-2.2-27.4-4.8-35.8-16.3s-6.3-26-4.5-38.8c1.1-7.6,2.2-15.6,0.7-20.2c-1.4-4.2-6.7-9.8-11.9-15.1
	c-9.2-9.5-19.7-20.2-19.7-34.9s10.5-25.4,19.7-34.9c5.2-5.3,10.6-10.8,12-15.1c1.5-4.7,0.4-12.6-0.7-20.2
	c-1.8-12.8-3.9-27.4,4.4-38.8s23-14.1,35.8-16.3c7.5-1.3,15.3-2.7,19.2-5.5s7.4-9.6,10.9-16.3c6.1-11.6,13.1-24.8,26.8-29.2
	c2.9-1,6-1.4,9.1-1.4c10.1,0,19.6,4.6,28.8,9.1c7,3.4,14.3,7,19.4,7s12.4-3.6,19.4-7C233.4,4.6,243,0,253,0c3.1,0,6.2,0.5,9.1,1.4
	c13.7,4.5,20.7,17.6,26.8,29.2c3.5,6.7,7.2,13.6,10.9,16.3s11.6,4.2,19.2,5.5c12.9,2.2,27.4,4.8,35.8,16.3s6.3,26,4.5,38.8
	c-1.1,7.6-2.2,15.6-0.7,20.2c1.4,4.2,6.7,9.8,11.9,15.1c9.2,9.5,19.7,20.2,19.7,34.9s-10.5,25.4-19.7,34.9
	c-5.2,5.3-10.6,10.9-11.9,15.1c-1.5,4.7-0.4,12.6,0.7,20.2c1.8,12.9,3.9,27.4-4.5,38.8s-23,14.1-35.8,16.3
	c-7.5,1.3-15.3,2.7-19.2,5.5s-7.4,9.6-10.9,16.3c-6.1,11.6-13.1,24.8-26.8,29.2C259.2,355.2,256.1,355.7,253,355.7L253,355.7z
	 M204.8,315.8c10.6,0,20.4,4.8,29.8,9.4c6.8,3.3,13.8,6.7,18.4,6.7c0.6,0,1.2-0.1,1.7-0.2c4.5-1.5,9.1-10.1,13.1-17.8
	c4.8-9.1,9.8-18.5,18-24.5s18.9-7.9,29.1-9.7c8.4-1.5,18-3.1,20.7-6.9s1.3-13.2,0.1-21.6c-1.4-10.3-2.9-21,0.3-30.8
	c3.1-9.5,10.4-17,17.5-24.3c6.1-6.2,13-13.3,13-18.3s-6.9-12.1-13-18.3c-7.1-7.3-14.4-14.8-17.5-24.3c-3.2-9.9-1.7-20.5-0.3-30.8
	c1.2-8.4,2.5-17.9-0.1-21.6s-12.3-5.4-20.7-6.9c-10.2-1.8-20.8-3.6-29.1-9.7s-13.2-15.4-18-24.5c-4-7.6-8.6-16.3-13.1-17.8
	c-0.6-0.2-1.2-0.3-1.8-0.2c-4.6,0-11.6,3.4-18.4,6.7c-9.5,4.6-19.3,9.4-29.8,9.4s-20.4-4.8-29.8-9.4c-6.8-3.3-13.8-6.7-18.4-6.7
	c-0.6,0-1.2,0.1-1.8,0.2c-4.5,1.5-9.1,10.1-13.1,17.8c-4.8,9.1-9.8,18.5-18,24.5s-18.9,7.9-29.1,9.7c-8.4,1.5-18,3.2-20.7,6.9
	s-1.3,13.2-0.1,21.6c1.4,10.3,2.9,21-0.3,30.8c-3.1,9.5-10.4,17-17.5,24.3c-6,6.2-12.9,13.3-12.9,18.3s6.9,12.1,13,18.3
	c7.1,7.3,14.4,14.8,17.5,24.3c3.2,9.9,1.7,20.5,0.3,30.8c-1.2,8.4-2.5,17.9,0.1,21.6s12.3,5.4,20.7,6.9c10.2,1.8,20.8,3.6,29.1,9.7
	s13.2,15.4,18,24.5c4,7.6,8.6,16.3,13.1,17.7c0.6,0.2,1.2,0.3,1.8,0.2c4.6,0,11.6-3.4,18.4-6.7C184.5,320.5,194.3,315.8,204.8,315.8
	L204.8,315.8z"/>
<path class="svg-stroke" d="M204.8,284.7c-59,0-106.9-47.9-106.9-106.9c0-59,47.9-106.9,106.9-106.9c59,0,106.9,47.8,106.9,106.8
	c0,0,0,0,0,0.1C311.6,236.8,263.8,284.7,204.8,284.7L204.8,284.7z M204.8,94.7c-45.9,0-83.2,37.2-83.2,83.1
	c0,45.9,37.2,83.2,83.1,83.2c45.9,0,83.2-37.2,83.2-83.1c0-25.8-12-50.1-32.4-65.9C241.1,100.8,223.2,94.7,204.8,94.7z"/>
</svg>
