<?xml version="1.0" encoding="utf-8"?>
<!-- Generator: Adobe Illustrator 24.0.1, SVG Export Plug-In . SVG Version: 6.00 Build 0)  -->
<svg version="1.1" id="Layer_1" xmlns="http://www.w3.org/2000/svg" xmlns:xlink="http://www.w3.org/1999/xlink" x="0px" y="0px"
	 viewBox="0 0 338.6 409.6" style="enable-background:new 0 0 338.6 409.6;" xml:space="preserve">
<title>award</title>
<path class="svg-fill" d="M268.9,353h-22.6v-22.8c-1.4-42.5-36.9-75.8-79.4-74.5c-40.6,1.3-73.2,33.9-74.5,74.5V353H69.7
	c-12.3-0.3-22.5,9.5-22.7,21.8c-0.3,12.3,9.5,22.5,21.8,22.7c0.3,0,0.6,0,0.9,0h199.2c12.3,0.3,22.5-9.5,22.7-21.8
	c0.3-12.3-9.5-22.5-21.8-22.7C269.5,353,269.2,353,268.9,353L268.9,353z"/>
<path class="svg-stroke" d="M268.9,341h-10.6v-10.8c0-49.2-39.8-89-89-89s-89,39.8-89,89V341H69.7c-19-0.3-34.6,14.8-34.9,33.7
	c-0.3,19,14.8,34.6,33.7,34.9c0.4,0,0.8,0,1.2,0h199.2c19-0.3,34.1-15.9,33.7-34.9C302.3,356.2,287.4,341.3,268.9,341L268.9,341z
	 M268.9,385.5H69.7c-5.6,0.2-10.3-4.2-10.5-9.9c-0.2-5.6,4.2-10.3,9.9-10.5c0.2,0,0.4,0,0.6,0h115.7c6.7,0,12.1-5.4,12.1-12.1
	s-5.4-12.1-12.1-12.1c0,0,0,0,0,0h-81v-10.8c0-35.8,29.1-64.9,64.9-64.9c35.8,0,64.9,29.1,64.9,64.9V353c0,6.7,5.4,12.1,12.1,12.1
	h22.6c5.6-0.2,10.3,4.2,10.5,9.9s-4.2,10.3-9.9,10.5C269.4,385.5,269.2,385.5,268.9,385.5L268.9,385.5z"/>
<path class="svg-stroke" d="M169.3,261.4C104.5,261.3,52.1,208.8,52,144V27.7C52,12.4,64.4,0,79.7,0h179.2c15.3,0,27.7,12.4,27.7,27.7v43.7
	c0.2,6.7-5,12.2-11.7,12.4c-6.7,0.2-12.2-5-12.4-11.7c0-0.2,0-0.5,0-0.7V27.7c0-2-1.6-3.6-3.6-3.6H79.7c-2,0-3.6,1.6-3.6,3.6l0,0
	V144c0,51.5,41.7,93.2,93.2,93.2c51.5,0,93.2-41.7,93.2-93.2c-0.2-6.7,5.1-12.2,11.7-12.4s12.2,5.1,12.4,11.7c0,0.2,0,0.5,0,0.7
	C286.6,208.8,234.1,261.3,169.3,261.4z"/>
<path class="svg-stroke" d="M311.4,167.5c-6.7,0-12.1-5.4-12.1-12.1c0-1.1,0.1-2.1,0.4-3.1l14.3-53.7c1.7-6.4-2.1-13-8.5-14.7
	c-1-0.3-2-0.4-3.1-0.4h-27.9c-6.7,0-12.1-5.4-12.1-12.1c0-6.7,5.4-12.1,12.1-12.1h27.9c20,0,36.1,16.2,36.1,36.1
	c0,3.1-0.4,6.3-1.2,9.3L323,158.5C321.6,163.8,316.8,167.5,311.4,167.5L311.4,167.5z"/>
<path class="svg-stroke" d="M27.2,167.5c-5.5,0-10.2-3.7-11.6-8.9L1.2,104.8c-5.1-19.3,6.3-39.1,25.6-44.2c3-0.8,6.1-1.2,9.3-1.2h19.6
	c6.7,0,12.1,5.4,12.1,12.1c0,6.7-5.4,12.1-12.1,12.1H36.1c-6.6,0-12,5.4-12,12c0,1,0.1,2.1,0.4,3.1l14.3,53.7
	c1.7,6.4-2.1,13-8.5,14.8C29.3,167.3,28.3,167.5,27.2,167.5L27.2,167.5z"/>
</svg>
