<?xml version="1.0" encoding="utf-8"?>
<!-- Generator: Adobe Illustrator 24.0.1, SVG Export Plug-In . SVG Version: 6.00 Build 0)  -->
<svg version="1.1" id="Layer_1" xmlns="http://www.w3.org/2000/svg" xmlns:xlink="http://www.w3.org/1999/xlink" x="0px" y="0px"
	 viewBox="0 0 512 431.2" style="enable-background:new 0 0 512 431.2;" xml:space="preserve">
<title>bar-chart</title>
<rect x="125.8" y="121.3" class="svg-fill" width="86.6" height="296.4"/>
<rect x="299" y="13.5" class="svg-fill" width="86.6" height="404.2"/>
<path class="svg-stroke" d="M498.5,404.2h-11.8V161.7c0-7.5-6-13.5-13.5-13.5s-13.5,6-13.5,13.5l0,0v242.5h-59.6V94.3h73.1
	c7.4,0,13.5-6,13.5-13.5s-6-13.5-13.5-13.5h-74.1V13.5c0-7.4-6-13.5-13.5-13.5c0,0,0,0,0,0H299c-7.4,0-13.5,6-13.5,13.5v134.8h-59.7
	v-27c0-7.4-6-13.5-13.5-13.5l0,0h-73.6V33.7c0-7.4-6-13.5-13.5-13.5l0,0H38.7c-7.4,0-13.5,6-13.5,13.5l0,0v294.4
	c0,7.5,6,13.5,13.5,13.5s13.5-6,13.5-13.5V47.2h59.7v357.1H13.5c-7.4,0.2-13.3,6.4-13.1,13.8c0.2,7.2,6,12.9,13.1,13.1h485.1
	c7.4-0.2,13.3-6.4,13.1-13.8C511.4,410.2,505.7,404.4,498.5,404.2z M139.3,134.7H199v269.5h-59.7V134.7z M225.9,175.2h59.7v229
	h-59.7V175.2z M312.5,404.2V27h59.7v377.2L312.5,404.2z"/>
</svg>
