<?xml version="1.0" encoding="utf-8"?>
<!-- Generator: Adobe Illustrator 24.0.1, SVG Export Plug-In . SVG Version: 6.00 Build 0)  -->
<svg version="1.1" id="Layer_1" xmlns="http://www.w3.org/2000/svg" xmlns:xlink="http://www.w3.org/1999/xlink" x="0px" y="0px"
	 viewBox="0 0 316.8 409.6" style="enable-background:new 0 0 316.8 409.6;" xml:space="preserve">
<title>bell</title>
<path class="svg-fill" d="M207.2,347.4h-97.6c-1.6,0-2,2-2,2.9c1.6,28.1,25.6,49.5,53.7,47.9c13.7-0.8,26.4-7,35.4-17.4l0.1-0.2
	c0.5-0.5,0.9-1.1,1.4-1.6l0.2-0.3c0.4-0.5,0.8-1,1.2-1.6c0-0.1,0.1-0.1,0.1-0.2c0.9-1.2,1.7-2.5,2.5-3.8l0.1-0.1
	c0.4-0.6,0.8-1.3,1.1-2v0c0.7-1.4,1.4-2.8,2-4.3v-0.1c0.9-2.2,1.7-4.5,2.2-6.8c0.1-0.4,0.2-0.8,0.3-1.2s0.2-0.8,0.2-1.1
	c0.1-0.2,0.1-0.4,0.1-0.6c0.2-1.1,0.4-2.2,0.5-3.3c0.1-0.9,0.2-1.9,0.3-2.9c0-0.2,0-0.4,0-0.6s0-0.2,0-0.4c0-1-0.2-2.4-2-2.4
	L207.2,347.4z"/>
<path class="svg-fill" d="M158.4,71.7c11.5,0,22.9,1.7,33.9,5V45.3c-0.3-18.7-15.8-33.7-34.5-33.4c-18.3,0.3-33,15.1-33.4,33.4v31.4
	C135.5,73.4,146.9,71.7,158.4,71.7z"/>
<path class="svg-stroke" d="M294.2,294.5v-91.2c0-62.2-37.8-115.1-90.5-134.8V45.3c0-24.9-20.2-45.2-45.2-45.2c-25-0.1-45.3,20.2-45.3,45.2
	v23.2c-52.7,19.7-90.6,72.7-90.6,134.8v91.2C9.8,296.6,0,307.7,0,321.1v9C0,344.9,12.1,357,26.9,357h70c4.6,30,30.5,52.6,61.5,52.6
	c18,0,35.1-7.8,47.1-21.3l0.2-0.2c0.5-0.6,1.1-1.3,1.6-1.9c0.2-0.2,0.3-0.3,0.4-0.5c0.5-0.6,0.9-1.3,1.4-1.9l0.2-0.3
	c1-1.5,2-3,2.9-4.5l0.1-0.2c0.5-0.8,0.9-1.5,1.3-2.3l0.1-0.2c0.9-1.7,1.7-3.4,2.4-5.1l0.1-0.3c1.1-2.7,2-5.4,2.7-8.2
	c0.1-0.4,0.2-0.8,0.3-1.2l0.1-0.6c0-0.3,0.1-0.7,0.2-1.1c0-0.3,0-0.5,0.1-0.8c0.1-0.6,0.2-1.3,0.3-2h6.4v-22.6H26.9
	c-2.4,0-4.3-1.9-4.3-4.3v-9c0-2.4,1.9-4.3,4.3-4.3h263c2.4,0,4.3,1.9,4.3,4.3v9c0,2.4-1.9,4.3-4.3,4.3h-29.6V357h29.6
	c14.9,0,26.9-12.1,26.9-26.9v-9C316.8,307.8,307,296.6,294.2,294.5z M196.3,358.8c-0.4,1.2-0.8,2.4-1.3,3.6l-0.1,0.3
	c-0.4,1-0.9,2-1.4,3l-0.2,0.4c-0.2,0.4-0.5,0.9-0.7,1.3l-0.1,0.2c-0.6,0.9-1.2,1.8-1.9,2.8l-0.1,0.2c-0.3,0.3-0.6,0.7-0.9,1.1
	l-0.3,0.3c-0.4,0.4-0.7,0.8-1.1,1.3l-0.1,0.2c-4.9,5.6-11.3,9.7-18.4,11.8c-20.9,6.3-43-5.7-49.2-26.6L196.3,358.8z M135.7,45.3
	c0.3-12.2,10.1-21.9,22.2-22.2c12.5-0.2,22.8,9.7,23.1,22.2v17c-4.6-0.8-9.3-1.4-14-1.7c0,0-0.1,0-0.1,0c-0.8-0.1-1.6-0.1-2.5-0.1
	c-0.4,0-0.8,0-1.2,0c-0.6,0-1.2,0-1.7-0.1c-1,0-2.1,0-3.1,0c-1,0-2.1,0-3.1,0c-0.7,0-1.3,0-2,0.1c-0.3,0-0.5,0-0.8,0
	c-5.7,0.3-11.3,0.9-16.8,1.9V45.3z M271.6,294.2H45.3v-90.9c0-55.6,35.7-102.5,84-116.2c0.5-0.1,0.9-0.3,1.4-0.4
	c0.6-0.2,1.2-0.3,1.7-0.5c0.6-0.1,1.2-0.3,1.8-0.4c0.5-0.1,1-0.2,1.5-0.3c1-0.2,2-0.4,3.1-0.6c0.4-0.1,0.9-0.2,1.3-0.2
	c0.7-0.1,1.5-0.3,2.2-0.4c0.4-0.1,0.9-0.1,1.3-0.2c0.9-0.1,1.8-0.2,2.7-0.3c0.2,0,0.5-0.1,0.7-0.1c1.1-0.1,2.2-0.2,3.3-0.3
	c0.4,0,0.8-0.1,1.2-0.1c0.8-0.1,1.6-0.1,2.4-0.1c0.4,0,0.8,0,1.2,0c1.1,0,2.2-0.1,3.3-0.1c0.1,0,0.1,0,0.2,0c1.2,0,2.4,0,3.6,0.1
	c0.2,0,0.5,0,0.7,0c1.1,0,2.1,0.1,3.2,0.2c0.1,0,0.3,0,0.4,0c7.7,0.6,15.3,2,22.8,4.2l1.4,0.4c46.8,14.7,81.1,60.9,81.1,115.4V294.2
	z"/>
<path class="svg-stroke" d="M63,197.8h22.6c0-39.1,29.8-70.9,66.4-70.9v-22.6C102.9,104.3,63,146.2,63,197.8z"/>
</svg>
