<?xml version="1.0" encoding="utf-8"?>
<!-- Generator: Adobe Illustrator 24.0.1, SVG Export Plug-In . SVG Version: 6.00 Build 0)  -->
<svg version="1.1" id="Layer_1" xmlns="http://www.w3.org/2000/svg" xmlns:xlink="http://www.w3.org/1999/xlink" x="0px" y="0px"
	 viewBox="0 0 409.6 400.7" style="enable-background:new 0 0 409.6 400.7;" xml:space="preserve">
<title>briefcase</title>
<path class="svg-fill" d="M238.7,258.9h-67.8c-22.3,0-40.5-18.1-40.5-40.4c0,0,0,0,0,0v-39.8h148.7v39.8
	C279.2,240.8,261,258.9,238.7,258.9L238.7,258.9z"/>
<path class="svg-stroke" d="M238.7,270.2h-67.8c-28.6,0-51.7-23.2-51.7-51.7v-39.8c0-6.2,5-11.3,11.3-11.3h148.7c6.2,0,11.3,5,11.3,11.3
	v39.8C290.4,247,267.3,270.1,238.7,270.2L238.7,270.2z M141.7,189.9v28.6c0,16.1,13.1,29.2,29.2,29.2h67.8
	c16.1,0,29.2-13.1,29.2-29.2v-28.6H141.7z"/>
<path class="svg-fill" d="M310.8,36.9l-22-22c-2.3-2.4-5.5-3.7-8.8-3.7H129.6c-3.3,0-6.4,1.3-8.8,3.6l-22,22c-2.3,2.3-3.6,5.5-3.6,8.8
	v79.6h219.2V45.7C314.4,42.4,313.1,39.3,310.8,36.9z M270.1,114.3H139.5V58.9l3.4-3.3h124l3.4,3.3L270.1,114.3z"/>
<path class="svg-stroke" d="M314.4,136.6H95.2c-6.2,0-11.3-5-11.3-11.3V45.7c0-6.3,2.5-12.3,6.9-16.7l22-22c4.4-4.5,10.4-7,16.7-7H280
	c6.3,0,12.3,2.5,16.7,6.9l22,22c4.4,4.4,6.9,10.4,6.9,16.7v79.6C325.6,131.5,320.6,136.6,314.4,136.6L314.4,136.6z M281.4,114.1
	h21.8V45.7c0-0.3-0.1-0.6-0.3-0.8l-22-22c-0.2-0.2-0.5-0.3-0.8-0.3H129.6c-0.3,0-0.6,0.1-0.8,0.3l-22,22c-0.2,0.2-0.3,0.5-0.3,0.8
	v68.4h21.8V58.9c0-3,1.2-5.9,3.3-8l3.4-3.3c2.1-2.1,5-3.3,8-3.3h124c3,0,5.9,1.2,8,3.3l3.2,3.4c2.1,2.1,3.3,5,3.3,8L281.4,114.1z
	 M150.7,103h108.1V66.8H150.7V103z"/>
<path class="svg-stroke" d="M362.5,400.7H47c-25.9,0-47-21.1-47-47V137.8c0-26,21.1-47,47-47h315.5c26,0,47,21.1,47,47.1V194
	c0.2,6.2-4.7,11.4-10.9,11.6c-6.2,0.2-11.4-4.7-11.6-10.9c0-0.2,0-0.4,0-0.7v-56.2c0-13.5-11-24.5-24.5-24.5H47
	c-13.5,0-24.5,11-24.5,24.5v215.8c0,13.5,11,24.5,24.5,24.5h315.5c13.5,0,24.5-11,24.5-24.5V256c-0.2-6.2,4.7-11.4,10.9-11.6
	c6.2-0.2,11.4,4.7,11.6,10.9c0,0.2,0,0.4,0,0.7v97.6C409.6,379.6,388.5,400.6,362.5,400.7L362.5,400.7z"/>
<path class="svg-fill" d="M398.3,194v-56.2c0-19.8-16-35.8-35.7-35.8c0,0,0,0,0,0H47c-19.8,0-35.8,16-35.8,35.8c0,0,0,0,0,0V194H398.3z"
	/>
<path class="svg-stroke" d="M398.3,205.3H11.3C5,205.3,0,200.2,0,194v-56.2c0-26,21.1-47,47-47h315.5c26,0,47,21.1,47,47.1V194
	C409.6,200.2,404.6,205.3,398.3,205.3L398.3,205.3z M22.5,182.7h364.5v-44.9c0-13.5-11-24.5-24.5-24.5H47c-13.5,0-24.5,11-24.5,24.5
	L22.5,182.7z"/>
</svg>
