<?xml version="1.0" encoding="utf-8"?>
<!-- Generator: Adobe Illustrator 24.0.1, SVG Export Plug-In . SVG Version: 6.00 Build 0)  -->
<svg version="1.1" id="Layer_1" xmlns="http://www.w3.org/2000/svg" xmlns:xlink="http://www.w3.org/1999/xlink" x="0px" y="0px"
	 viewBox="0 0 512 442.8" style="enable-background:new 0 0 512 442.8;" xml:space="preserve">
<title>browser</title>
<path class="svg-stroke" d="M464.2,442.8H47.7C21.4,442.8,0,421.4,0,395.1V47.7C0,21.4,21.4,0,47.7,0h416.5C490.6,0,512,21.4,512,47.7
	c0,7.6-6.2,13.8-13.8,13.9c-7.6,0-13.8-6.2-13.9-13.8c0,0,0,0,0,0c0-11.1-9-20-20.1-20.1H47.7c-11.1,0-20,9-20.1,20.1v347.3
	c0,11.1,9,20.1,20.1,20.1h416.5c11.1,0,20.1-9,20.1-20.1V209.4c0-7.6,6.2-13.8,13.8-13.9c7.6,0,13.8,6.2,13.9,13.8c0,0,0,0,0,0
	v185.7C512,421.4,490.6,442.8,464.2,442.8z"/>
<path class="svg-fill" d="M13.8,47.7v69.9h484.3V47.7c0-18.7-15.2-33.9-33.9-33.9H47.7C29,13.8,13.8,29,13.8,47.7L13.8,47.7z"/>
<path class="svg-stroke" d="M498.2,131.5H13.8c-7.6,0-13.8-6.2-13.8-13.8c0,0,0,0,0,0V47.7C0,21.4,21.4,0,47.7,0h416.5
	C490.6,0,512,21.4,512,47.7v69.9C512,125.3,505.8,131.5,498.2,131.5z M27.7,103.8h456.6v-56c0-11.1-9-20.1-20.1-20.1H47.8
	c-11.1,0-20,9-20.1,20V103.8z"/>
<path class="svg-stroke" d="M294.7,79.6h-26.3c-7.6,0-13.8-6.2-13.8-13.8s6.2-13.8,13.8-13.8c0,0,0,0,0,0h26.3c7.6,0,13.8,6.2,13.8,13.8
	C308.6,73.4,302.4,79.6,294.7,79.6L294.7,79.6z"/>
<path class="svg-stroke" d="M368.1,79.6h-26.3c-7.6,0-13.8-6.2-13.8-13.8c0-7.6,6.2-13.8,13.8-13.8h26.3c7.6,0,13.8,6.2,13.8,13.8
	C381.9,73.4,375.7,79.6,368.1,79.6C368.1,79.6,368.1,79.6,368.1,79.6L368.1,79.6z"/>
<path class="svg-stroke" d="M441.4,79.6h-26.3c-7.6,0-13.8-6.2-13.8-13.8c0-7.6,6.2-13.8,13.8-13.8c0,0,0,0,0,0h26.3
	c7.6,0,13.8,6.2,13.8,13.8C455.3,73.4,449.1,79.6,441.4,79.6z"/>
<rect x="112.8" y="268.5" class="svg-fill" width="286.4" height="63.6"/>
<path class="svg-stroke" d="M399.2,345.9H112.8c-7.6,0-13.8-6.2-13.8-13.8v-63.7c0-7.6,6.2-13.8,13.8-13.8h286.4c7.6,0,13.8,6.2,13.8,13.8
	v63.7C413.1,339.7,406.9,345.9,399.2,345.9z M126.6,318.3h258.8v-36H126.6C126.6,282.3,126.6,318.3,126.6,318.3z"/>
<path class="svg-stroke" d="M357.5,222.8H154.5c-7.6,0.2-14-5.8-14.2-13.5s5.8-14,13.5-14.2c0.2,0,0.5,0,0.7,0h203.1
	c7.6-0.2,14,5.8,14.2,13.5s-5.8,14-13.5,14.2C358,222.8,357.8,222.8,357.5,222.8z"/>
</svg>
