<?xml version="1.0" encoding="utf-8"?>
<!-- Generator: Adobe Illustrator 24.0.1, SVG Export Plug-In . SVG Version: 6.00 Build 0)  -->
<svg version="1.1" id="Layer_1" xmlns="http://www.w3.org/2000/svg" xmlns:xlink="http://www.w3.org/1999/xlink" x="0px" y="0px"
	 viewBox="0 0 287.1 512" style="enable-background:new 0 0 287.1 512;" xml:space="preserve">
<title>brush</title>
<path class="svg-fill" d="M272.7,287.6c-0.2-2.6-1.1-5.1-2.7-7.1c-1.8-2-4.4-3.2-7.1-3.3c-55.5-0.3-91.8-44.8-91.8-84.2
	c-0.3-26,19.8-121.8,19.9-131.2c0.2-26.2-20.9-47.5-47.1-47.7c-0.1,0-0.2,0-0.3,0l0,0c-26.2,0-47.4,21.2-47.4,47.4
	c0,0.1,0,0.2,0,0.3c0.1,9.3,20.1,105.2,19.8,131.2c0,39.4-36.3,83.9-91.8,84.2c-2.7,0.1-5.3,1.3-7.1,3.3c-1.6,2-2.6,4.5-2.7,7.1
	l-0.2,78.6h258.7L272.7,287.6z"/>
<path class="svg-stroke" d="M287.1,366.2l-0.1-78.7c-0.2-5.7-2.2-11.1-5.6-15.6c-0.4-0.5-0.8-1-1.3-1.5c-4.5-4.7-10.6-7.4-17.1-7.5
	c-45.8-0.2-77.6-37-77.6-69.9v-0.1c-0.2-15.2,8.1-61,13.6-91.4c4.6-25.8,6.3-35.3,6.3-39.5c0-34-27.6-61.6-61.6-61.6S82,28,82,62
	c0,0,0,0,0,0c0,4.2,1.7,13.7,6.3,39.5c5.5,30.4,13.7,76.2,13.6,91.4c0,0,0,0.1,0,0.1c0,32.9-31.9,69.7-77.6,69.9
	c-6.5,0.1-12.7,2.8-17.2,7.5c-0.5,0.5-0.9,1-1.4,1.5c-3.5,4.5-5.4,10-5.6,15.6L0,366.2l0,0v131.5c0,7.9,6.4,14.2,14.2,14.2h133.6
	c4.5,0,8.8-2.2,11.5-5.8l38.5-52.4c0-0.1,0.1-0.1,0.1-0.2l0.4-0.7c0.1-0.2,0.2-0.4,0.3-0.5s0.2-0.4,0.4-0.7s0.2-0.4,0.3-0.6
	s0.2-0.4,0.3-0.7s0.2-0.4,0.2-0.7s0.1-0.4,0.2-0.6s0.1-0.5,0.2-0.7s0.1-0.4,0.1-0.6s0.1-0.5,0.1-0.8s0-0.4,0.1-0.6s0-0.5,0-0.8
	c0-0.1,0-0.2,0-0.3v-31.8c0-7.9-6.4-14.2-14.2-14.2c-7.9,0-14.2,6.4-14.2,14.2v27.1l-31.4,42.8H28.5v-103h230.2v103h-33.9
	c-7.9,0-14.2,6.4-14.2,14.2c0,7.9,6.4,14.2,14.2,14.2h48.1c7.9,0,14.2-6.4,14.2-14.2c0,0,0,0,0,0V366.2L287.1,366.2L287.1,366.2z
	 M28.5,352l0.1-60.6c61-2.5,101.6-52.1,101.7-98.2c0.1-16.6-6.3-53.6-14-96.7c-2.6-14.7-5.6-31.3-5.8-34.8
	c0-18.3,14.8-33.1,33.1-33.1s33.1,14.8,33.1,33.1c-0.2,3.4-3.2,20.1-5.9,34.8c-7.8,43.1-14.2,80.1-14,96.7
	c0,46.1,40.7,95.7,101.7,98.2l0.1,60.7L28.5,352z"/>
</svg>
