<?xml version="1.0" encoding="utf-8"?>
<!-- Generator: Adobe Illustrator 24.0.1, SVG Export Plug-In . SVG Version: 6.00 Build 0)  -->
<svg version="1.1" id="Layer_1" xmlns="http://www.w3.org/2000/svg" xmlns:xlink="http://www.w3.org/1999/xlink" x="0px" y="0px"
	 viewBox="0 0 512 450.7" style="enable-background:new 0 0 512 450.7;" xml:space="preserve">
<title>bucket</title>
<path class="svg-fill" d="M262.1,105.6v107.9c0,19.4-15.8,35.2-35.2,35.2h-1.4c-17.4,0-32.1-12.7-34.8-29.8v43.6
	c0,19.4-15.8,35.2-35.2,35.2c0,0,0,0,0,0h-1.4c-19.4,0-35.2-15.8-35.2-35.2l0,0v-43.6c-2.7,17.2-17.4,29.8-34.8,29.8h-1.4
	c-19.4,0-35.2-15.8-35.2-35.2V105.6h-0.3v329.1h417.6V105.6H262.1z"/>
<path class="svg-stroke" d="M496,0h-80.8c-8.8,0-16,7.2-16,16s7.2,16,16,16H480v57.6H32V32h271.2c8.8,0,16-7.2,16-16s-7.2-16-16-16H16
	C7.2,0,0,7.2,0,16v95.5c0,42.8,10.7,84.9,31.2,122.4v200.8c0,8.8,7.2,16,16,16h417.6c8.8,0,16-7.2,16-16V233.9
	c20.5-37.5,31.2-79.6,31.2-122.4V16C512,7.2,504.8,0,496,0z M278.1,213.5v-91.9h170.7v103.8C409.8,291.3,338,335.5,256,335.5
	c-33.5,0.1-66.6-7.5-96.8-22c26.8-2,47.5-24.2,47.5-51v-1.4c6,2.4,12.4,3.6,18.8,3.6h1.4C255.2,264.7,278.1,241.8,278.1,213.5z
	 M105,276.8c-4.5-4.1-8.8-8.3-12.9-12.8c3.7-0.6,7.3-1.6,10.8-3v1.4C102.9,267.3,103.6,272.1,105,276.8z M63.5,121.6h182.6v91.9
	c0,10.6-8.6,19.2-19.2,19.2h-1.4c-9.5,0-17.5-6.9-19-16.2c-1.4-8.7-9.5-14.7-18.3-13.4c-7.8,1.2-13.5,7.9-13.5,15.8v43.6
	c0,10.6-8.6,19.2-19.2,19.2h-1.4c-10.6,0-19.2-8.6-19.2-19.2v-43.6c0-8.4-6.4-15.4-14.8-16c-0.4,0-0.8,0-1.2,0h-0.1h-0.8h-0.7
	l-0.8,0.1l-0.6,0.1l-0.8,0.2l-0.6,0.2c-0.3,0.1-0.5,0.2-0.8,0.2l-0.6,0.2l-0.7,0.3l-0.6,0.3l-0.6,0.4l-0.6,0.4l-0.6,0.4
	c-0.2,0.1-0.4,0.3-0.6,0.4l-0.5,0.4l-0.6,0.5l-0.5,0.4c-0.2,0.2-0.4,0.4-0.6,0.6l-0.4,0.4c-0.2,0.2-0.4,0.4-0.5,0.7l-0.3,0.5
	c-0.2,0.2-0.3,0.5-0.5,0.7l-0.3,0.5c-0.1,0.3-0.3,0.5-0.4,0.8l-0.2,0.5c-0.1,0.3-0.2,0.6-0.4,0.9s-0.1,0.3-0.2,0.5
	c-0.1,0.3-0.2,0.7-0.3,1c0,0.1-0.1,0.3-0.1,0.4c-0.1,0.5-0.2,1-0.3,1.5c-1.5,9.3-9.5,16.2-19,16.2h-1.4c-10.6,0-19.2-8.6-19.2-19.2
	V121.6z M448.8,418.7H63.2V279.8c92.7,106.5,254.2,117.6,360.7,24.9c8.9-7.7,17.2-16.1,24.9-24.9L448.8,418.7z"/>
</svg>
