<?xml version="1.0" encoding="utf-8"?>
<!-- Generator: Adobe Illustrator 24.0.1, SVG Export Plug-In . SVG Version: 6.00 Build 0)  -->
<svg version="1.1" id="Layer_1" xmlns="http://www.w3.org/2000/svg" xmlns:xlink="http://www.w3.org/1999/xlink" x="0px" y="0px"
	 viewBox="0 0 409.6 393.9" style="enable-background:new 0 0 409.6 393.9;" xml:space="preserve">
<title>cake</title>
<path class="svg-stroke" d="M204.8,126.8c-6.5,0-11.7-5.2-11.7-11.7c0,0,0,0,0,0V69.5c0-6.5,5.2-11.7,11.7-11.7c6.5,0,11.7,5.2,11.7,11.7
	v45.6C216.5,121.6,211.3,126.8,204.8,126.8L204.8,126.8z"/>
<path class="svg-stroke" d="M397.9,393.9H11.7c-6.5-0.2-11.5-5.6-11.4-12c0.2-6.2,5.2-11.2,11.4-11.4h386.2c6.5,0.2,11.5,5.6,11.4,12
	C409.1,388.8,404.1,393.8,397.9,393.9L397.9,393.9z"/>
<path class="svg-fill" d="M375.2,380.2H34.4V277.8c0-22.1,17.9-40,40-40h260.8c22.1,0,40,17.9,40,40L375.2,380.2z"/>
<path class="svg-stroke" d="M375.2,391.9H34.4c-6.5,0-11.7-5.2-11.7-11.7l0,0V277.8c0-28.5,23.1-51.7,51.7-51.7h260.8
	c28.5,0,51.6,23.2,51.7,51.7v102.5C386.9,386.7,381.6,391.9,375.2,391.9z M46.1,368.6h317.4v-90.7c0-15.6-12.7-28.3-28.3-28.3H74.4
	c-15.6,0-28.3,12.7-28.3,28.3V368.6z"/>
<path class="svg-stroke" d="M239.9,309.6H34.4c-6.5-0.2-11.5-5.6-11.4-12c0.2-6.2,5.2-11.2,11.4-11.4h205.5c6.5,0.2,11.5,5.6,11.4,12
	C251.1,304.4,246.1,309.4,239.9,309.6z"/>
<path class="svg-stroke" d="M73.1,245.6c-6.5,0-11.7-5.2-11.7-11.7V162c0-28.5,23.1-51.6,51.7-51.7h183.5c28.5,0,51.6,23.1,51.7,51.7v15.1
	c0,6.5-5.2,11.7-11.7,11.7H181.4c-6.5-0.2-11.5-5.6-11.4-12c0.2-6.2,5.2-11.2,11.4-11.4h143.4V162c0-15.6-12.7-28.3-28.3-28.3H113.1
	c-15.6,0-28.3,12.7-28.3,28.3v71.8C84.8,240.3,79.6,245.6,73.1,245.6L73.1,245.6z"/>
<path class="svg-fill" d="M225.7,50.5c0,11.5-9.4,20.9-20.9,20.9c-11.5,0-20.9-9.3-20.9-20.9c0-17.2,15.1-38.8,20.9-38.8
	C210.9,11.7,225.7,33.3,225.7,50.5L225.7,50.5z"/>
<path class="svg-stroke" d="M204.8,83c-18,0-32.5-14.6-32.6-32.6c0-13.2,6.2-25.6,9.9-31.8C189.5,6.3,197.1,0,204.8,0
	c9.7,0,17.7,10.1,22.8,18.7c6.2,10.5,9.8,22.1,9.8,31.8C237.3,68.4,222.8,83,204.8,83z M204.9,26.6c-4.2,5.7-9.2,15.8-9.2,23.9
	c0.2,5.1,4.4,9,9.5,8.9c4.8-0.2,8.7-4,8.9-8.9C214,42.3,209,32.2,204.9,26.6z"/>
</svg>
