<?xml version="1.0" encoding="utf-8"?>
<!-- Generator: Adobe Illustrator 24.0.1, SVG Export Plug-In . SVG Version: 6.00 Build 0)  -->
<svg version="1.1" id="Layer_1" xmlns="http://www.w3.org/2000/svg" xmlns:xlink="http://www.w3.org/1999/xlink" x="0px" y="0px"
	 viewBox="0 0 324.3 409.6" style="enable-background:new 0 0 324.3 409.6;" xml:space="preserve">
<title>calculator</title>
<path class="svg-stroke" d="M280,409.6H44.2C19.8,409.6,0,389.8,0,365.4V44.2C0,19.8,19.8,0,44.2,0H280c24.4,0,44.2,19.8,44.2,44.2v240.2
	c0,6.3-5.1,11.4-11.4,11.4s-11.4-5.1-11.4-11.4V44.2c0-11.9-9.6-21.5-21.5-21.5H44.2c-11.9,0-21.5,9.6-21.5,21.5v321.1
	c0,11.9,9.6,21.5,21.5,21.5H280c11.9,0,21.5-9.6,21.5-21.5v-24c0-6.3,5.1-11.4,11.4-11.4s11.4,5.1,11.4,11.4v24
	C324.2,389.8,304.4,409.6,280,409.6z"/>
<path class="svg-fill" d="M252,159.3H72.2c-6.9,0-12.5-5.6-12.5-12.5l0,0v-66c0-6.9,5.6-12.5,12.5-12.5H252c6.9,0,12.5,5.6,12.5,12.5v0
	v66C264.5,153.7,258.9,159.3,252,159.3L252,159.3z"/>
<path class="svg-stroke" d="M252,170.7H72.2c-13.2,0-23.9-10.7-23.9-23.9v-66c0-13.2,10.7-23.9,23.9-23.9H252c13.2,0,23.9,10.7,23.9,23.9
	v66C275.9,160,265.2,170.7,252,170.7z M72.2,79.7c-0.6,0-1.1,0.5-1.1,1.1v66c0,0.6,0.5,1.1,1.1,1.1H252c0.6,0,1.1-0.5,1.1-1.1v-66
	c0-0.6-0.5-1.1-1.1-1.1c0,0,0,0,0,0L72.2,79.7z"/>
<path class="svg-stroke" d="M203.6,257.1c-6.3,0-11.4-5.1-11.4-11.4c0-3,1.2-5.9,3.3-8l38.1-38.1c4.5-4.3,11.7-4.2,16.1,0.3
	c4.2,4.4,4.2,11.3,0,15.7l-38.1,38.1C209.5,255.9,206.6,257.1,203.6,257.1L203.6,257.1z"/>
<path class="svg-stroke" d="M241.7,257.1c-3,0-5.9-1.2-8-3.3l-38.1-38.1c-4.4-4.4-4.4-11.7,0-16.1s11.7-4.4,16.1,0l38.1,38.1
	c4.4,4.4,4.4,11.7,0,16.1C247.6,255.9,244.7,257.1,241.7,257.1L241.7,257.1z"/>
<path class="svg-stroke" d="M128.6,336.6H74.7c-6.3-0.2-11.2-5.4-11-11.7c0.2-6,5-10.9,11-11h53.8c6.3-0.2,11.5,4.8,11.7,11
	c0.2,6.3-4.8,11.5-11,11.7C129,336.6,128.8,336.6,128.6,336.6z"/>
<path class="svg-stroke" d="M101.6,363.6c-6.3,0-11.4-5.1-11.4-11.4v-53.9c0-6.3,5.1-11.4,11.4-11.4c6.3,0,11.4,5.1,11.4,11.4v53.9
	C113,358.5,107.9,363.6,101.6,363.6z"/>
<path class="svg-stroke" d="M128.6,238.1H74.7c-6.3,0-11.4-5.1-11.4-11.4c0-6.3,5.1-11.4,11.4-11.4h53.8c6.3,0,11.4,5.1,11.4,11.4
	C139.9,233,134.8,238.1,128.6,238.1z"/>
<path class="svg-stroke" d="M249.6,319.6h-53.9c-6.3,0.2-11.5-4.8-11.7-11c-0.2-6.3,4.8-11.5,11-11.7c0.2,0,0.4,0,0.7,0h53.8
	c6.3-0.2,11.5,4.8,11.7,11c0.2,6.3-4.8,11.5-11,11.7C250,319.6,249.8,319.6,249.6,319.6L249.6,319.6z"/>
<path class="svg-stroke" d="M249.6,353.7h-53.9c-6.3,0-11.4-5.1-11.4-11.4s5.1-11.4,11.4-11.4h53.8c6.3,0,11.4,5.1,11.4,11.4
	S255.8,353.7,249.6,353.7L249.6,353.7z"/>
</svg>
