<?xml version="1.0" encoding="utf-8"?>
<!-- Generator: Adobe Illustrator 24.0.1, SVG Export Plug-In . SVG Version: 6.00 Build 0)  -->
<svg version="1.1" id="Layer_1" xmlns="http://www.w3.org/2000/svg" xmlns:xlink="http://www.w3.org/1999/xlink" x="0px" y="0px"
	 viewBox="0 0 398.2 409.6" style="enable-background:new 0 0 398.2 409.6;" xml:space="preserve">
<title>calendar</title>
<path class="svg-stroke" d="M345.9,409.6H52.3C23.4,409.6,0,386.2,0,357.3v-198c0-6.3,5.1-11.4,11.4-11.4c0,0,0,0,0,0h375.5
	c6.3,0,11.4,5.1,11.4,11.4c0,0,0,0,0,0v56.9c0,6.3-5.1,11.4-11.4,11.4s-11.4-5.1-11.4-11.4v-45.5H22.8v186.6
	c0,16.3,13.2,29.5,29.5,29.5h293.6c16.3,0,29.5-13.2,29.5-29.5v-72.9c-0.2-6.3,4.8-11.5,11-11.7c6.3-0.2,11.5,4.8,11.7,11
	c0,0.2,0,0.4,0,0.7v72.9C398.2,386.2,374.8,409.6,345.9,409.6z"/>
<path class="svg-stroke" d="M117.1,108.1h-18c-17,0-30.8-13.8-30.8-30.8V30.8C68.3,13.8,82.1,0,99.1,0h18c17,0,30.8,13.8,30.8,30.8v46.5
	C147.9,94.3,134.1,108.1,117.1,108.1L117.1,108.1z M99.1,22.8c-4.5,0-8.1,3.6-8.1,8c0,0,0,0,0,0v46.5c0,4.4,3.6,8.1,8.1,8.1h18
	c4.5,0,8.1-3.6,8.1-8.1V30.8c0-4.5-3.6-8.1-8.1-8.1H99.1z"/>
<path class="svg-stroke" d="M299.1,108.1h-18c-17,0-30.8-13.8-30.8-30.8V30.8c0-17,13.8-30.8,30.8-30.8h18c17,0,30.9,13.8,30.9,30.8v46.5
	C330,94.3,316.2,108.1,299.1,108.1L299.1,108.1z M281.1,22.8c-4.4,0-8,3.6-8,8.1v46.5c0,4.4,3.6,8.1,8,8.1h18c4.5,0,8.1-3.6,8.1-8.1
	V30.8c0-4.4-3.6-8.1-8.1-8.1H281.1z"/>
<path class="svg-fill" d="M345.9,45.5h-27.4v31.8c0,10.7-8.7,19.4-19.4,19.4l0,0h-18c-10.7,0-19.4-8.7-19.4-19.4c0,0,0,0,0,0V45.5H136.5
	v31.8c0,10.7-8.7,19.4-19.4,19.4c0,0,0,0,0,0h-18c-10.7,0-19.4-8.7-19.5-19.4c0,0,0,0,0,0V45.5H52.3c-22.6,0-40.9,18.3-40.9,40.9
	l0,0v72.9h375.5V86.4C386.8,63.8,368.5,45.5,345.9,45.5L345.9,45.5z"/>
<path class="svg-stroke" d="M386.8,170.7H11.4c-6.3,0-11.4-5.1-11.4-11.4c0,0,0,0,0,0V86.4c0-28.9,23.4-52.3,52.3-52.3h27.3
	c6.3,0,11.4,5.1,11.4,11.4v31.8c0,4.4,3.6,8.1,8.1,8.1h18c4.4,0,8.1-3.6,8.1-8.1V45.5c0-6.3,5.1-11.4,11.4-11.4h125.2
	c6.3,0,11.4,5.1,11.4,11.4v31.8c0,4.4,3.6,8.1,8,8.1h18c4.4,0,8.1-3.6,8.1-8.1V45.5c0-6.3,5.1-11.4,11.4-11.4h27.4
	c28.9,0,52.3,23.4,52.3,52.3v72.9C398.2,165.6,393.1,170.7,386.8,170.7L386.8,170.7L386.8,170.7z M22.8,147.9h352.7V86.4
	c0-16.3-13.2-29.5-29.5-29.5H330v20.4c0,17-13.8,30.8-30.8,30.8h-18c-17,0-30.8-13.8-30.8-30.8V56.9H147.9v20.4
	c0,17-13.8,30.8-30.8,30.8h-18c-17,0-30.8-13.8-30.8-30.8V56.9h-16c-16.3,0-29.5,13.2-29.5,29.5V147.9z"/>
<path class="svg-stroke" d="M187,233.8l-6.8,4.2c-1.7,1.2-3.8,1.8-5.9,1.9c-6.8,0-11.5-7.2-11.5-14.5c-0.1-5,2.5-9.8,6.8-12.4l30.9-18.7
	c2.1-1.2,4.4-1.7,6.8-1.6c7.5,0,16.1,4.4,16.1,11.5v148.7c0,7.5-9.1,11.2-18.2,11.2s-18.2-3.7-18.2-11.2V233.8z"/>
</svg>
