<?xml version="1.0" encoding="utf-8"?>
<!-- Generator: Adobe Illustrator 24.0.1, SVG Export Plug-In . SVG Version: 6.00 Build 0)  -->
<svg version="1.1" id="Layer_1" xmlns="http://www.w3.org/2000/svg" xmlns:xlink="http://www.w3.org/1999/xlink" x="0px" y="0px"
	 viewBox="0 0 329.6 409.6" style="enable-background:new 0 0 329.6 409.6;" xml:space="preserve">
<title>certificate</title>
<path class="svg-fill" d="M98.7,13.5v66.1c0,9.6-7.8,17.3-17.3,17.3l0,0H13.7c-1,0-1.8-0.8-1.8-1.8c0-0.1,0-0.2,0-0.2
	c1.1-9.1,5.3-17.5,11.7-23.9l47.3-47.3c6.9-6.9,16-11.1,25.8-11.9c1-0.1,1.9,0.6,2,1.6C98.7,13.4,98.7,13.4,98.7,13.5L98.7,13.5z"/>
<path class="svg-stroke" d="M81.3,108.4H13.7c-7.4,0-13.4-6-13.4-13.4c0-0.6,0-1.1,0.1-1.7c1.5-11.6,6.7-22.4,15-30.7l47.3-47.3
	c8.8-8.8,20.5-14.3,33-15.3c7.4-0.6,13.8,4.9,14.4,12.2c0,0.4,0,0.7,0,1.1v66.1C110.2,95.5,97.3,108.4,81.3,108.4z M27,85.3h54.3
	c3.2,0,5.8-2.6,5.8-5.8V26.1c-3,1.4-5.7,3.4-8,5.7L31.8,79.1C29.9,80.9,28.3,83,27,85.3z"/>
<path class="svg-stroke" d="M260.1,94.6h-83.4c-6.4-0.2-11.4-5.5-11.2-11.9c0.2-6.1,5.1-11,11.2-11.2h83.4c6.4-0.2,11.7,4.8,11.9,11.2
	c0.2,6.4-4.8,11.7-11.2,11.9C260.5,94.6,260.3,94.6,260.1,94.6L260.1,94.6z"/>
<path class="svg-stroke" d="M260.1,160.1H69.5c-6.4,0.2-11.7-4.8-11.9-11.2s4.8-11.7,11.2-11.9c0.2,0,0.5,0,0.7,0h190.6
	c6.4-0.2,11.7,4.8,11.9,11.2s-4.8,11.7-11.2,11.9C260.5,160.1,260.3,160.1,260.1,160.1z"/>
<path class="svg-stroke" d="M152.9,225.6H69.5c-6.4,0.2-11.7-4.8-11.9-11.2s4.8-11.7,11.2-11.9c0.2,0,0.5,0,0.7,0h83.4
	c6.4,0.2,11.4,5.5,11.2,11.9C163.9,220.5,159,225.4,152.9,225.6z"/>
<path class="svg-stroke" d="M267.9,409.6c-2.8,0-5.6-0.7-8-2.2l-23.6-13.9l-23.6,13.9c-7.5,4.4-17.1,1.8-21.4-5.6c-1.4-2.4-2.1-5.1-2.1-7.9
	v-37c-0.2-6.4,4.8-11.7,11.2-11.9s11.7,4.8,11.9,11.2c0,0.2,0,0.5,0,0.7v24l16.2-9.5c4.9-2.9,11-2.9,15.9,0l16.2,9.5v-95.4
	c0.2-6.4,5.5-11.4,11.9-11.2c6.1,0.2,11,5.1,11.2,11.2v108.4C283.6,402.6,276.5,409.6,267.9,409.6
	C267.9,409.6,267.9,409.6,267.9,409.6L267.9,409.6z"/>
<path class="svg-stroke" d="M283.7,333.5H272c-6.4-0.2-11.4-5.5-11.2-11.9c0.2-6.1,5.1-11,11.2-11.2h11.7c12.6,0,22.7-10.2,22.8-22.7V45.9
	c0-12.6-10.2-22.8-22.8-22.8H100h-1c-7.5,0.2-14.6,3.3-19.8,8.6L31.8,79.1c-5,5-8,11.6-8.6,18.7c0,0.8-0.1,1.5-0.1,2.2v187.7
	c0,12.6,10.2,22.8,22.8,22.8h107c6.4,0,11.6,5.2,11.6,11.6c0,6.4-5.2,11.5-11.6,11.5h-107C20.6,333.5,0,313,0,287.7V100
	c0-1.3,0.1-2.6,0.2-3.9c0.9-12.6,6.4-24.4,15.3-33.3l47.3-47.3C72.2,5.9,84.9,0.4,98.3,0h1.7h183.7c25.3,0,45.9,20.5,45.9,45.9
	v241.8C329.6,313,309,333.5,283.7,333.5L283.7,333.5z"/>
<path class="svg-fill" d="M283.9,273.6c0,26.3-21.3,47.6-47.6,47.6s-47.6-21.3-47.6-47.6s21.3-47.6,47.6-47.6c0,0,0,0,0,0
	C262.6,225.9,283.9,247.3,283.9,273.6C283.9,273.6,283.9,273.6,283.9,273.6z"/>
<path class="svg-stroke" d="M236.3,332.8c-32.7,0-59.2-26.5-59.2-59.2c0-32.7,26.5-59.2,59.2-59.2c32.7,0,59.2,26.5,59.2,59.2c0,0,0,0,0,0
	C295.4,306.3,268.9,332.7,236.3,332.8L236.3,332.8z M236.3,237.5c-19.9,0-36.1,16.2-36.1,36.1c0,19.9,16.2,36.1,36.1,36.1
	s36.1-16.2,36.1-36.1c0,0,0,0,0,0C272.3,253.6,256.2,237.5,236.3,237.5L236.3,237.5z"/>
</svg>
