<?xml version="1.0" encoding="utf-8"?>
<!-- Generator: Adobe Illustrator 24.0.1, SVG Export Plug-In . SVG Version: 6.00 Build 0)  -->
<svg version="1.1" id="Layer_1" xmlns="http://www.w3.org/2000/svg" xmlns:xlink="http://www.w3.org/1999/xlink" x="0px" y="0px"
	 viewBox="0 0 512 454.6" style="enable-background:new 0 0 512 454.6;" xml:space="preserve">
<title>chat-2</title>
<polygon class="svg-fill" points="131.5,126.8 380.5,126.8 380.5,15.2 15.2,15.2 15.2,271.5 131.5,271.5 "/>
<path class="svg-stroke" d="M496.8,194.4c-8.4,0-15.2,6.8-15.2,15.2l0,0v158.3h-29.7c-8.4,0-15.2,6.8-15.2,15.2c0,0.5,0,1.1,0.1,1.6
	l2.8,27.2l-75.7-42.1c-2.3-1.3-4.8-1.9-7.4-1.9H146.7V142h233.8c8.4,0,15.2-6.8,15.2-15.2l0,0V15.2c0-8.4-6.8-15.2-15.2-15.2
	c0,0,0,0,0,0H15.2C6.8,0,0,6.8,0,15.2c0,0,0,0,0,0v256.3c0,8.4,6.8,15.2,15.2,15.2l0,0h101v96.4c0,8.4,6.8,15.2,15.2,15.2h221
	l97.8,54.3c7.3,4.1,16.6,1.4,20.7-5.9c1.5-2.7,2.2-5.9,1.8-9l-4.1-39.5h28.1c8.4,0,15.2-6.8,15.2-15.2V209.6
	C512,201.2,505.2,194.4,496.8,194.4L496.8,194.4z M30.4,256.3V30.4h334.8v81.2H131.5c-8.4,0-15.2,6.8-15.2,15.2l0,0v129.5H30.4z"/>
<path class="svg-stroke" d="M413.8,223.6H214.4c-8.4,0-15.2-6.8-15.2-15.2s6.8-15.2,15.2-15.2h199.4c8.4,0,15.2,6.8,15.2,15.2
	S422.2,223.6,413.8,223.6L413.8,223.6z"/>
<path class="svg-stroke" d="M413.8,309.5H214.4c-8.4,0-15.2-6.8-15.2-15.2S206,279,214.4,279h199.4c8.4,0,15.2,6.8,15.2,15.2
	S422.2,309.5,413.8,309.5L413.8,309.5z"/>
</svg>
