<?xml version="1.0" encoding="utf-8"?>
<!-- Generator: Adobe Illustrator 24.0.1, SVG Export Plug-In . SVG Version: 6.00 Build 0)  -->
<svg version="1.1" id="Layer_1" xmlns="http://www.w3.org/2000/svg" xmlns:xlink="http://www.w3.org/1999/xlink" x="0px" y="0px"
	 viewBox="0 0 512 399" style="enable-background:new 0 0 512 399;" xml:space="preserve">
<title>chat</title>
<path class="svg-fill" d="M33.9,263.5C-9.5,180.2,22.9,77.4,106.2,34s186.1-11.1,229.6,72.3s11.1,186.1-72.3,229.6
	c-55.3,28.8-121.8,25.1-173.6-9.7l-73.8,16.6L33.9,263.5z"/>
<path class="svg-stroke" d="M184.9,369.7c-34.5,0.1-68.4-9.6-97.7-27.9L19.3,357c-7.9,1.8-15.7-3.2-17.5-11.1c-0.5-2.1-0.5-4.3,0-6.5
	l16.7-74.1C6.3,240.3,0,212.7,0,184.9C0,82.9,82.9,0,184.9,0s184.9,82.9,184.9,184.9S286.8,369.7,184.9,369.7z M89.9,311.5
	c2.9,0,5.8,0.9,8.2,2.5c25.6,17.3,55.8,26.5,86.7,26.4c85.8,0,155.5-69.8,155.5-155.5S270.6,29.3,184.9,29.3S29.3,99.1,29.3,184.9
	c-0.1,25,6,49.7,17.6,71.9c1.6,3.1,2.1,6.6,1.3,10l-12.7,56.6l51.2-11.5C87.8,311.6,88.9,311.4,89.9,311.5z"/>
<path class="svg-stroke" d="M341.8,399c-9.9,0-19.8-0.9-29.6-2.6c-8-1.4-13.3-9-11.9-17c1.4-8,9-13.3,17-11.9l0,0
	c8.1,1.4,16.3,2.1,24.5,2.1c28,0,55.3-8.3,78.5-23.9c3.3-2.3,7.5-3,11.4-2.1l44.9,10.1L465.4,304c-0.8-3.4-0.3-6.9,1.3-10
	c36-69,9.1-154.1-59.9-190.1c-4.5-2.3-9.1-4.4-13.8-6.3c-7.5-2.9-11.3-11.5-8.3-19c2.9-7.5,11.5-11.3,19-8.3
	c87.6,34.3,130.8,133,96.6,220.6c-1.6,4-3.3,7.9-5.1,11.7l15.1,67.3c1.8,7.9-3.2,15.7-11.1,17.5c-2.1,0.5-4.3,0.5-6.5,0l-61.5-13.8
	C404.5,390.3,373.4,399.1,341.8,399z"/>
<path class="svg-stroke" d="M273.9,203.4h-18.6c-8.1,0-14.7-6.6-14.7-14.7c0-8.1,6.6-14.7,14.7-14.7h18.6c8.1,0,14.7,6.6,14.7,14.7
	C288.5,196.9,281.9,203.4,273.9,203.4z"/>
<path class="svg-stroke" d="M194.9,203.4h-18.6c-8.1,0-14.7-6.6-14.7-14.7c0-8.1,6.6-14.7,14.7-14.7c0,0,0,0,0,0h18.6
	c8.1,0,14.7,6.6,14.7,14.7C209.6,196.9,203,203.4,194.9,203.4C194.9,203.4,194.9,203.4,194.9,203.4L194.9,203.4z"/>
<path class="svg-stroke" d="M115.9,203.4H97.3c-8.1,0-14.7-6.6-14.7-14.7s6.6-14.7,14.7-14.7c0,0,0,0,0,0h18.6c8.1,0,14.7,6.6,14.7,14.7
	C130.6,196.9,124,203.4,115.9,203.4z"/>
</svg>
