<?xml version="1.0" encoding="utf-8"?>
<!-- Generator: Adobe Illustrator 24.0.1, SVG Export Plug-In . SVG Version: 6.00 Build 0)  -->
<svg version="1.1" id="Layer_1" xmlns="http://www.w3.org/2000/svg" xmlns:xlink="http://www.w3.org/1999/xlink" x="0px" y="0px"
	 viewBox="0 0 409.6 409.6" style="enable-background:new 0 0 409.6 409.6;" xml:space="preserve">
<title>check</title>
<path class="svg-stroke" d="M204.8,409.6C91.9,409.6,0,317.7,0,204.8c0-49.9,18.2-98.1,51.2-135.5c4.4-5,12-5.5,17-1.1c5,4.4,5.5,12,1.1,17
	l0,0c-29.1,33-45.2,75.5-45.2,119.5c0,99.6,81.1,180.7,180.7,180.7s180.7-81.1,180.7-180.7S304.4,24.1,204.8,24.1
	c-27.3-0.1-54.2,6.1-78.7,18c-6,2.9-13.2,0.4-16.1-5.6c-2.9-6-0.4-13.2,5.6-16.1C143.4,6.9,173.9-0.1,204.8,0
	c112.9,0,204.8,91.9,204.8,204.8S317.7,409.6,204.8,409.6z"/>
<path class="svg-fill" d="M349.4,204.8c0,79.8-64.7,144.6-144.6,144.6S60.2,284.6,60.2,204.8C60.2,125,125,60.2,204.8,60.2c0,0,0,0,0,0
	C284.6,60.2,349.4,125,349.4,204.8z"/>
<path class="svg-stroke" d="M204.8,361.4c-86.4,0-156.6-70.2-156.6-156.6S118.4,48.2,204.8,48.2s156.6,70.2,156.6,156.6
	S291.2,361.4,204.8,361.4z M204.8,72.3c-73.1,0-132.5,59.4-132.5,132.5s59.4,132.5,132.5,132.5s132.5-59.5,132.5-132.5
	S277.9,72.3,204.8,72.3z"/>
<path class="svg-stroke" d="M200.9,246.7c-8.8,0-17.2-3.5-23.5-9.7L145,204.5c-4.7-4.7-4.7-12.3,0-17s12.3-4.7,17,0l32.5,32.5
	c3.6,3.5,9.3,3.5,12.8,0l49.8-49.9c4.7-4.7,12.3-4.7,17,0s4.7,12.3,0,17L224.4,237C218.2,243.2,209.7,246.7,200.9,246.7L200.9,246.7
	z"/>
</svg>
