<?xml version="1.0" encoding="utf-8"?>
<!-- Generator: Adobe Illustrator 24.0.1, SVG Export Plug-In . SVG Version: 6.00 Build 0)  -->
<svg version="1.1" id="Layer_1" xmlns="http://www.w3.org/2000/svg" xmlns:xlink="http://www.w3.org/1999/xlink" x="0px" y="0px"
	 viewBox="0 0 418.2 512" style="enable-background:new 0 0 418.2 512;" xml:space="preserve">
<title>check-list</title>
<polygon class="svg-fill" points="14.8,97.6 100.2,97.6 100.2,14.8 "/>
<path class="svg-stroke" d="M100.2,112.4H14.8C6.6,112.4,0,105.8,0,97.7c0-4,1.6-7.9,4.5-10.7L89.9,4.2c5.8-5.7,15.2-5.6,20.9,0.3
	c2.7,2.8,4.2,6.5,4.2,10.3v82.8C115,105.8,108.4,112.4,100.2,112.4C100.2,112.4,100.2,112.4,100.2,112.4z M51.2,82.8h34.2V49.7
	L51.2,82.8z"/>
<path class="svg-stroke" d="M403.4,320c-8.2,0-14.8-6.6-14.8-14.8c0,0,0,0,0,0v-269c0-3.6-3.2-6.6-7.2-6.6H168.7c-8.2,0-14.8-6.6-14.8-14.8
	c0-8.2,6.6-14.8,14.8-14.8h212.6c20.3,0,36.8,16.2,36.8,36.1v269C418.2,313.4,411.6,320,403.4,320C403.4,320,403.4,320,403.4,320z"
	/>
<path class="svg-stroke" d="M381.4,512H36.8C16.5,512,0,495.8,0,475.9V97.6c0-4,1.6-7.8,4.5-10.6L89.9,4.2c5.9-5.7,15.2-5.5,20.9,0.3
	c5.7,5.9,5.5,15.2-0.3,20.9l-80.9,78.5v372c0,3.6,3.2,6.6,7.2,6.6h344.6c4,0,7.2-3,7.2-6.6v-92.7c0.2-8.2,7-14.6,15.2-14.4
	c7.9,0.2,14.2,6.5,14.4,14.4v92.7C418.2,495.8,401.7,512,381.4,512z"/>
<path class="svg-stroke" d="M403.4,112.4H168.7c-8.2-0.2-14.6-7-14.4-15.2c0.2-7.9,6.5-14.2,14.4-14.4h219.9v-43c0-5.7-4.6-10.3-10.3-10.3
	H168.7c-8.2,0-14.8-6.6-14.8-14.8C154,6.6,160.6,0,168.7,0h209.6c22,0,39.8,17.9,39.9,39.8v57.8
	C418.2,105.8,411.6,112.4,403.4,112.4C403.4,112.4,403.4,112.4,403.4,112.4z"/>
<rect x="73" y="189.6" class="svg-fill" width="124.1" height="65"/>
<path class="svg-stroke" d="M197.1,269.4H73c-8.2,0-14.8-6.6-14.8-14.8v-65c0-8.2,6.6-14.8,14.7-14.8c0,0,0,0,0,0h124.1
	c8.2,0,14.8,6.6,14.8,14.8v65C211.9,262.7,205.3,269.4,197.1,269.4C197.2,269.4,197.1,269.4,197.1,269.4z M87.8,239.8h94.6v-35.5
	H87.8V239.8z"/>
<path class="svg-stroke" d="M288.8,265.1L288.8,265.1c-3.9,0-7.7-1.6-10.5-4.3l-23.6-23.6c-5.7-5.9-5.6-15.2,0.3-20.9
	c5.7-5.6,14.9-5.6,20.6,0l13.2,13.2l46-46c5.9-5.7,15.2-5.6,20.9,0.3c5.6,5.7,5.6,14.9,0,20.6l-56.4,56.4
	C296.5,263.5,292.7,265.1,288.8,265.1z"/>
<rect x="73" y="346.1" class="svg-fill" width="124.1" height="65"/>
<path class="svg-stroke" d="M197.1,426H73c-8.2,0-14.8-6.6-14.8-14.8v-65c0-8.2,6.5-14.8,14.7-14.9c0,0,0.1,0,0.1,0h124.1
	c8.2,0,14.8,6.6,14.8,14.8v65C211.9,419.3,205.4,426,197.1,426C197.2,426,197.2,426,197.1,426z M87.8,396.4h94.6v-35.5H87.8V396.4z"
	/>
<path class="svg-stroke" d="M288.8,421.7L288.8,421.7c-3.9,0-7.7-1.6-10.5-4.3l-23.6-23.6c-5.7-5.9-5.6-15.2,0.3-20.9
	c5.7-5.6,14.9-5.6,20.6,0l13.2,13.2l46-46c5.9-5.7,15.2-5.6,20.9,0.3c5.6,5.7,5.6,14.9,0,20.6l-56.4,56.4
	C296.5,420.1,292.7,421.7,288.8,421.7z"/>
</svg>
