<?xml version="1.0" encoding="utf-8"?>
<!-- Generator: Adobe Illustrator 24.0.1, SVG Export Plug-In . SVG Version: 6.00 Build 0)  -->
<svg version="1.1" id="Layer_1" xmlns="http://www.w3.org/2000/svg" xmlns:xlink="http://www.w3.org/1999/xlink" x="0px" y="0px"
	 viewBox="0 0 302.1 409.6" style="enable-background:new 0 0 302.1 409.6;" xml:space="preserve">
<title>clipboard</title>
<path class="svg-stroke" d="M255,409.6H47c-25.9,0-47-21.1-47-47V118c0.1-25.9,21.1-46.9,47-47h208c25.9,0.1,46.9,21.1,47,47v244.6
	C302,388.5,280.9,409.5,255,409.6L255,409.6z M47,92.8c-13.9,0-25.2,11.3-25.2,25.2v244.6c0,13.9,11.3,25.2,25.2,25.2h208
	c13.9,0,25.2-11.3,25.2-25.2V118c0-13.9-11.3-25.2-25.2-25.2H47z"/>
<path class="svg-fill" d="M206,49.4h-15.7c-0.5-21.7-18.5-38.9-40.2-38.4c-21,0.5-37.9,17.4-38.4,38.4H96.1c-18,0.3-32.3,15.1-32,33.1
	c0.3,17.5,14.4,31.6,32,32H206c17.9-0.8,31.9-15.9,31.1-33.9C236.4,63.6,222.9,50.1,206,49.4L206,49.4z"/>
<path class="svg-stroke" d="M206,125.3H96.1c-24,0-43.4-19.4-43.4-43.4s19.4-43.4,43.4-43.4h6.1c6.5-26.9,33.5-43.5,60.5-37.1
	c18.4,4.4,32.7,18.7,37.1,37.1h6.2c24,0,43.4,19.4,43.4,43.4S230,125.3,206,125.3z M96.2,60.3c-11.9,0-21.6,9.7-21.6,21.6
	c0,11.9,9.7,21.6,21.6,21.6H206c11.9,0,21.6-9.7,21.6-21.6c0-11.9-9.7-21.6-21.6-21.6h-15.7c-5.9,0-10.8-4.7-10.9-10.7
	c-0.3-15.7-13.2-28.1-28.9-27.8c-15.3,0.3-27.5,12.6-27.8,27.8c-0.1,5.9-5,10.7-10.9,10.7L96.2,60.3z"/>
<path class="svg-stroke" d="M220.4,190.5H81.7c-6-0.2-10.8-5.2-10.6-11.2c0.2-5.8,4.8-10.4,10.6-10.6h138.7c6-0.2,11.1,4.6,11.2,10.6
	c0.2,6-4.6,11.1-10.6,11.2C220.8,190.5,220.6,190.5,220.4,190.5z"/>
<path class="svg-stroke" d="M220.4,259.9H81.7c-6-0.2-10.8-5.2-10.6-11.2c0.2-5.8,4.8-10.4,10.6-10.6h138.7c6-0.2,11.1,4.6,11.2,10.6
	c0.2,6-4.6,11.1-10.6,11.2C220.8,259.9,220.6,259.9,220.4,259.9z"/>
<path class="svg-stroke" d="M220.4,329.2H81.7c-6-0.2-10.8-5.2-10.6-11.2c0.2-5.8,4.8-10.4,10.6-10.6h138.7c6-0.2,11.1,4.6,11.2,10.6
	c0.2,6-4.6,11.1-10.6,11.2C220.8,329.2,220.6,329.2,220.4,329.2z"/>
</svg>
