<?xml version="1.0" encoding="utf-8"?>
<!-- Generator: Adobe Illustrator 24.0.1, SVG Export Plug-In . SVG Version: 6.00 Build 0)  -->
<svg version="1.1" id="Layer_1" xmlns="http://www.w3.org/2000/svg" xmlns:xlink="http://www.w3.org/1999/xlink" x="0px" y="0px"
	 viewBox="0 0 409.6 391.2" style="enable-background:new 0 0 409.6 391.2;" xml:space="preserve">
<title>clock-3</title>
<path class="svg-fill" d="M148.9,61.3C136,24.4,95.7,4.9,58.8,17.8S2.4,71.1,15.3,108c6.5,18.5,20.3,33.5,38.3,41.4
	C69.5,106.6,104.9,73.9,148.9,61.3z"/>
<path class="svg-stroke" d="M53.5,160.7c-1.6,0-3.1-0.4-4.6-1C7.5,141.4-11.3,93,7,51.5s66.8-60.3,108.2-42c20.8,9.2,36.9,26.6,44.4,48.1
	c2.1,5.9-1,12.3-6.9,14.4c-0.2,0.1-0.4,0.1-0.6,0.2c-40.5,11.6-73.1,41.7-87.9,81.1C62.4,157.8,58.2,160.7,53.5,160.7L53.5,160.7z
	 M82.1,25.2c-32.8,0-59.5,26.6-59.5,59.5c0,19.4,9.5,37.7,25.4,48.8c17.2-36.3,47.8-64.5,85.4-78.8C122.7,36.4,103.2,25.2,82.1,25.2
	z"/>
<path class="svg-fill" d="M327.5,13.9c-30.1,0-56.9,19-66.8,47.5c44,12.6,79.4,45.2,95.4,88.1c35.8-15.8,52-57.6,36.2-93.3
	C381,30.4,355.6,13.9,327.5,13.9z"/>
<path class="svg-stroke" d="M356.1,160.7c-4.7,0-8.9-2.9-10.6-7.4c-14.8-39.5-47.4-69.6-87.9-81.2c-6-1.7-9.5-8-7.8-14
	c0.1-0.2,0.1-0.4,0.2-0.6c14.9-42.8,61.7-65.4,104.5-50.5S420,68.8,405,111.7c-7.5,21.5-23.6,38.9-44.4,48.1
	C359.2,160.4,357.7,160.7,356.1,160.7L356.1,160.7z M276.2,54.6c37.6,14.3,68.1,42.5,85.4,78.8c26.9-18.8,33.5-55.9,14.7-82.8
	c-18.8-26.9-55.9-33.5-82.8-14.7C286.4,40.8,280.5,47.2,276.2,54.6z"/>
<path class="svg-stroke" d="M196.8,230.6c-3.1,0-6.1-0.7-8.8-2.1l-45.1-22.6c-5.6-2.8-7.8-9.6-5-15.2s9.6-7.8,15.2-5l43.3,21.6l57.4-57.4
	c4.4-4.4,11.6-4.4,16,0s4.4,11.6,0,16l-58.9,58.9C207.1,228.5,202.1,230.6,196.8,230.6L196.8,230.6z"/>
<path class="svg-stroke" d="M204.8,391.2c-96.8,0-175.6-78.8-175.6-175.6S108,39.9,204.8,39.9c69.8,0,133,41.3,161,105.2
	c2.5,5.7-0.1,12.4-5.9,14.9s-12.4-0.1-14.9-5.9c-24.4-55.7-79.4-91.7-140.2-91.7c-84.4,0-153,68.6-153,153s68.6,153,153,153
	s153-68.6,153-153c-0.2-6.2,4.7-11.5,11-11.6c6.2-0.2,11.5,4.7,11.6,11c0,0.2,0,0.4,0,0.7C380.4,312.4,301.6,391.2,204.8,391.2
	L204.8,391.2z"/>
<path class="svg-stroke" d="M287.1,281.5c-1.9,0-3.7-0.5-5.4-1.4l-102.4-55.7c-5.5-3-7.5-9.8-4.5-15.3s9.8-7.5,15.3-4.5l0,0l102.5,55.7
	c5.5,3,7.5,9.8,4.5,15.3C295.1,279.2,291.3,281.5,287.1,281.5L287.1,281.5z"/>
<path class="svg-stroke" d="M204.8,103.1c-6.2,0-11.3-5-11.3-11.3c0,0,0,0,0,0V51.2c0-6.2,5.1-11.3,11.3-11.3s11.3,5.1,11.3,11.3v40.5
	C216.1,98,211.1,103,204.8,103.1C204.8,103.1,204.8,103.1,204.8,103.1z"/>
<path class="svg-stroke" d="M204.8,391.2c-6.2,0-11.3-5.1-11.3-11.3c0,0,0,0,0,0v-40.5c0-6.2,5.1-11.3,11.3-11.3s11.3,5.1,11.3,11.3v40.5
	C216.1,386.1,211.1,391.2,204.8,391.2C204.8,391.2,204.8,391.2,204.8,391.2z"/>
<path class="svg-stroke" d="M369.1,226.9h-40.5c-6.2,0.2-11.5-4.7-11.6-11c-0.2-6.2,4.7-11.5,11-11.6c0.2,0,0.4,0,0.7,0h40.5
	c6.2,0.2,11.2,5.4,11,11.6C379.9,221.9,375.1,226.7,369.1,226.9z"/>
<path class="svg-stroke" d="M81,226.9H40.5c-6.2-0.2-11.2-5.4-11-11.6c0.2-6,5-10.8,11-11H81c6.2,0.2,11.2,5.4,11,11.6
	C91.8,221.9,87,226.7,81,226.9z"/>
<path class="svg-stroke" d="M241.2,62.5c-6.2,0-11.3-5.1-11.3-11.3V27.9c0-2.9-2.4-5.3-5.3-5.3H185c-2.9,0-5.3,2.4-5.3,5.3v23.4
	c0,6.2-5.1,11.3-11.3,11.3s-11.3-5.1-11.3-11.3V27.9C157.1,12.5,169.6,0,185,0h39.6c15.4,0,27.9,12.5,27.9,27.9v23.4
	C252.4,57.5,247.4,62.5,241.2,62.5L241.2,62.5L241.2,62.5z"/>
</svg>
