<?xml version="1.0" encoding="utf-8"?>
<!-- Generator: Adobe Illustrator 24.0.1, SVG Export Plug-In . SVG Version: 6.00 Build 0)  -->
<svg version="1.1" id="Layer_1" xmlns="http://www.w3.org/2000/svg" xmlns:xlink="http://www.w3.org/1999/xlink" x="0px" y="0px"
	 viewBox="0 0 512 437.2" style="enable-background:new 0 0 512 437.2;" xml:space="preserve">
<title>clock</title>
<circle class="svg-fill" cx="256" cy="232" r="123.5"/>
<path class="svg-stroke" d="M256,369.1c-75.6,0-137.1-61.5-137.1-137.1S180.4,95,256,95s137.1,61.5,137.1,137.1S331.6,369.1,256,369.1z
	 M256,122.1c-60.7,0-109.9,49.2-109.9,109.9S195.3,341.9,256,341.9S365.9,292.7,365.9,232c0,0,0,0,0,0
	C365.8,171.4,316.7,122.2,256,122.1L256,122.1z"/>
<path class="svg-stroke" d="M316.3,245.6H256c-7.5,0-13.6-6.1-13.6-13.6c0,0,0,0,0,0v-61.2c0-7.5,6.1-13.6,13.6-13.6
	c7.5,0,13.6,6.1,13.6,13.6c0,0,0,0,0,0v47.6h46.7c7.5,0,13.6,6.1,13.6,13.6C329.9,239.6,323.8,245.6,316.3,245.6L316.3,245.6z"/>
<path class="svg-stroke" d="M493.1,21.6c-26.3-27.7-70-28.9-97.7-2.7L384,29.4c-5.5,5.1-5.9,13.7-0.8,19.2c0,0,0.1,0.1,0.1,0.1l28.9,30.5
	l-9.7,9.2c-79.2-80.9-208.9-82.2-289.8-3c-1,1-2.1,2.1-3.1,3.1l-9.8-9.3l28.8-30.5c5.2-5.4,4.9-14-0.5-19.2c0,0-0.1-0.1-0.1-0.1
	l-11.4-10.5C88.9-7.4,45.1-6.2,18.9,21.6s-25.1,71.5,2.7,97.8l0.1,0.1l11.5,10.6c5.5,5,14,4.8,19.1-0.6L81.1,99l10.7,10.2
	C36.4,183.1,37.3,285.1,94.1,358l-20.6,19.5c-5.4,5.2-5.7,13.8-0.5,19.2c5.2,5.4,13.8,5.7,19.2,0.5l0,0l20-19
	c79.7,78.6,207.8,78.6,287.5,0l20,19c5.4,5.2,14.1,4.9,19.2-0.5c5.2-5.4,4.9-14.1-0.5-19.2l0,0l-20.6-19.6
	c28.1-35.9,43.3-80.3,43.3-125.9c0-7.5-6.1-13.6-13.6-13.6c-7.5,0-13.6,6.1-13.6,13.6c0,0,0,0,0,0c0,98.1-79.8,178-178,178
	s-178-79.8-178-178s79.8-178,178-178c52.1,0,101.6,22.8,135.4,62.5c0.1,0.1,0.2,0.3,0.4,0.4s0.1,0.2,0.2,0.2s0.1,0.1,0.2,0.2
	l0.5,0.4c0.2,0.2,0.5,0.4,0.7,0.6l0.1,0.1c5.3,4.2,12.8,3.8,17.7-0.8L430.9,99l28.9,30.5c5.1,5.4,13.6,5.7,19.1,0.6l11.5-10.6
	l0.1-0.1C518.1,93.1,519.3,49.3,493.1,21.6z M41.7,101l-1.5-1.4C23.9,83.1,24,56.5,40.4,40.2c15.8-15.6,41-16.3,57.6-1.5l0.1,0.1
	l1.4,1.2L41.7,101z M471.8,99.6l-1.5,1.4l-57.8-60.9l1.4-1.2l0.1-0.1c17.3-15.5,43.8-14.1,59.3,3.2
	C488.2,58.4,487.5,83.8,471.8,99.6z"/>
</svg>
