<?xml version="1.0" encoding="utf-8"?>
<!-- Generator: Adobe Illustrator 24.0.1, SVG Export Plug-In . SVG Version: 6.00 Build 0)  -->
<svg version="1.1" id="Layer_1" xmlns="http://www.w3.org/2000/svg" xmlns:xlink="http://www.w3.org/1999/xlink" x="0px" y="0px"
	 viewBox="0 0 409.6 361.2" style="enable-background:new 0 0 409.6 361.2;" xml:space="preserve">
<title>cloud-computing-3</title>
<path class="svg-stroke" d="M309.9,231h-12.7c-6.1,0.2-11.3-4.6-11.5-10.8c-0.2-6.1,4.6-11.3,10.8-11.5c0.2,0,0.4,0,0.7,0h12.7
	c23,0,41.6-18.7,41.6-41.6c0-20-14.3-37.1-33.9-40.8c-6-1.1-10-6.9-8.9-13c0-0.3,0.1-0.5,0.2-0.7c10-38.6-13.2-78-51.8-88
	c-5.9-1.5-11.9-2.3-18-2.3c-24.7-0.1-47.7,12.6-60.9,33.5c-3,4.7-8.9,6.5-14,4.2c-23.4-10.6-50.9-0.2-61.5,23.2
	c-2.7,6-4.1,12.5-4.1,19.1c0,3.6,0.4,7.2,1.3,10.7c1.4,6-2.3,12-8.3,13.4c-0.1,0-0.2,0-0.3,0.1c-22.5,4.7-36.9,26.7-32.2,49.2
	c4,19.3,21,33.1,40.7,33.1h138.4c6.1,0.2,11,5.3,10.8,11.5c-0.2,5.9-4.9,10.6-10.8,10.8H99.8c-35.3,0-63.8-28.6-63.8-63.9
	c0-26.3,16.1-49.8,40.5-59.4c-0.1-1.8-0.2-3.6-0.2-5.4c0-38,30.8-68.7,68.8-68.7c6.6,0,13.2,1,19.5,2.8C196.6-4.7,255.9-12,297,20.1
	c26.6,20.7,40.1,54,35.4,87.4c33,12.4,49.6,49.3,37.2,82.3C360.3,214.6,336.4,231,309.9,231z"/>
<path class="svg-stroke" d="M204.8,334.3c-6.1,0-11.1-5-11.1-11.1c0,0,0,0,0,0V220.8c-0.2-6.1,4.6-11.3,10.8-11.5
	c6.1-0.2,11.3,4.6,11.5,10.8c0,0.2,0,0.4,0,0.7v102.4C215.9,329.3,210.9,334.3,204.8,334.3C204.8,334.3,204.8,334.3,204.8,334.3
	L204.8,334.3z"/>
<path class="svg-stroke" d="M398.5,334.3H11.1c-6.1-0.2-11-5.3-10.8-11.5c0.2-5.9,4.9-10.6,10.8-10.8h387.4c6.1,0.2,11,5.3,10.8,11.5
	C409.1,329.4,404.4,334.1,398.5,334.3z"/>
<path class="svg-fill" d="M234.8,350.1h-60.1c-8,0-14.5-6.5-14.5-14.4c0,0,0,0,0,0v-25c0-8,6.5-14.5,14.4-14.5c0,0,0,0,0,0h60.1
	c8,0,14.5,6.5,14.5,14.5v25C249.3,343.6,242.8,350.1,234.8,350.1z"/>
<path class="svg-stroke" d="M234.8,361.2h-60.1c-14.1,0-25.6-11.5-25.6-25.6v-25c0-14.1,11.5-25.6,25.6-25.6h60.1
	c14.1,0,25.6,11.5,25.6,25.6v25C260.4,349.8,249,361.2,234.8,361.2z M174.8,307.3c-1.8,0-3.3,1.5-3.3,3.3v25c0,1.8,1.5,3.3,3.3,3.3
	h60.1c1.8,0,3.3-1.5,3.3-3.3v-25c0-1.8-1.5-3.3-3.3-3.3H174.8z"/>
<path class="svg-stroke" d="M71.3,356.5c-6.1,0-11.1-5-11.1-11.1c0,0,0,0,0,0v-44.5c0.2-6.1,5.3-11,11.5-10.8c5.9,0.2,10.6,4.9,10.8,10.8
	v44.5C82.4,351.5,77.4,356.5,71.3,356.5L71.3,356.5z"/>
<path class="svg-stroke" d="M338.3,356.5c-6.1,0-11.1-5-11.1-11.1c0,0,0,0,0,0v-44.5c0.2-6.1,5.3-11,11.5-10.8c5.9,0.2,10.6,4.9,10.8,10.8
	v44.5C349.4,351.5,344.4,356.5,338.3,356.5L338.3,356.5z"/>
</svg>
