<?xml version="1.0" encoding="utf-8"?>
<!-- Generator: Adobe Illustrator 24.0.1, SVG Export Plug-In . SVG Version: 6.00 Build 0)  -->
<svg version="1.1" id="Layer_1" xmlns="http://www.w3.org/2000/svg" xmlns:xlink="http://www.w3.org/1999/xlink" x="0px" y="0px"
	 viewBox="0 0 409.6 319.1" style="enable-background:new 0 0 409.6 319.1;" xml:space="preserve">
<title>cloud-computing-2</title>
<path class="svg-stroke" d="M333.9,278.3H276c-6-0.2-10.8-5.2-10.6-11.2c0.2-5.8,4.8-10.4,10.6-10.6h57.9c29.8,0,53.9-24.1,53.9-53.9
	c0-25.9-18.5-48.1-43.9-52.9c-5.9-1.1-9.8-6.8-8.7-12.7c0-0.2,0.1-0.5,0.2-0.7c12.6-48.9-16.8-98.7-65.7-111.4
	c-38.3-9.9-78.7,6-100,39.4c-2.9,4.6-8.8,6.3-13.7,4.1c-30.1-13.6-65.6-0.2-79.2,29.9c-3.5,7.8-5.3,16.2-5.3,24.7
	c0,4.6,0.6,9.3,1.6,13.8c1.4,5.9-2.3,11.7-8.1,13.1c-0.1,0-0.2,0-0.2,0.1C35.5,156,16.9,184.6,23,213.7
	c5.3,24.9,27.2,42.8,52.7,42.8h58.2c6,0.2,10.8,5.2,10.6,11.2c-0.2,5.8-4.8,10.4-10.6,10.6H75.7C33.9,278.3,0,244.4,0,202.6
	c0-31.9,20-60.4,50-71.2c-0.3-2.8-0.4-5.7-0.5-8.5c0-45.1,36.6-81.7,81.8-81.7c8.5,0,16.9,1.3,25,3.9c37.6-50,108.6-60,158.5-22.4
	C348.4,48,365.2,89.6,358.6,131c39.5,13.6,60.5,56.7,46.9,96.2C394.9,257.8,366.2,278.3,333.9,278.3L333.9,278.3z"/>
<path class="svg-fill" d="M250.6,224.3l-39.3-53.6c-2.7-3.6-7.8-4.4-11.4-1.8c-0.7,0.5-1.3,1.1-1.8,1.8L159,224.3
	c-2.7,3.6-1.9,8.7,1.7,11.4c1.4,1,3.1,1.6,4.9,1.6h10.7v52.2c0,10.3,8.3,18.6,18.6,18.6h19.8c10.3,0,18.6-8.3,18.6-18.6c0,0,0,0,0,0
	v-52.3h10.7c4.5,0,8.2-3.6,8.2-8.1C252.3,227.4,251.7,225.7,250.6,224.3L250.6,224.3z"/>
<path class="svg-stroke" d="M214.7,319.1h-19.8c-16.3,0-29.5-13.2-29.5-29.5v-41.3c-10.5-0.1-19-8.8-18.9-19.3c0-4,1.3-7.8,3.7-11
	l39.3-53.6c6.2-8.5,18-10.4,26.5-4.2c1.6,1.2,3,2.6,4.2,4.2l39.3,53.6c6.2,8.5,4.4,20.4-4.1,26.6c-3.2,2.3-7.1,3.6-11,3.7v41.3
	C244.3,305.8,231,319,214.7,319.1z M171,226.4h5.3c6,0,10.9,4.9,10.9,10.9v52.2c0,4.3,3.5,7.7,7.7,7.7h19.8c4.3,0,7.7-3.5,7.7-7.7
	v-52.2c0-6,4.9-10.9,10.9-10.9h5.3l-33.9-46.2L171,226.4z"/>
</svg>
