<?xml version="1.0" encoding="utf-8"?>
<!-- Generator: Adobe Illustrator 24.0.1, SVG Export Plug-In . SVG Version: 6.00 Build 0)  -->
<svg version="1.1" id="Layer_1" xmlns="http://www.w3.org/2000/svg" xmlns:xlink="http://www.w3.org/1999/xlink" x="0px" y="0px"
	 viewBox="0 0 409.6 319.1" style="enable-background:new 0 0 409.6 319.1;" xml:space="preserve">
<title>cloud-computing</title>
<path class="svg-stroke" d="M333.9,278.3h-47c-6-0.2-10.8-5.2-10.6-11.2c0.2-5.8,4.8-10.4,10.6-10.6h47c29.8,0,53.9-24.1,53.9-53.9
	c0-25.9-18.5-48.1-43.9-52.9c-5.9-1.1-9.8-6.8-8.7-12.7c0-0.2,0.1-0.5,0.2-0.7c12.7-48.9-16.6-98.8-65.5-111.4
	c-38.4-10-78.9,6-100.2,39.5c-2.9,4.6-8.8,6.3-13.7,4.1c-30.1-13.6-65.6-0.2-79.2,29.9c-3.5,7.8-5.3,16.2-5.3,24.7
	c0,4.6,0.6,9.3,1.6,13.8c1.4,5.9-2.3,11.7-8.1,13.1c-0.1,0-0.1,0-0.2,0C35.5,156,16.9,184.5,23,213.7c5.2,24.9,27.2,42.8,52.7,42.8
	H123c6-0.2,11.1,4.6,11.2,10.6c0.2,6-4.6,11.1-10.6,11.2c-0.2,0-0.4,0-0.7,0H75.7C33.9,278.3,0,244.5,0,202.7
	c0-31.9,20-60.4,50-71.3c-0.3-2.8-0.4-5.6-0.5-8.5c0-45.1,36.6-81.7,81.7-81.7c8.5,0,17,1.3,25.1,3.9c37.6-50,108.6-60,158.5-22.4
	C348.4,48,365.2,89.6,358.6,131c39.5,13.6,60.5,56.7,46.9,96.2C394.9,257.8,366.2,278.3,333.9,278.3L333.9,278.3z"/>
<path class="svg-fill" d="M159,251.2l39.2,53.6c2.7,3.6,7.8,4.4,11.4,1.8c0.7-0.5,1.3-1.1,1.8-1.8l39.3-53.6c2.7-3.6,1.9-8.7-1.7-11.4
	c-1.4-1-3.1-1.6-4.9-1.6h-10.7V186c0-10.3-8.3-18.6-18.6-18.6c0,0,0,0,0,0h-19.8c-10.3,0-18.6,8.4-18.6,18.6v52.2h-10.7
	c-4.5,0-8.2,3.6-8.2,8.1C157.4,248.1,157.9,249.8,159,251.2L159,251.2z"/>
<path class="svg-stroke" d="M204.8,319.1c-6.1,0-11.8-2.9-15.4-7.8l-39.3-53.6c-6.2-8.5-4.4-20.4,4.1-26.7c3.2-2.3,7.1-3.6,11.1-3.7V186
	c0-16.3,13.2-29.5,29.5-29.6h19.8c16.3,0,29.5,13.2,29.6,29.6v41.3c10.5,0.1,19,8.8,18.8,19.3c0,4-1.3,7.8-3.7,11l-39.3,53.6
	C216.6,316.2,210.9,319,204.8,319.1z M171,249.1l33.8,46.2l33.8-46.2h-5.3c-6,0-10.9-4.9-10.9-10.9V186c0-4.3-3.5-7.7-7.7-7.7h-19.9
	c-4.3,0-7.7,3.5-7.7,7.7v52.2c0,6-4.9,10.9-10.9,10.9L171,249.1z"/>
</svg>
