<?xml version="1.0" encoding="utf-8"?>
<!-- Generator: Adobe Illustrator 24.0.1, SVG Export Plug-In . SVG Version: 6.00 Build 0)  -->
<svg version="1.1" id="Layer_1" xmlns="http://www.w3.org/2000/svg" xmlns:xlink="http://www.w3.org/1999/xlink" x="0px" y="0px"
	 viewBox="0 0 383 409.6" style="enable-background:new 0 0 383 409.6;" xml:space="preserve">
<title>compass</title>
<path class="svg-stroke" d="M344.8,395.4c-2.9,0-5.8-0.4-8.6-1c-9.9-2.2-18.5-8.3-23.9-17L267.9,307c-3.1-5.2-1.4-11.9,3.8-15
	c5-3,11.5-1.5,14.7,3.3l44.3,70.4c4.8,7.7,15,10,22.7,5.2s10-15,5.2-22.7L206.5,106.7c-4.8-7.7-15-10-22.7-5.2l0,0
	c-7.7,4.9-10,15-5.2,22.7l74.6,118.5c1.1,1.7,1.7,3.8,1.7,5.8v3.6c0,35-28.4,63.4-63.4,63.4s-63.4-28.4-63.4-63.4l0,0
	c-0.2-6,4.6-11.1,10.6-11.3s11.1,4.6,11.3,10.6c0,0.2,0,0.4,0,0.7c0,23,18.6,41.6,41.6,41.6s41.6-18.6,41.6-41.6v-0.4l-72.9-115.8
	c-11.2-18-5.7-41.6,12.3-52.8c17.8-11.1,41.3-5.8,52.6,12l152.1,241.6c11.3,17.9,5.9,41.6-12,52.9
	C359,393.4,351.9,395.4,344.8,395.4L344.8,395.4z"/>
<path class="svg-fill" d="M23.7,380.2c12.8,8.1,29.7,4.2,37.8-8.6L213.6,130c8.3-12.6,4.8-29.6-7.9-37.9s-29.6-4.8-37.9,7.9
	c-0.2,0.3-0.4,0.6-0.5,0.9L15.1,342.5C7.1,355.3,10.9,372.2,23.7,380.2L23.7,380.2z"/>
<path class="svg-stroke" d="M38.3,395.4C17.1,395.4,0,378.2,0,357c0-7.2,2-14.3,5.9-20.4L158,95.1c11.4-17.9,35-23.1,52.9-11.8
	c17.7,11.3,23.1,34.7,12,52.6L70.7,377.5C63.7,388.7,51.5,395.4,38.3,395.4z M190.4,99c-5.7,0-10.9,2.9-13.9,7.7L24.4,348.3
	c-4.8,7.7-2.5,17.9,5.2,22.7s17.9,2.5,22.7-5.2l152.1-241.6c4.8-7.7,2.5-17.9-5.2-22.7C196.6,99.9,193.5,99,190.4,99L190.4,99z"/>
<path class="svg-stroke" d="M218.3,87.4h-53.5c-6,0-10.9-4.9-10.9-10.9V37.7c0-20.8,16.9-37.7,37.7-37.7s37.7,16.9,37.7,37.7v38.8
	C229.2,82.5,224.3,87.4,218.3,87.4z M175.7,65.6h31.7V37.7c0-8.7-7.1-15.8-15.9-15.8c-8.7,0-15.8,7.1-15.8,15.8V65.6z"/>
<path class="svg-fill" d="M237.4,109.9c0,25.3-20.5,45.9-45.9,45.9c-25.3,0-45.9-20.5-45.9-45.9c0-25.3,20.5-45.9,45.9-45.9l0,0
	C216.8,64,237.4,84.5,237.4,109.9C237.4,109.8,237.4,109.9,237.4,109.9z"/>
<path class="svg-stroke" d="M191.5,166.7c-31.4,0-56.8-25.4-56.8-56.8s25.4-56.8,56.8-56.8s56.8,25.4,56.8,56.8l0,0
	C248.3,141.2,222.9,166.6,191.5,166.7z M191.5,74.9c-19.3,0-35,15.7-35,35s15.7,35,35,35s35-15.7,35-35S210.8,74.9,191.5,74.9z"/>
<path class="svg-stroke" d="M370.7,409.6c-3.9,0-7.5-2-9.4-5.4L351,386.7c-3.1-5.2-1.3-11.9,3.9-15s11.9-1.3,15,3.9l10.4,17.6
	c3.1,5.2,1.3,11.9-3.9,15C374.6,409.1,372.7,409.6,370.7,409.6L370.7,409.6z"/>
<path class="svg-stroke" d="M12.3,409.6c-6,0-10.9-4.9-10.9-10.9c0-1.9,0.5-3.9,1.5-5.5l10.4-17.6c3-5.2,9.7-7,14.9-4s7,9.7,4,14.9
	c0,0.1-0.1,0.1-0.1,0.2l-10.3,17.5C19.7,407.6,16.1,409.6,12.3,409.6z"/>
</svg>
