<?xml version="1.0" encoding="utf-8"?>
<!-- Generator: Adobe Illustrator 24.0.1, SVG Export Plug-In . SVG Version: 6.00 Build 0)  -->
<svg version="1.1" id="Layer_1" xmlns="http://www.w3.org/2000/svg" xmlns:xlink="http://www.w3.org/1999/xlink" x="0px" y="0px"
	 viewBox="0 0 409.6 399.6" style="enable-background:new 0 0 409.6 399.6;" xml:space="preserve">
<title>computer</title>
<path class="svg-stroke" d="M257,399.6H152.6V293H257V399.6z M174.9,377.4h59.9v-62.1h-60L174.9,377.4z"/>
<path class="svg-stroke" d="M363.9,337.3H45.7C20.5,337.3,0,316.8,0,291.6V45.7C0,20.5,20.5,0,45.7,0h318.2c25.2,0,45.7,20.5,45.7,45.7
	v245.9C409.6,316.8,389.1,337.3,363.9,337.3L363.9,337.3z M45.7,22.2c-13,0-23.5,10.5-23.5,23.5v245.9c0,13,10.5,23.5,23.5,23.5
	h318.2c13,0,23.5-10.5,23.5-23.5V45.7c0-13-10.5-23.5-23.5-23.5H45.7z"/>
<path class="svg-stroke" d="M326.3,292.9H83.3c-21.5,0-38.9-17.4-38.9-38.9V83.3c0-21.5,17.5-38.9,38.9-38.9h242.9
	c21.5,0,38.9,17.4,38.9,38.9H343c0-9.2-7.5-16.7-16.7-16.7H83.3c-9.2,0-16.7,7.5-16.7,16.7V254c0,9.2,7.5,16.7,16.7,16.7h242.9
	c9.2,0,16.7-7.5,16.7-16.7v-95.3h22.2V254C365.2,275.5,347.8,292.9,326.3,292.9L326.3,292.9z"/>
<path class="svg-fill" d="M11.1,239.7v51.9c0,19.1,15.5,34.6,34.6,34.6h318.2c19.1,0,34.6-15.5,34.6-34.6l0,0v-51.9H11.1z"/>
<path class="svg-stroke" d="M363.9,337.3H45.7C20.5,337.3,0,316.8,0,291.6v-63h409.6v63C409.6,316.8,389.1,337.3,363.9,337.3L363.9,337.3z
	 M22.2,250.8v40.8c0,13,10.5,23.5,23.5,23.5h318.2c13,0,23.5-10.5,23.5-23.5v-40.8H22.2z"/>
<rect x="184.8" y="271.9" class="svg-stroke" width="39.9" height="22.2"/>
<rect x="116.6" y="377.4" class="svg-stroke" width="176.5" height="22.2"/>
</svg>
