<?xml version="1.0" encoding="utf-8"?>
<!-- Generator: Adobe Illustrator 24.0.1, SVG Export Plug-In . SVG Version: 6.00 Build 0)  -->
<svg version="1.1" id="Layer_1" xmlns="http://www.w3.org/2000/svg" xmlns:xlink="http://www.w3.org/1999/xlink" x="0px" y="0px"
	 viewBox="0 0 409.6 355.1" style="enable-background:new 0 0 409.6 355.1;" xml:space="preserve">
<title>controller-2</title>
<path class="svg-stroke" d="M398.2,64.9H221.9c-6.3,0-11.4-5.1-11.4-11.4s5.1-11.4,11.4-11.4h176.4c6.3,0,11.4,5.1,11.4,11.4
	S404.5,64.9,398.2,64.9z"/>
<path class="svg-stroke" d="M147.9,64.9H11.4C5.1,64.9,0,59.8,0,53.5s5.1-11.4,11.4-11.4h136.5c6.3,0,11.4,5.1,11.4,11.4
	S154.2,64.9,147.9,64.9z"/>
<path class="svg-fill" d="M156.7,95.7H77.5c-7.7,0-14-6.3-14-14V25.3c0-7.7,6.3-14,14-13.9h79.2c7.7,0,14,6.2,14,13.9v56.4
	C170.7,89.5,164.4,95.8,156.7,95.7L156.7,95.7z"/>
<path class="svg-stroke" d="M156.7,107.1H77.5c-14,0-25.3-11.4-25.3-25.3V25.3C52.2,11.3,63.5,0,77.5,0h79.2c14,0,25.3,11.4,25.3,25.3v56.4
	C182,95.7,170.7,107.1,156.7,107.1L156.7,107.1z M77.5,22.8c-1.4,0-2.5,1.2-2.5,2.6v56.4c0,1.4,1.1,2.6,2.6,2.6c0,0,0,0,0,0h79.2
	c1.4,0,2.6-1.2,2.6-2.6l0,0V25.3c0-1.4-1.2-2.6-2.6-2.6H77.5z"/>
<path class="svg-stroke" d="M398.2,313H221.9c-6.3,0-11.4-5.1-11.4-11.4s5.1-11.4,11.4-11.4l0,0h176.4c6.3,0,11.4,5.1,11.4,11.4
	S404.5,313,398.2,313z"/>
<path class="svg-stroke" d="M147.9,313H11.4C5.1,313,0,307.9,0,301.6s5.1-11.4,11.4-11.4h136.5c6.3,0,11.4,5.1,11.4,11.4
	S154.2,313,147.9,313z"/>
<path class="svg-fill" d="M156.7,343.7H77.5c-7.7,0-14-6.2-14-14v-56.4c0-7.7,6.3-14,14-14h79.2c7.7,0,14,6.3,14,14v56.4
	C170.7,337.5,164.4,343.7,156.7,343.7L156.7,343.7z"/>
<path class="svg-stroke" d="M156.7,355.1H77.5c-14,0-25.3-11.3-25.3-25.3v-56.4c0-14,11.3-25.4,25.3-25.4h79.2c14,0,25.3,11.4,25.3,25.4
	v56.4C182,343.8,170.7,355.1,156.7,355.1L156.7,355.1z M77.5,270.8c-1.4,0-2.5,1.2-2.5,2.6v56.4c0,1.4,1.1,2.6,2.6,2.6h79.2
	c1.4,0,2.6-1.2,2.6-2.6v-56.4c0-1.4-1.2-2.6-2.6-2.6H77.5z"/>
<path class="svg-stroke" d="M398.2,188.9H275c-6.3,0-11.4-5.1-11.4-11.4c0-6.3,5.1-11.4,11.4-11.4h123.2c6.3,0,11.4,5.1,11.4,11.4
	C409.6,183.8,404.5,188.9,398.2,188.9z"/>
<path class="svg-stroke" d="M199.1,188.9H11.4c-6.3,0-11.4-5.1-11.4-11.4c0-6.3,5.1-11.4,11.4-11.4c0,0,0,0,0,0h187.7
	c6.3,0,11.4,5.1,11.4,11.4C210.5,183.8,205.4,188.9,199.1,188.9z"/>
<path class="svg-fill" d="M344.1,219.7h-79.2c-7.7,0-14-6.3-14-14v-56.4c0-7.7,6.3-14,14-13.9h79.2c7.7,0,13.9,6.3,13.9,13.9v56.4
	C358,213.5,351.8,219.7,344.1,219.7L344.1,219.7z"/>
<path class="svg-stroke" d="M344.1,231.1h-79.2c-14,0-25.3-11.3-25.3-25.3v-56.4c0-14,11.3-25.3,25.3-25.4h79.2c14,0,25.3,11.3,25.3,25.3
	v56.4C369.4,219.7,358.1,231.1,344.1,231.1L344.1,231.1z M264.9,146.8c-1.4,0-2.6,1.2-2.6,2.6v56.4c0,1.4,1.2,2.6,2.6,2.6h79.2
	c1.4,0,2.6-1.2,2.6-2.6v-56.4c0-1.4-1.1-2.6-2.6-2.6H264.9z"/>
</svg>
