<?xml version="1.0" encoding="utf-8"?>
<!-- Generator: Adobe Illustrator 24.0.1, SVG Export Plug-In . SVG Version: 6.00 Build 0)  -->
<svg version="1.1" id="Layer_1" xmlns="http://www.w3.org/2000/svg" xmlns:xlink="http://www.w3.org/1999/xlink" x="0px" y="0px"
	 viewBox="0 0 512 502.2" style="enable-background:new 0 0 512 502.2;" xml:space="preserve">
<title>controller</title>
<path class="svg-stroke" d="M495.8,267.3H16.2C7.3,267.3,0,260,0,251.1c0-8.9,7.3-16.2,16.2-16.2h479.6c8.9,0,16.2,7.3,16.2,16.2
	C512,260,504.7,267.3,495.8,267.3z"/>
<circle class="svg-fill" cx="198.8" cy="251.1" r="69.7"/>
<path class="svg-stroke" d="M198.8,336.9c-47.4,0-85.9-38.4-85.9-85.9s38.4-85.9,85.9-85.9s85.9,38.4,85.9,85.9l0,0
	C284.5,298.5,246.1,336.9,198.8,336.9z M198.8,197.6c-29.5,0-53.5,23.9-53.5,53.5s23.9,53.5,53.5,53.5s53.5-23.9,53.5-53.5
	c0,0,0,0,0,0C252.2,221.6,228.3,197.7,198.8,197.6z"/>
<path class="svg-stroke" d="M325.7,102.1H16.2c-8.9,0.2-16.4-6.8-16.6-15.8s6.8-16.4,15.8-16.6c0.3,0,0.5,0,0.8,0h309.5
	c8.9,0.2,16,7.7,15.8,16.6C341.2,94.9,334.3,101.8,325.7,102.1z"/>
<path class="svg-stroke" d="M497.5,102.1h-27.6c-8,0.2-14.7-6.8-14.9-15.8c-0.2-8.9,6.1-16.4,14.2-16.6c0.2,0,0.5,0,0.7,0h27.6
	c8-0.2,14.7,6.8,14.9,15.8c0.2,8.9-6.1,16.4-14.2,16.6C498,102.1,497.8,102.1,497.5,102.1z"/>
<path class="svg-stroke" d="M395.3,171.7c-8.9,0-16.2-7.3-16.2-16.2c0-8.9,7.3-16.2,16.2-16.2c29.5,0,53.5-23.9,53.5-53.5
	c0-29.5-23.9-53.5-53.5-53.5c-29.5,0-53.5,23.9-53.5,53.5v0c0.2,8.9-6.8,16.4-15.8,16.6c-8.9,0.2-16.4-6.8-16.6-15.8
	c0-0.3,0-0.5,0-0.8c0-47.4,38.4-85.8,85.9-85.8s85.8,38.4,85.8,85.9C481.2,133.3,442.7,171.7,395.3,171.7L395.3,171.7z"/>
<path class="svg-stroke" d="M325.7,432.5H16.2c-8.9,0-16.2-7.2-16.2-16.2c0-8.9,7.2-16.2,16.2-16.2c0,0,0,0,0,0h309.5
	c8.9,0,16.2,7.3,16.2,16.2C341.8,425.3,334.6,432.5,325.7,432.5z"/>
<path class="svg-stroke" d="M497.4,432.5h-27.8c-8.1,0-14.6-7.3-14.6-16.2c0-8.9,6.5-16.2,14.6-16.2h27.8c8.1,0,14.6,7.3,14.6,16.2
	C512,425.3,505.4,432.5,497.4,432.5z"/>
<path class="svg-stroke" d="M395.3,502.2c-8.9,0.2-16.4-6.8-16.6-15.8s6.8-16.4,15.8-16.6c0.3,0,0.5,0,0.8,0c29.5,0,53.5-23.9,53.5-53.5
	c0-29.5-23.9-53.5-53.5-53.5c-29.5,0-53.5,23.9-53.5,53.5l0,0c0.2,8.9-6.8,16.4-15.8,16.6s-16.4-6.8-16.6-15.8c0-0.3,0-0.5,0-0.8
	c0-47.4,38.4-85.8,85.9-85.8s85.8,38.4,85.8,85.8S442.7,502.2,395.3,502.2L395.3,502.2z"/>
</svg>
