<?xml version="1.0" encoding="utf-8"?>
<!-- Generator: Adobe Illustrator 24.0.1, SVG Export Plug-In . SVG Version: 6.00 Build 0)  -->
<svg version="1.1" id="Layer_1" xmlns="http://www.w3.org/2000/svg" xmlns:xlink="http://www.w3.org/1999/xlink" x="0px" y="0px"
	 viewBox="0 0 409.6 409.6" style="enable-background:new 0 0 409.6 409.6;" xml:space="preserve">
<title>crayons</title>
<polyline class="svg-fill" points="388,313.3 397.8,397.8 313.3,388 "/>
<path class="svg-stroke" d="M397.8,409.6c-0.5,0-0.9,0-1.4-0.1l-84.5-9.8c-6.5-0.7-11.1-6.6-10.4-13.1c0.7-6.5,6.6-11.1,13.1-10.4l0,0
	l69.7,8l-8-69.7c-0.7-6.5,3.9-12.4,10.4-13.1c6.5-0.7,12.4,3.9,13.1,10.4l0,0l9.8,84.5c0.7,6.5-3.9,12.4-10.4,13.1
	C398.7,409.5,398.3,409.6,397.8,409.6L397.8,409.6z"/>
<path class="svg-fill" d="M121.2,46.5L92.7,18c-8.2-8.2-21.4-8.2-29.6,0L18,63.1c-8.2,8.2-8.2,21.4,0,29.5l28.5,28.5L121.2,46.5z"/>
<path class="svg-stroke" d="M46.5,133c-3.1,0-6.2-1.2-8.4-3.5L9.6,101.1c-12.8-12.8-12.8-33.5,0-46.3L54.8,9.6c12.8-12.8,33.5-12.8,46.3,0
	l28.5,28.5c4.6,4.6,4.6,12.1,0,16.7l-74.7,74.7C52.6,131.8,49.6,133,46.5,133L46.5,133z M77.9,23.7c-2.4,0-4.7,1-6.4,2.7L26.3,71.5
	c-3.5,3.5-3.5,9.3,0,12.8c0,0,0,0,0,0l20.1,20.1l58-58L84.3,26.3C82.6,24.6,80.3,23.7,77.9,23.7z"/>
<path class="svg-stroke" d="M11.8,409.6c-6.5,0-11.8-5.3-11.8-11.8c0-0.5,0-0.9,0.1-1.3l9.8-84.5c0.8-6.5,6.6-11.1,13.1-10.4
	s11.1,6.6,10.4,13.1l0,0l-8,69.7l69.7-8c6.5-0.7,12.4,3.9,13.1,10.4c0.7,6.5-3.9,12.4-10.4,13.1l-84.5,9.8
	C12.8,409.7,12.3,409.7,11.8,409.6L11.8,409.6z"/>
<path class="svg-fill" d="M290.3,44.6L22.9,311.9c7.4,3,14.1,7.5,19.7,13.2c8.4,8.4,13.6,18,15.2,26.6c8.5,1.6,18.2,6.8,26.6,15.2
	c5.7,5.6,10.2,12.3,13.2,19.7l265.5-265.5"/>
<path class="svg-stroke" d="M97.7,398.5c-0.8,0-1.6-0.1-2.4-0.2c-3.9-0.8-7.1-3.6-8.6-7.3c-2.4-5.9-6-11.2-10.6-15.6
	c-6.3-6.3-13.9-10.7-20.4-11.9c-4.8-0.9-8.6-4.7-9.5-9.5c-1.2-6.5-5.7-14.1-11.9-20.4c-4.4-4.5-9.7-8.1-15.6-10.6
	c-6.1-2.3-9.1-9.2-6.8-15.3c0.6-1.5,1.5-3,2.7-4.1L281.9,36.2c4.7-4.5,12.2-4.3,16.7,0.4c4.4,4.6,4.4,11.8,0,16.4L42.3,309.3
	c3.1,2.3,6,4.8,8.7,7.5c7.3,7.1,12.9,15.8,16.5,25.3c9.6,3.5,18.2,9.2,25.3,16.5c2.7,2.7,5.2,5.6,7.5,8.7l254.5-254.5
	c4.5-4.7,12-4.9,16.7-0.4c4.7,4.5,4.9,12,0.4,16.7c-0.1,0.1-0.2,0.3-0.4,0.4L106,395.1C103.8,397.3,100.8,398.5,97.7,398.5
	L97.7,398.5z"/>
<path class="svg-stroke" d="M363.1,133c-3.1,0-6.2-1.2-8.4-3.5L280,54.8c-4.6-4.6-4.6-12.1,0-16.7c0,0,0,0,0,0l28.5-28.5
	c12.8-12.8,33.5-12.8,46.3,0L400,54.8c12.8,12.8,12.8,33.5,0,46.3l-28.5,28.5C369.3,131.8,366.3,133,363.1,133L363.1,133z
	 M305.1,46.4l58,58l20.1-20.1c3.5-3.5,3.5-9.3,0-12.8c0,0,0,0,0,0l-45.2-45.2c-3.5-3.5-9.3-3.5-12.8,0c0,0,0,0,0,0L305.1,46.4z"/>
<path class="svg-stroke" d="M171.3,108.4c-3.1,0-6.1-1.2-8.4-3.5l-13.5-13.5c-4.6-4.6-4.6-12.1,0-16.8c4.6-4.6,12.1-4.6,16.8,0l13.5,13.5
	c4.6,4.6,4.6,12.1,0,16.7C177.5,107.2,174.5,108.4,171.3,108.4L171.3,108.4z"/>
<path class="svg-stroke" d="M96.6,183.2c-3.1,0-6.2-1.3-8.4-3.5l-52-52c-4.6-4.6-4.6-12.1,0-16.8s12.1-4.6,16.8,0l0,0l52,52
	c4.6,4.6,4.6,12.1,0,16.7C102.8,181.9,99.8,183.1,96.6,183.2L96.6,183.2z"/>
<path class="svg-stroke" d="M312,398.5c-3.1,0-6.1-1.2-8.4-3.5l-73.7-73.7c-4.4-4.8-4.1-12.3,0.7-16.7c4.5-4.2,11.5-4.1,16,0l62.7,62.7
	c2.3-3.1,4.8-6,7.5-8.7c7.1-7.3,15.8-12.9,25.3-16.5c3.5-9.6,9.2-18.2,16.5-25.3c2.7-2.7,5.6-5.2,8.7-7.5l-62.7-62.7
	c-4.6-4.6-4.6-12.1,0-16.7c4.6-4.6,12.1-4.6,16.7,0l73.7,73.7c4.6,4.6,4.6,12.1,0,16.7c-1.2,1.1-2.5,2-4,2.6
	c-5.9,2.4-11.2,6-15.6,10.6c-6.3,6.3-10.7,13.9-11.9,20.4c-0.9,4.8-4.7,8.6-9.5,9.5c-6.5,1.2-14.1,5.6-20.4,11.9
	c-4.6,4.4-8.2,9.7-10.6,15.6C321.3,395.5,316.9,398.5,312,398.5z"/>
</svg>
