<?xml version="1.0" encoding="utf-8"?>
<!-- Generator: Adobe Illustrator 24.0.1, SVG Export Plug-In . SVG Version: 6.00 Build 0)  -->
<svg version="1.1" id="Layer_1" xmlns="http://www.w3.org/2000/svg" xmlns:xlink="http://www.w3.org/1999/xlink" x="0px" y="0px"
	 viewBox="0 0 409.6 409.6" style="enable-background:new 0 0 409.6 409.6;" xml:space="preserve">
<title>crop</title>
<path class="svg-stroke" d="M371,365.5H77.2c-18.3,0-33-14.8-33.1-33.1V38.6C43.7,17.3,60.7-0.3,82-0.6s38.9,16.6,39.2,38
	c0,0.4,0,0.8,0,1.2v38.7c0,6.1-4.9,11-11,11s-11-4.9-11-11V38.6c0.2-9.1-7-16.7-16.1-16.9c-9.1-0.2-16.7,7-16.9,16.1
	c0,0.3,0,0.5,0,0.8v293.9c0,6.1,4.9,11,11,11l0,0H371c9.1-0.2,16.4-7.8,16.1-16.9c-0.2-8.8-7.3-15.9-16.1-16.1h-47.7
	c-6.1,0-11-4.9-11-11s4.9-11,11-11H371c21.3-0.3,38.9,16.6,39.2,38s-16.6,38.9-38,39.2C371.8,365.5,371.4,365.5,371,365.5L371,365.5
	z"/>
<path class="svg-stroke" d="M237.9,310.4H110.2c-6.1,0-11-4.9-11-11V172.5c0-6.1,4.9-11,11-11s11,4.9,11,11v115.9h116.6c6.1,0,11,4.9,11,11
	S243.9,310.4,237.9,310.4L237.9,310.4z"/>
<path class="svg-fill" d="M11,82.7c0-15.2,12.3-27.6,27.6-27.6c0,0,0,0,0,0h293.9c12.2,0,22,9.8,22,21.9c0,0,0,0,0,0.1V371
	c0.3,15.2-11.8,27.8-27,28.1s-27.8-11.8-28.1-27c0-0.4,0-0.7,0-1.1V110.2H38.6C23.4,110.2,11,97.9,11,82.7C11,82.7,11,82.7,11,82.7z
	"/>
<path class="svg-stroke" d="M326.9,409.6c-21.3,0-38.6-17.3-38.6-38.6V121.2H38.6c-21.3,0.3-38.9-16.6-39.2-38s16.6-38.9,38-39.2
	c0.4,0,0.8,0,1.2,0h293.9c18.3,0,33,14.8,33.1,33.1V371C365.5,392.3,348.2,409.6,326.9,409.6L326.9,409.6z M38.6,66.1
	c-9.1-0.2-16.7,7-16.9,16.1c-0.2,9.1,7,16.7,16.1,16.9c0.3,0,0.5,0,0.8,0h260.8c6.1,0,11,4.9,11,11l0,0V371
	c0,9.1,7.4,16.5,16.5,16.5c9.1,0,16.5-7.4,16.5-16.5c0,0,0,0,0,0V77.2c0-6.1-4.9-11-11-11L38.6,66.1z"/>
</svg>
