<?xml version="1.0" encoding="utf-8"?>
<!-- Generator: Adobe Illustrator 24.0.1, SVG Export Plug-In . SVG Version: 6.00 Build 0)  -->
<svg version="1.1" id="Layer_1" xmlns="http://www.w3.org/2000/svg" xmlns:xlink="http://www.w3.org/1999/xlink" x="0px" y="0px"
	 viewBox="0 0 409.6 332.7" style="enable-background:new 0 0 409.6 332.7;" xml:space="preserve">
<title>design</title>
<path class="svg-stroke" d="M350.9,54.2H58.7c-6.2,0.2-11.4-4.7-11.5-10.9S51.8,31.9,58,31.7c0.2,0,0.4,0,0.7,0h292.2
	c6.2-0.2,11.4,4.7,11.5,10.9s-4.7,11.4-10.9,11.5C351.3,54.2,351.1,54.2,350.9,54.2z"/>
<path class="svg-stroke" d="M239.8,328.9c-6.2,0-11.2-5-11.2-11.2c0-1.2,0.2-2.4,0.6-3.6c2.8-8.3,16.2-47.4,25.6-63.6
	c-9.5-10.1-37-40.3-49.9-66.1c-12.1,23.4-39.5,54.4-50.1,66c10.1,16.5,22.7,54.9,25.4,63.6c0.4,1.2,0.6,2.4,0.6,3.7
	c0,6.2-5,11.2-11.2,11.2c-4.9,0-9.3-3.2-10.7-7.9c0,0,0-0.1,0-0.1c-6.6-20.7-18.4-52.9-24.3-60.3c-4.8-6.1-3.4-14.5-0.8-19.8
	c0.5-0.9,1.1-1.8,1.8-2.6c20.6-22.3,50.7-59.4,52.7-72.4c0.6-3.7,3.3-10.1,14.8-10.7c12.5-0.7,16.6,4.8,17.8,9.4
	c5.7,21.5,40,60.3,52.7,73.4c0.8,0.8,1.5,1.8,2,2.8c2.6,5.1,4,13.3-0.5,19.5c-5.7,7.7-18.2,41.6-24.8,61.1
	C249,325.9,244.7,329,239.8,328.9L239.8,328.9z"/>
<path class="svg-stroke" d="M204.8,254.9c-6.2,0-11.2-5-11.2-11.2c0,0,0,0,0,0V167c0.3-6.2,5.6-10.9,11.8-10.6c5.7,0.3,10.3,4.9,10.6,10.6
	v76.7C216,249.9,211,254.9,204.8,254.9L204.8,254.9L204.8,254.9z"/>
<path class="svg-stroke" d="M366.6,244.6c-6.2,0-11.2-5-11.2-11.2v-28.6c0-83.1-67.6-150.6-150.6-150.6S54.2,121.7,54.2,204.8v28.6
	c-0.2,6.2-5.4,11.1-11.5,10.9c-5.9-0.2-10.7-4.9-10.9-10.9v-28.6c-0.1-95.5,77.2-172.9,172.7-173c46,0,90.1,18.2,122.6,50.8
	c32.6,32.3,50.9,76.3,50.9,122.2v28.6C377.9,239.6,372.8,244.6,366.6,244.6z"/>
<path class="svg-fill" d="M220,74.7h-30.4c-9.1,0-16.5-7.4-16.5-16.5c0,0,0,0,0,0V27.7c0-9.1,7.4-16.5,16.5-16.5H220
	c9.1,0,16.5,7.4,16.5,16.5v30.5C236.5,67.3,229.1,74.7,220,74.7z"/>
<path class="svg-stroke" d="M220,85.9h-30.4c-15.3,0-27.7-12.4-27.7-27.7V27.7c0-15.3,12.4-27.7,27.7-27.7H220c15.3,0,27.7,12.4,27.7,27.7
	v30.5C247.7,73.5,235.3,85.9,220,85.9z M189.6,22.4c-2.9,0-5.3,2.4-5.3,5.3v30.5c0,2.9,2.4,5.3,5.3,5.3H220c2.9,0,5.3-2.4,5.3-5.3
	V27.7c0-2.9-2.4-5.3-5.3-5.3H189.6z"/>
<path class="svg-fill" d="M381.9,275.4h-30.5c-9.1,0-16.5-7.4-16.5-16.5v-30.5c0-9.1,7.4-16.5,16.5-16.5l0,0h30.5
	c9.1,0,16.5,7.4,16.5,16.5l0,0v30.5C398.4,268,391,275.4,381.9,275.4C381.9,275.4,381.9,275.4,381.9,275.4z"/>
<path class="svg-stroke" d="M381.9,286.6h-30.5c-15.3,0-27.7-12.4-27.7-27.7v-30.5c0-15.3,12.4-27.7,27.7-27.7h30.5
	c15.3,0,27.7,12.4,27.7,27.7v30.5C409.6,274.2,397.2,286.6,381.9,286.6z M351.4,223.2c-2.9,0-5.3,2.4-5.3,5.3l0,0v30.5
	c0,2.9,2.4,5.3,5.3,5.3h30.5c2.9,0,5.3-2.4,5.3-5.3v-30.5c0-2.9-2.4-5.3-5.3-5.3l0,0L351.4,223.2z"/>
<path class="svg-fill" d="M58.2,275.4H27.7c-9.1,0-16.5-7.4-16.5-16.5v-30.5c0-9.1,7.4-16.5,16.5-16.5h30.5c9.1,0,16.5,7.4,16.5,16.5V259
	C74.7,268.1,67.3,275.5,58.2,275.4L58.2,275.4z"/>
<path class="svg-stroke" d="M58.2,286.6H27.7C12.4,286.6,0,274.2,0,258.9v-30.5c0-15.3,12.4-27.7,27.7-27.7h30.5
	c15.3,0,27.7,12.4,27.7,27.7v30.5C85.9,274.2,73.5,286.6,58.2,286.6z M27.7,223.2c-2.9,0-5.3,2.4-5.3,5.3v30.5
	c0,2.9,2.4,5.3,5.3,5.3h30.5c2.9,0,5.3-2.4,5.3-5.3v-30.5c0-2.9-2.4-5.3-5.3-5.3L27.7,223.2z"/>
<path class="svg-stroke" d="M261.8,332.7h-114c-6.2,0-11.2-5-11.2-11.2c0-6.2,5-11.2,11.2-11.2h114c6.2,0,11.2,5,11.2,11.2
	C273,327.7,268,332.7,261.8,332.7z"/>
</svg>
