<?xml version="1.0" encoding="utf-8"?>
<!-- Generator: Adobe Illustrator 24.0.1, SVG Export Plug-In . SVG Version: 6.00 Build 0)  -->
<svg version="1.1" id="Layer_1" xmlns="http://www.w3.org/2000/svg" xmlns:xlink="http://www.w3.org/1999/xlink" x="0px" y="0px"
	 viewBox="0 0 512 395.7" style="enable-background:new 0 0 512 395.7;" xml:space="preserve">
<title>email</title>
<path class="svg-stroke" d="M483.6,395.7H53.3C23.9,395.7,0,371.9,0,342.4V53.3C0,23.9,23.9,0,53.3,0h405.4C488.1,0,512,23.9,512,53.3
	v222.8c0,7.9-6.4,14.2-14.2,14.2s-14.2-6.4-14.2-14.2V53.3c0-13.7-11.1-24.8-24.8-24.8H53.3c-13.7,0-24.8,11.1-24.8,24.8v289.2
	c0,13.7,11.1,24.8,24.8,24.8h430.3c7.9,0.2,14.1,6.7,13.8,14.6C497.2,389.4,491.1,395.5,483.6,395.7z"/>
<path class="svg-fill" d="M497.8,53.3L497.8,53.3L256,236.4L14.2,53.3l0,0c0-21.6,17.5-39.1,39.1-39.1h405.4
	C480.3,14.2,497.8,31.7,497.8,53.3z"/>
<path class="svg-stroke" d="M256,250.6c-3.1,0-6.1-1-8.6-2.9L5.6,64.6C2.1,61.9,0,57.7,0,53.3C0,23.9,23.9,0,53.3,0h405.4
	C488.1,0,512,23.9,512,53.3c0,4.4-2.1,8.6-5.6,11.3L264.6,247.7C262.1,249.6,259.1,250.6,256,250.6z M29.3,46.8L256,218.6
	L482.7,46.8c-2.9-10.9-12.8-18.4-24-18.4H53.3C42,28.5,32.2,36,29.3,46.8z"/>
<path class="svg-stroke" d="M483.5,395.5c-3.1,0-6.1-1-8.6-2.9l-99.6-75.4c-6.3-4.7-7.5-13.7-2.7-19.9c4.7-6.3,13.7-7.5,19.9-2.7l99.6,75.4
	c6.3,4.7,7.5,13.7,2.8,19.9C492.2,393.5,488,395.6,483.5,395.5L483.5,395.5z"/>
<path class="svg-stroke" d="M34.5,390.9c-7.9,0-14.2-6.4-14.2-14.2c0-4.5,2.1-8.7,5.6-11.4l93.5-70.8c6.3-4.7,15.2-3.5,19.9,2.7
	c4.7,6.3,3.5,15.2-2.7,19.9l0,0L43.1,388C40.6,389.9,37.6,390.9,34.5,390.9z"/>
</svg>
