<?xml version="1.0" encoding="utf-8"?>
<!-- Generator: Adobe Illustrator 24.0.1, SVG Export Plug-In . SVG Version: 6.00 Build 0)  -->
<svg version="1.1" id="Layer_1" xmlns="http://www.w3.org/2000/svg" xmlns:xlink="http://www.w3.org/1999/xlink" x="0px" y="0px"
	 viewBox="0 0 458.7 512" style="enable-background:new 0 0 458.7 512;" xml:space="preserve">
<title>email-2</title>
<polygon class="svg-fill" points="229.3,14.7 14.7,192.2 14.7,197.5 14.7,209 14.7,214.3 229.3,391.8 444,214.3 444,209 444,197.5 
	444,192.2 "/>
<path class="svg-stroke" d="M453.4,225.6c3.4-2.8,5.3-7,5.3-11.3v-22.1c0-4.4-2-8.5-5.3-11.3L238.7,3.4c-5.4-4.5-13.3-4.5-18.8,0L5.3,180.8
	c-3.4,2.8-5.3,7-5.3,11.3v305.1c0,8.1,6.6,14.7,14.7,14.7H444c8.1,0,14.7-6.6,14.7-14.7V315.9c-0.2-8.1-7-14.5-15.1-14.3
	c-7.8,0.2-14.1,6.5-14.3,14.3v146.2l-131-108.3L453.4,225.6z M229.4,33.8l199.9,165.3v8.3L229.3,372.7L40,216.1h296.8
	c8.1-0.2,14.5-7,14.3-15.1c-0.2-7.8-6.5-14.1-14.3-14.3H44.4L229.4,33.8z M29.4,245.6l131,108.3l-131,108.3L29.4,245.6z
	 M407.8,482.6H50.9l132.6-109.6l36.5,30.2c5.4,4.5,13.3,4.5,18.8,0l36.5-30.2L407.8,482.6z"/>
</svg>
