<?xml version="1.0" encoding="utf-8"?>
<!-- Generator: Adobe Illustrator 24.0.1, SVG Export Plug-In . SVG Version: 6.00 Build 0)  -->
<svg version="1.1" id="Layer_1" xmlns="http://www.w3.org/2000/svg" xmlns:xlink="http://www.w3.org/1999/xlink" x="0px" y="0px"
	 viewBox="0 0 507.5 512" style="enable-background:new 0 0 507.5 512;" xml:space="preserve">
<title>fullscreen</title>
<rect x="136.1" y="140.7" class="svg-fill" width="355.7" height="355.7"/>
<path class="svg-stroke" d="M491.8,125H136.1c-8.6,0-15.7,7-15.7,15.7l0,0v215H31.3v-59.3c0-8.6-7-15.7-15.7-15.7c-8.6,0-15.7,7-15.7,15.7
	v75C0,380,7,387,15.7,387h104.8v109.3c0,8.6,7,15.7,15.7,15.7h355.7c8.6,0,15.7-7,15.7-15.7l0,0V140.7
	C507.5,132,500.4,125,491.8,125L491.8,125z M476.1,480.7H151.8V156.3h324.4V480.7z"/>
<path class="svg-stroke" d="M15.7,194c8.6,0,15.7-7,15.7-15.7l0,0v-147h324.4v37.1c0,8.6,7,15.7,15.7,15.7S387,77,387,68.4V15.7
	C387,7,380,0,371.3,0c0,0,0,0,0,0H15.7C7,0,0,7,0,15.7v162.7C0,187,7,194,15.7,194z"/>
<path class="svg-stroke" d="M315.5,332.6c4.2,0,8.1-1.6,11.1-4.6l64.8-64.8v36.4c0,8.6,7,15.7,15.7,15.7s15.7-7,15.7-15.7v-74.2
	c0-8.6-7-15.7-15.7-15.7l0,0h-74.2c-8.6-0.2-15.8,6.6-16.1,15.3c-0.2,8.6,6.6,15.8,15.3,16.1c0.3,0,0.5,0,0.8,0h36.4l-64.8,64.8
	c-6.1,6.1-6.1,16,0,22.1C307.4,330.9,311.4,332.6,315.5,332.6L315.5,332.6z"/>
<path class="svg-stroke" d="M220.8,427.3H295c8.6-0.2,15.5-7.4,15.3-16.1c-0.2-8.3-6.9-15-15.3-15.3h-36.4l21.4-21.4
	c6-6.2,5.9-16.1-0.3-22.1c-6.1-5.9-15.8-5.9-21.9,0l-21.4,21.4v-36.4c0.2-8.6-6.6-15.8-15.3-16.1c-8.6-0.2-15.8,6.6-16.1,15.3
	c0,0.3,0,0.5,0,0.8v74.2C205.1,420.3,212.1,427.3,220.8,427.3C220.8,427.3,220.8,427.3,220.8,427.3z"/>
</svg>
