<?xml version="1.0" encoding="utf-8"?>
<!-- Generator: Adobe Illustrator 24.0.1, SVG Export Plug-In . SVG Version: 6.00 Build 0)  -->
<svg version="1.1" id="Layer_1" xmlns="http://www.w3.org/2000/svg" xmlns:xlink="http://www.w3.org/1999/xlink" x="0px" y="0px"
	 viewBox="0 0 512 482.7" style="enable-background:new 0 0 512 482.7;" xml:space="preserve">
<title>geolocalization</title>
<path class="svg-fill" d="M394.4,73.2c-40.4,12.1-94.1,19.4-153,19.4s-112.6-7.3-153-19.4C175.1-5.7,307.7-5.7,394.4,73.2z"/>
<path class="svg-fill" d="M394.4,409.5c-86.7,78.9-219.3,78.9-306,0c40.4-12,94.1-19.4,153-19.4S354,397.4,394.4,409.5z"/>
<path class="svg-fill" d="M170.6,170.6c-4.9,47-4.9,94.5,0,141.5c23.5,2.5,47.1,3.7,70.7,3.7c23.6,0,47.2-1.2,70.8-3.7
	c2.5-23.5,3.7-47.1,3.7-70.8c0-23.6-1.2-47.2-3.7-70.7C265.1,165.7,217.7,165.7,170.6,170.6L170.6,170.6z"/>
<path class="svg-stroke" d="M469.1,161.4C435.2,64.7,343.9,0.1,241.4,0h-0.1C108,0,0,108.1,0,241.3v0.2c0,133.2,108,241.2,241.2,241.2
	c0,0,0,0,0.1,0h0.2c60.1,0,118-22.4,162.3-62.9c0.4-0.4,0.8-0.8,1.2-1.2l0.3-0.4c0.3-0.3,0.5-0.7,0.8-1.1c0.1-0.1,0.1-0.2,0.2-0.3
	c0.6-0.9,1.1-1.9,1.4-3c0-0.1,0.1-0.3,0.1-0.4c0.1-0.4,0.2-0.8,0.3-1.3c0-0.1,0.1-0.3,0.1-0.4c0.1-0.5,0.2-1.1,0.2-1.6
	c0-0.1,0-0.1,0-0.2c0-0.5,0-1,0-1.5c0-0.1,0-0.3,0-0.5c-0.1-0.5-0.1-0.9-0.2-1.4c0-0.1,0-0.1,0-0.2c0,0,0,0,0-0.1
	c-0.1-0.6-0.3-1.1-0.5-1.7c0-0.1-0.1-0.2-0.1-0.2c-0.2-0.4-0.4-0.9-0.6-1.3l-0.2-0.4c-0.2-0.4-0.5-0.8-0.7-1.2l-0.2-0.3
	c-0.3-0.4-0.6-0.8-1-1.2l-0.1-0.1c-0.1-0.1-0.2-0.2-0.3-0.3c-0.3-0.3-0.6-0.6-1-0.9l-0.4-0.3c-0.4-0.3-0.7-0.5-1.1-0.8l-0.3-0.2
	c-0.5-0.3-1-0.6-1.5-0.8h-0.1c-0.5-0.2-1-0.4-1.5-0.6l-0.2-0.1c-24.4-7.3-52.9-12.7-83.6-16.1c4.4-18.2,7.7-36.7,10-55.2
	c21.6-2.6,43.1-6.7,64.1-12.2c10.6,14.4,22.4,27.8,35.4,40c5.7,5.2,14.6,4.9,19.8-0.8c5.2-5.7,4.9-14.6-0.8-19.8l0,0
	c-16.6-15.3-59.7-63.2-59.7-100.8c0.4-27.7,23.2-49.9,50.9-49.5c27.2,0.4,49.1,22.3,49.5,49.5c0,16.9-8.7,37.9-25,61
	c-4.5,6.3-3,15.1,3.3,19.6c6.3,4.5,15.1,3,19.6-3.3c19.9-28.3,30.1-54.3,30.1-77.3C512,201.7,495.4,174.7,469.1,161.4z M301.6,255.8
	c0,0.2,0,0.3,0,0.5c-0.3,14.6-1.1,28.9-2.3,43l-1.7,0.1c-3.5,0.3-7,0.6-10.6,0.8l-2.9,0.2c-4.2,0.3-8.5,0.5-12.8,0.7
	c-0.8,0-1.7,0.1-2.5,0.1c-3.6,0.1-7.1,0.3-10.7,0.4l-3.6,0.1c-4.4,0.1-8.7,0.1-13.1,0.1c-4.8,0-9.6,0-14.4-0.1h-0.5
	c-14.6-0.3-28.9-1.1-43-2.3c-1.2-14-2-28.4-2.3-43c0-0.2,0-0.3,0-0.5c-0.1-4.8-0.2-9.6-0.2-14.4c0-4.8,0-9.6,0.2-14.4
	c0-0.2,0-0.3,0-0.5c0.3-14.6,1.1-28.9,2.3-43c18.8-1.7,38.2-2.5,57.9-2.5c4.3,0,8.6,0.1,12.9,0.1l3.6,0.1c3.9,0.1,7.7,0.2,11.6,0.4
	c1.3,0,2.5,0.1,3.8,0.2c3,0.1,6,0.3,9,0.5c1.8,0.1,3.5,0.2,5.2,0.3c2.9,0.2,5.8,0.4,8.8,0.7l3,0.2c1.2,14,2,28.4,2.3,43
	c0,0.2,0,0.3,0,0.5c0.1,4.8,0.1,9.6,0.1,14.4S301.7,251,301.6,255.8z M278.1,77.6c-12,0.7-24.3,1-36.8,1s-24.7-0.3-36.8-1
	c13.1-36.4,27.8-49.5,36.7-49.5l0,0C250.3,28.1,265,41.2,278.1,77.6z M119.6,66.2c2-1.4,3.9-2.7,5.9-4l0.8-0.5
	c1.9-1.2,3.8-2.4,5.8-3.6l0.9-0.6c2-1.2,4.1-2.4,6.2-3.5l1.3-0.7c2.1-1.1,4.2-2.2,6.3-3.3l0.7-0.3c2-1,4-1.9,6.1-2.9l1.1-0.5
	c2.1-1,4.3-1.9,6.5-2.8l1.4-0.5c2.2-0.9,4.4-1.7,6.7-2.5l0.6-0.2c2.1-0.8,4.3-1.5,6.5-2.2l1.2-0.4c2.2-0.7,4.5-1.4,6.8-2l1.4-0.4
	c2.3-0.6,4.6-1.2,7-1.8l0.4-0.1l1.4-0.3c-6.5,10.6-12.9,24.3-18.7,42.1c-19.1-1.9-38-4.8-56.7-8.8L119.6,66.2z M296.1,155.1
	c-8-0.6-16.1-1.1-24.2-1.5h-0.5c-2.9-0.1-5.8-0.2-8.8-0.3l-1.4-0.1c-2.7-0.1-5.4-0.1-8.1-0.2h-1.9c-3.3-0.1-6.5-0.1-9.8-0.1
	c-18.5,0-36.9,0.7-54.7,2.1c2.3-16.8,5.5-33.4,9.6-49.9c14.8,1,29.9,1.5,45.2,1.5s30.4-0.5,45.2-1.5
	C290.6,121.7,293.9,138.3,296.1,155.1L296.1,155.1z M307,75.4c-5.9-17.8-12.2-31.5-18.7-42.1l1.4,0.3l0.5,0.1c2.3,0.5,4.7,1.1,7,1.8
	l1.4,0.4c2.3,0.6,4.5,1.3,6.8,2l1.2,0.4c2.2,0.7,4.3,1.4,6.5,2.2l0.6,0.2c2.2,0.8,4.5,1.7,6.7,2.5l1.4,0.5c2.2,0.9,4.3,1.8,6.5,2.8
	l1,0.5c2.1,0.9,4.1,1.9,6.1,2.9l0.7,0.3c2.1,1,4.2,2.2,6.4,3.3l1.3,0.7c2.1,1.1,4.1,2.3,6.2,3.5l0.9,0.5c1.9,1.2,3.9,2.4,5.8,3.6
	l0.8,0.5c2,1.3,4,2.6,5.9,4l0.6,0.4C345,70.6,326,73.5,307,75.4z M92.2,88.9c22.6,6.2,48.3,10.8,75.7,13.8
	c-7.9,32.7-12.9,70.7-14.5,111v0.3c-0.1,2.8-0.2,5.7-0.3,8.6c0,0.2,0,0.4,0,0.6c-0.1,2.8-0.1,5.5-0.2,8.3c0,0.6,0,1.1,0,1.6
	c0,2.8,0,5.5-0.1,8.3c0,2.8,0,5.5,0.1,8.3c0,0.6,0,1.1,0,1.6c0,2.8,0.1,5.5,0.2,8.3c0,0.2,0,0.4,0,0.6c0.1,2.9,0.2,5.7,0.3,8.6v0.2
	c0.4,9.2,0.9,18.2,1.6,27.1c-25.9-3.6-49.7-8.8-70.1-15.5C43,267,28.1,251,28.1,241.4l0,0C28.1,184,51.2,129.1,92.2,88.9z
	 M33.3,288.3c10.8,6.6,24.8,13,42.9,19c23.7,7.7,51.5,13.7,81.8,17.4c2.3,18.6,5.6,37,10,55.2c-27.4,3-53.1,7.7-75.7,13.8
	C62.9,365,42.4,328.4,33.3,288.3z M357.2,420.5l-0.8,0.5c-1.9,1.2-3.8,2.4-5.7,3.5l-1,0.6c-2,1.2-4.1,2.4-6.1,3.5l-1.3,0.7
	c-2.1,1.1-4.2,2.2-6.3,3.3l-0.8,0.4c-2,1-4,1.9-6,2.9l-1.1,0.5c-2.1,1-4.3,1.9-6.5,2.7l-1.4,0.5c-2.2,0.9-4.4,1.7-6.7,2.5l-0.6,0.2
	c-2.1,0.8-4.3,1.5-6.4,2.2l-1.2,0.4c-2.2,0.7-4.5,1.4-6.7,2l-1.4,0.4c-2.3,0.6-4.6,1.2-7,1.8l-0.5,0.1l-1.4,0.3
	c6.5-10.6,12.9-24.4,18.7-42.1c19,1.9,38,4.8,56.7,8.8l-0.6,0.4C361.1,417.9,359.2,419.2,357.2,420.5L357.2,420.5z M241.4,454.7
	L241.4,454.7c-9.1,0-23.7-13.2-36.8-49.5c12.1-0.7,24.3-1,36.8-1s24.7,0.4,36.8,1C265,441.5,250.4,454.6,241.4,454.7z M194.4,449.5
	l-1.4-0.3l-0.5-0.1c-2.3-0.5-4.6-1.1-7-1.8c-0.5-0.1-1-0.2-1.4-0.4c-2.3-0.6-4.5-1.3-6.7-2l-1.2-0.4c-2.2-0.7-4.3-1.4-6.4-2.2
	l-0.6-0.2c-2.2-0.8-4.5-1.7-6.7-2.5l-1.4-0.5c-2.2-0.9-4.3-1.8-6.5-2.7l-1.1-0.5c-2-0.9-4.1-1.9-6.1-2.9l-0.7-0.4
	c-2.1-1.1-4.2-2.1-6.3-3.3l-1.3-0.7c-2.1-1.1-4.1-2.3-6.1-3.5l-0.9-0.6c-1.9-1.1-3.8-2.3-5.7-3.5l-0.8-0.5c-2-1.3-4-2.6-5.9-4
	l-0.6-0.4c18.7-4,37.6-6.9,56.7-8.8C181.6,425.1,187.9,438.9,194.4,449.5L194.4,449.5z M241.3,376.1c-15.3,0-30.4,0.5-45.2,1.5
	c-4.1-16.4-7.3-33.1-9.6-49.9c8.9,0.7,18,1.2,27.1,1.6h0.3c2.8,0.1,5.7,0.2,8.5,0.3h0.6c2.7,0.1,5.5,0.1,8.3,0.2h1.6
	c2.8,0,5.5,0.1,8.3,0.1c3.4,0,6.8,0,10.2-0.1l2.9-0.1c2.4,0,4.9-0.1,7.3-0.2l3.1-0.1c2.4-0.1,4.8-0.2,7.2-0.3l2.8-0.1
	c2.6-0.1,5.2-0.3,7.9-0.4l2.1-0.1c3.7-0.2,7.4-0.5,11.1-0.8c-2.3,16.8-5.5,33.4-9.6,49.9C271.8,376.6,256.6,376.1,241.3,376.1
	L241.3,376.1z M327.6,296.1c0.7-8.9,1.2-17.9,1.6-27.1c0-0.1,0-0.1,0-0.2c0.1-2.9,0.2-5.7,0.3-8.6c0-0.2,0-0.4,0-0.6
	c0.1-2.7,0.1-5.5,0.2-8.3c0-0.6,0-1.1,0-1.6c0-2.8,0.1-5.5,0.1-8.3s0-5.5-0.1-8.3c0-0.5,0-1.1,0-1.6c0-2.8-0.1-5.5-0.2-8.3
	c0-0.2,0-0.4,0-0.6c-0.1-2.9-0.2-5.7-0.3-8.6c0-0.1,0-0.1,0-0.2c-0.3-9.2-0.9-18.2-1.6-27.1c13.1,1.8,25.8,4,37.6,6.7
	c-6.4,11.6-9.8,24.6-9.8,37.8c0,19.2,7.3,38.8,17.2,56.5C358.8,291.1,343.6,293.9,327.6,296.1L327.6,296.1z M385.8,169.4
	c-20.1-5.1-40.5-8.9-61-11.4c-2.3-18.6-5.6-37.1-10-55.3c27.4-3,53.1-7.7,75.7-13.8c18.8,18.4,34.1,40.1,45,64.1c-0.6,0-1.2,0-1.7,0
	C416.4,152.9,399.5,158.7,385.8,169.4L385.8,169.4z"/>
</svg>
