<?xml version="1.0" encoding="utf-8"?>
<!-- Generator: Adobe Illustrator 24.0.1, SVG Export Plug-In . SVG Version: 6.00 Build 0)  -->
<svg version="1.1" id="Layer_1" xmlns="http://www.w3.org/2000/svg" xmlns:xlink="http://www.w3.org/1999/xlink" x="0px" y="0px"
	 viewBox="0 0 409.6 388.9" style="enable-background:new 0 0 409.6 388.9;" xml:space="preserve">
<title>gift</title>
<path class="svg-fill" d="M251.1,258.8l-44.3-22.9c-1.3-0.6-2.7-0.6-4,0l-44.4,22.9c-2.1,1.1-4.7,0.3-5.8-1.9c-0.3-0.6-0.5-1.3-0.5-2
	v-113l105.4,0.2v112.8c0,2.4-1.9,4.3-4.3,4.3C252.4,259.2,251.7,259.1,251.1,258.8L251.1,258.8z"/>
<path class="svg-stroke" d="M253.1,270.7c-2.5,0-5-0.6-7.2-1.8l-41.1-21.2l-41.1,21.2c-2.2,1.2-4.7,1.8-7.2,1.8c-8.7,0-15.8-7.1-15.8-15.8
	c0,0,0,0,0,0v-113c0-6.3,5.1-11.5,11.5-11.5l0,0l105.3,0.2c6.3,0,11.4,5.1,11.4,11.5v112.8C268.9,263.6,261.8,270.7,253.1,270.7
	L253.1,270.7z M204.8,223.9c2.5,0,5,0.6,7.2,1.8l34,17.6v-89.6l-82.4-0.2v89.8l34-17.6C199.9,224.5,202.3,223.9,204.8,223.9
	L204.8,223.9z"/>
<path class="svg-stroke" d="M319.5,388.9H90.1c-29.6,0-53.6-24-53.6-53.6V142.1c0-6.3,5.1-11.5,11.5-11.5h0h313.8c6.3,0,11.5,5.1,11.5,11.5
	c0,0,0,0,0,0v25.5c0.2,6.3-4.8,11.6-11.1,11.8c-6.3,0.2-11.6-4.8-11.8-11.1c0-0.2,0-0.5,0-0.7v-14H59.3v181.7
	c0,17,13.8,30.7,30.7,30.7h229.5c17,0,30.7-13.8,30.7-30.7V228.8c0-6.3,5.1-11.5,11.5-11.5c6.3,0,11.5,5.1,11.5,11.5l0,0v106.4
	C373.1,364.9,349.1,388.8,319.5,388.9L319.5,388.9z"/>
<path class="svg-fill" d="M356.5,142.1H53.2c-23,0-41.7-18.7-41.7-41.7c0-23,18.7-41.7,41.7-41.7h303.3c23,0,41.7,18.7,41.7,41.7
	C398.1,123.4,379.5,142.1,356.5,142.1L356.5,142.1z"/>
<path class="svg-stroke" d="M356.5,153.5H53.2C23.8,153.5,0,129.7,0,100.4s23.8-53.2,53.2-53.2h303.3c29.4,0,53.1,23.8,53.1,53.2
	S385.8,153.5,356.5,153.5L356.5,153.5z M53.2,70.1c-16.7-0.3-30.5,13-30.8,29.7s13,30.5,29.7,30.8c0.4,0,0.7,0,1.1,0h303.3
	c16.7,0.3,30.5-13,30.8-29.7c0.3-16.7-13-30.5-29.7-30.8c-0.4,0-0.7,0-1.1,0H53.2z"/>
<path class="svg-fill" d="M203.2,58.7c-5.8-31.3-35.8-52-67.1-46.3c-23.5,4.3-42,22.7-46.3,46.3H203.2z"/>
<path class="svg-stroke" d="M203.2,70.1H89.8c-6.3,0-11.5-5.1-11.4-11.5c0-0.7,0.1-1.3,0.2-2C85.4,19,121.4-5.9,158.9,1
	c28.3,5.2,50.4,27.3,55.6,55.6c1.1,6.2-3,12.2-9.2,13.3C204.6,70,203.9,70.1,203.2,70.1z M105.8,47.2h81.4
	c-12.1-22.5-40.2-30.9-62.6-18.8C116.6,32.7,110.1,39.3,105.8,47.2z"/>
<path class="svg-fill" d="M319.8,58.7c-5.8-31.3-35.8-52-67.1-46.3c-23.5,4.3-42,22.7-46.3,46.3H319.8z"/>
<path class="svg-stroke" d="M319.8,70.1H206.4c-6.3,0-11.4-5.1-11.4-11.4c0-0.7,0.1-1.4,0.2-2C201.9,19,237.9-5.9,275.5,1
	c28.3,5.2,50.4,27.3,55.6,55.6c1.1,6.2-3,12.2-9.3,13.3C321.2,70,320.5,70.1,319.8,70.1z M222.4,47.2h81.4
	c-12.1-22.5-40.2-30.9-62.6-18.8C233.2,32.7,226.7,39.3,222.4,47.2z"/>
</svg>
