<?xml version="1.0" encoding="utf-8"?>
<!-- Generator: Adobe Illustrator 24.0.1, SVG Export Plug-In . SVG Version: 6.00 Build 0)  -->
<svg version="1.1" id="Layer_1" xmlns="http://www.w3.org/2000/svg" xmlns:xlink="http://www.w3.org/1999/xlink" x="0px" y="0px"
	 viewBox="0 0 512 390.3" style="enable-background:new 0 0 512 390.3;" xml:space="preserve">
<title>handshake</title>
<path class="svg-stroke" d="M508.4,133.5L378.5,3.7c-4.9-4.9-12.8-4.9-17.6,0c0,0,0,0,0,0l-73.1,73.1l-14.4-14.4c-4.9-4.9-12.8-4.9-17.6,0
	l-22.9,22.9L151.1,3.7c-4.9-4.9-12.8-4.9-17.6,0L3.7,133.5c-4.9,4.9-4.9,12.8,0,17.6l81.9,81.9c4.9,4.9,12.8,4.9,17.6,0l52.1-52.1
	l26.5,26.5c0.3,0.3,0.6,0.6,1,0.9c5,4,12.2,3.7,16.7-0.9L256,151l120.7,120.6l-13,13L260.1,181.2c-4.9-4.9-12.8-4.9-17.6,0
	c0,0,0,0,0,0c-0.3,0.3-0.6,0.6-0.9,1c-4,5-3.7,12.2,0.9,16.7l123.8,123.8l-13,13L229.5,211.8c-5-4.7-12.9-4.6-17.6,0.4
	c-4.6,4.8-4.6,12.4,0,17.2L315.3,333l-13,13l-7.7-7.7l0,0l-95.9-95.8c-4.5-4.5-11.7-4.9-16.7-0.9c-0.4,0.3-0.7,0.5-1,0.9
	c-1.2,1.2-2.1,2.6-2.7,4.1c-0.3,0.7-0.5,1.5-0.7,2.3c-0.1,0.4-0.1,0.8-0.2,1.2c-0.4,3.7,1,7.4,3.6,10l43.5,43.5l43.5,43.5l-13,13
	l-115-115c-4.9-4.9-12.8-4.9-17.6,0c-4.9,4.9-4.9,12.8,0,17.6l123.8,123.9c4.9,4.9,12.8,4.9,17.6,0l21.9-21.9l7.7,7.7
	c4.8,4.9,12.7,4.9,17.6,0c0,0,0,0,0,0l21.9-21.9l11.5,11.5c4.9,4.9,12.8,4.9,17.6,0l30.7-30.7c4.9-4.9,4.9-12.8,0-17.6c0,0,0,0,0,0
	l-11.5-11.5l21.9-21.9c4.9-4.9,4.9-12.8,0-17.6L264.8,124.5c-4.9-4.9-12.8-4.9-17.6,0l-56.6,56.6l-9.2-9.2l83.1-83.1l14.4,14.4l0,0
	l3.1,3.2l0.4,0.4l0,0l126.3,126.3c4.9,4.9,12.8,4.9,17.6,0l81.9-81.9C513.2,146.3,513.2,138.4,508.4,133.5L508.4,133.5z"/>
<rect x="39" y="72.9" transform="matrix(0.7071 -0.7071 0.7071 0.7071 -49.018 118.353)" class="svg-fill" width="158.7" height="90.9"/>
<rect x="348.2" y="39" transform="matrix(0.7071 -0.7071 0.7071 0.7071 31.607 313.0201)" class="svg-fill" width="90.9" height="158.7"/>
</svg>
