<?xml version="1.0" encoding="utf-8"?>
<!-- Generator: Adobe Illustrator 24.0.1, SVG Export Plug-In . SVG Version: 6.00 Build 0)  -->
<svg version="1.1" id="Layer_1" xmlns="http://www.w3.org/2000/svg" xmlns:xlink="http://www.w3.org/1999/xlink" x="0px" y="0px"
	 viewBox="0 0 480.2 512" style="enable-background:new 0 0 480.2 512;" xml:space="preserve">
<title>headphone-2</title>
<path class="svg-stroke" d="M289.9,480.5h-43.7c-8,0-14.5-6.5-14.5-14.5s6.5-14.5,14.5-14.5h43.7c65.2,0,118.1-52.9,118.1-118.1
	c0,0,0,0,0,0c0-8,6.5-14.5,14.5-14.5s14.5,6.5,14.5,14.5C437.1,414.7,371.2,480.5,289.9,480.5C289.9,480.5,289.9,480.5,289.9,480.5z
	"/>
<path class="svg-stroke" d="M57.7,369.9c-8,0-14.5-6.5-14.5-14.5l0,0V147.1C43.2,66,109.2,0,190.3,0h99.6c53.1,0.1,102.1,28.7,128.3,75
	c3.9,7,1.5,15.8-5.5,19.8c-7,3.9-15.8,1.5-19.8-5.5l0,0c-21-37.2-60.3-60.2-103-60.2h-99.6C125.1,29.1,72.2,81.9,72.1,147.1v208.3
	C72.1,363.4,65.7,369.9,57.7,369.9C57.7,369.9,57.7,369.9,57.7,369.9z"/>
<path class="svg-fill" d="M394.2,370.9L394.2,370.9c15.3,0,27.6-12.4,27.6-27.6v0V354h8.6c19.5,0,35.3-15.8,35.3-35.3v-76
	c0-19.5-15.8-35.3-35.3-35.3h-8.6v10.7c0-15.3-12.4-27.6-27.6-27.6c0,0,0,0,0,0l0,0c-15.3,0-27.6,12.4-27.6,27.6v125.1
	C366.6,358.5,378.9,370.9,394.2,370.9z"/>
<path class="svg-stroke" d="M394.2,385.4c-23.3,0-42.1-18.9-42.1-42.1V218.2c0-23.3,18.9-42.1,42.2-42.1c13.3,0,25.8,6.3,33.7,16.9h2.5
	c27.5,0,49.8,22.3,49.8,49.8v76c0,27.5-22.3,49.8-49.8,49.8h-2.5C420,379.2,407.5,385.4,394.2,385.4z M394.2,205
	c-7.3,0-13.1,5.9-13.1,13.1v125.1c0,7.3,5.9,13.1,13.1,13.1c7.3,0,13.1-5.9,13.1-13.1c0-8,6.5-14.5,14.5-14.5
	c6.3,0,11.9,4.1,13.8,10.1c9.2-2.4,15.5-10.7,15.6-20.1v-76c0-9.5-6.4-17.7-15.6-20.1c-2.4,7.6-10.6,11.8-18.2,9.4
	c-6-1.9-10.1-7.5-10.1-13.8C407.3,210.9,401.4,205,394.2,205L394.2,205z"/>
<path class="svg-fill" d="M86,370.9L86,370.9c-15.3,0-27.6-12.4-27.6-27.6V354h-8.6c-19.5,0-35.3-15.8-35.3-35.3c0,0,0,0,0,0v-76
	c0-19.5,15.8-35.3,35.3-35.3h8.6v10.7c0-15.2,12.4-27.6,27.6-27.6l0,0c15.3,0,27.6,12.4,27.6,27.6l0,0v125.1
	C113.6,358.5,101.3,370.9,86,370.9C86,370.9,86,370.9,86,370.9z"/>
<path class="svg-stroke" d="M86,385.4c-13.3,0-25.8-6.3-33.7-16.9h-2.5C22.3,368.4,0,346.2,0,318.7v-76C0.1,215.2,22.3,193,49.8,193h2.5
	c13.9-18.6,40.3-22.5,58.9-8.6c10.7,8,16.9,20.5,16.9,33.8v125C128.1,366.5,109.3,385.4,86,385.4z M72.9,343.2
	c-0.2,7.3,5.5,13.3,12.8,13.5c7.3,0.2,13.3-5.5,13.5-12.8c0-0.2,0-0.5,0-0.7V218.2c0.2-7.3-5.5-13.3-12.8-13.5
	c-7.3-0.2-13.3,5.5-13.5,12.8c0,0.2,0,0.5,0,0.7c0,8-6.5,14.5-14.5,14.5c-6.3,0-11.9-4.1-13.8-10.1C35.4,225,29,233.3,29,242.7v76
	c0,9.4,6.4,17.7,15.6,20.1c2.4-7.6,10.6-11.8,18.2-9.4C68.8,331.3,72.9,336.9,72.9,343.2z"/>
<circle class="svg-fill" cx="255.8" cy="461.3" r="36.2"/>
<path class="svg-stroke" d="M255.8,512c-28,0-50.7-22.7-50.7-50.7c0-28,22.7-50.7,50.7-50.7s50.7,22.7,50.7,50.7c0,0,0,0,0,0
	C306.4,489.3,283.7,512,255.8,512z M255.8,439.6c-12,0-21.7,9.7-21.7,21.7c0,12,9.7,21.7,21.7,21.7c12,0,21.7-9.7,21.7-21.7
	c0,0,0,0,0,0C277.4,449.4,267.7,439.7,255.8,439.6z"/>
</svg>
