<?xml version="1.0" encoding="utf-8"?>
<!-- Generator: Adobe Illustrator 24.0.1, SVG Export Plug-In . SVG Version: 6.00 Build 0)  -->
<svg version="1.1" id="Layer_1" xmlns="http://www.w3.org/2000/svg" xmlns:xlink="http://www.w3.org/1999/xlink" x="0px" y="0px"
	 viewBox="0 0 409.6 385.6" style="enable-background:new 0 0 409.6 385.6;" xml:space="preserve">
<title>headphone</title>
<path class="svg-stroke" d="M204.8,363.2c-6.4-0.4-11.2-5.8-10.8-12.2c0.3-5.8,5-10.5,10.8-10.8c36.3,0,71-14.5,96.5-40.3
	c4.5-4.5,11.8-4.5,16.3,0s4.5,11.8,0,16.3l0,0C287.9,346.3,247.2,363.3,204.8,363.2z"/>
<path class="svg-stroke" d="M352.5,215.5c-6.3,0-11.5-5.1-11.5-11.5v-44.8C341,84.1,279.9,23,204.8,23S68.6,84.1,68.6,159.2
	c-0.4,6.4-5.8,11.2-12.2,10.8c-5.8-0.3-10.5-5-10.8-10.8C45.6,71.4,117,0,204.8,0S364,71.4,364,159.2V204
	C364,210.4,358.8,215.5,352.5,215.5L352.5,215.5z"/>
<path class="svg-fill" d="M213.5,374h-17.4c-12.2,0-22.1-9.9-22.1-22.1c0-12.2,9.9-22,22.1-22.1h17.4c12.2,0,22.1,9.9,22.1,22.1
	S225.7,374,213.5,374C213.5,374,213.5,374,213.5,374z"/>
<path class="svg-stroke" d="M213.5,385.6h-17.4c-18.5,0-33.6-15-33.6-33.6c0-18.5,15-33.6,33.6-33.6h17.4c18.5,0,33.6,15,33.6,33.6
	C247.1,370.5,232,385.6,213.5,385.6C213.5,385.6,213.5,385.6,213.5,385.6z M196.1,341.5c-5.8,0-10.5,4.7-10.6,10.5
	c0,5.8,4.7,10.5,10.5,10.6c0,0,0,0,0,0h17.4c5.8,0,10.5-4.7,10.6-10.5c0-5.8-4.7-10.5-10.5-10.6c0,0,0,0,0,0H196.1z"/>
<path class="svg-fill" d="M76.3,242.9h-35c-16.5,0-29.8-13.4-29.8-29.8c0,0,0,0,0,0v-33.2c0-16.5,13.4-29.8,29.8-29.8c0,0,0,0,0,0h35
	V242.9z"/>
<path class="svg-stroke" d="M76.3,254.4h-35C18.5,254.4,0,235.9,0,213.1v-33.2c0-22.8,18.5-41.3,41.3-41.3h35c6.4,0,11.5,5.2,11.5,11.5
	c0,0,0,0,0,0v92.8C87.9,249.2,82.7,254.4,76.3,254.4z M41.3,161.6c-10.1,0-18.3,8.2-18.3,18.3V213c0,10.1,8.2,18.3,18.3,18.3h23.5
	v-69.8L41.3,161.6z"/>
<path class="svg-fill" d="M82.7,257.8c-13.3,0-24.1-10.8-24.1-24.1v-74.4c0-13.3,10.8-24.1,24.1-24.1s24.1,10.8,24.1,24.1v74.4
	C106.8,247,96,257.8,82.7,257.8z"/>
<path class="svg-stroke" d="M82.7,269.3c-19.7,0-35.6-16-35.7-35.6v-74.4c-0.3-19.7,15.4-35.9,35-36.2s35.9,15.4,36.2,35c0,0.4,0,0.8,0,1.2
	v74.4C118.3,253.4,102.3,269.3,82.7,269.3L82.7,269.3z M82.7,146.6c-7,0-12.6,5.7-12.6,12.6v74.4c0,7,5.6,12.6,12.6,12.6
	s12.6-5.6,12.6-12.6l0,0v-74.4C95.3,152.3,89.6,146.7,82.7,146.6L82.7,146.6z"/>
<path class="svg-fill" d="M333.2,242.9h35c16.5,0,29.8-13.4,29.8-29.8v-33.2c0-16.5-13.4-29.8-29.8-29.8h-35V242.9z"/>
<path class="svg-stroke" d="M368.3,254.4h-35c-6.4,0-11.5-5.2-11.5-11.5v-92.8c0-6.4,5.2-11.5,11.5-11.5h35c22.8,0,41.3,18.5,41.3,41.3V213
	C409.6,235.9,391.1,254.4,368.3,254.4z M344.8,231.4h23.5c10.1,0,18.3-8.2,18.3-18.3v-33.2c0-10.1-8.2-18.3-18.3-18.3h-23.5V231.4z"
	/>
<path class="svg-fill" d="M326.9,257.8c13.3,0,24.1-10.8,24.1-24.1v-74.4c0-13.3-10.8-24.1-24.1-24.1s-24.1,10.8-24.1,24.1v74.4
	C302.8,247,313.6,257.8,326.9,257.8z"/>
<path class="svg-stroke" d="M326.9,269.3c-19.7,0-35.6-16-35.6-35.6v-74.4c0-19.7,16-35.6,35.6-35.6c19.7,0,35.6,16,35.6,35.6c0,0,0,0,0,0
	v74.4C362.5,253.4,346.6,269.3,326.9,269.3z M326.9,146.6c-7,0-12.6,5.7-12.6,12.6v74.4c0,7,5.6,12.6,12.6,12.6
	c7,0,12.6-5.6,12.6-12.6l0,0v-74.4C339.5,152.3,333.9,146.7,326.9,146.6L326.9,146.6z"/>
</svg>
