<?xml version="1.0" encoding="utf-8"?>
<!-- Generator: Adobe Illustrator 24.0.1, SVG Export Plug-In . SVG Version: 6.00 Build 0)  -->
<svg version="1.1" id="Layer_1" xmlns="http://www.w3.org/2000/svg" xmlns:xlink="http://www.w3.org/1999/xlink" x="0px" y="0px"
	 viewBox="0 0 504.2 512" style="enable-background:new 0 0 504.2 512;" xml:space="preserve">
<title>house</title>
<polygon class="svg-fill" points="489.2,203.4 15,203.4 73.7,85.9 430.4,85.9 "/>
<rect x="209" y="355.9" class="svg-fill" width="86.1" height="141.2"/>
<path class="svg-stroke" d="M502.2,195.9L444.7,81V15c0-8.3-6.7-15-15-15h-70.4c-8.3,0-15,6.7-15,15v56H73.7c-5.7,0-10.8,3.2-13.4,8.3
	L1.6,196.7c-3.7,7.4-0.6,16.4,6.8,20.1c2.1,1,4.3,1.6,6.6,1.6h33.6V497c0,8.3,6.7,15,15,15h377c8.3,0,15-6.7,15-15V275.3
	c0-8.3-6.7-15-15-15l0,0h-92.1c-8.3,0-15,6.7-15,15l0,0v104c0,8.3,6.7,15,15,15h77.1v87.8H310.1V355.9c0-8.3-6.7-15-15-15H209
	c-8.3,0-15,6.7-15,15v126.2H78.5v-87.8h77.1c8.3,0,15-6.7,15-15v-104c0-8.3-6.7-15-15-15l0,0H78.5v-42h410.8c8.3,0,15-6.8,14.9-15.1
	C504.2,200.7,503.5,198.1,502.2,195.9L502.2,195.9z M363.5,364.4v-74.1h62.2v74.1H363.5z M224,370.8h56.2v111.2H224V370.8z
	 M140.7,290.3v74.1H78.5v-74.1L140.7,290.3z M374.3,29.9h40.5V71h-40.5V29.9z M39.2,188.4L83,100.9h338.2l43.8,87.5H39.2z"/>
</svg>
