<?xml version="1.0" encoding="utf-8"?>
<!-- Generator: Adobe Illustrator 24.0.1, SVG Export Plug-In . SVG Version: 6.00 Build 0)  -->
<svg version="1.1" id="Layer_1" xmlns="http://www.w3.org/2000/svg" xmlns:xlink="http://www.w3.org/1999/xlink" x="0px" y="0px"
	 viewBox="0 0 409.6 385" style="enable-background:new 0 0 409.6 385;" xml:space="preserve">
<title>id-card</title>
<path class="svg-stroke" d="M360.1,385H49.5C22.2,385,0,362.9,0,335.5V124.2c0-27.3,22.2-49.5,49.5-49.5h310.6c27.3,0,49.5,22.2,49.5,49.5
	v211.4C409.6,362.9,387.4,385,360.1,385z M49.5,97.6c-14.6,0-26.5,11.9-26.5,26.6v211.4c0,14.7,11.9,26.5,26.5,26.5h310.6
	c14.7,0,26.5-11.9,26.5-26.5V124.2c0-14.7-11.9-26.5-26.5-26.5L49.5,97.6z"/>
<path class="svg-fill" d="M262.6,51.9h-16.5c-0.5-22.8-19.4-40.9-42.2-40.4C181.8,12,164,29.8,163.5,51.9H147
	c-18.9,0-34.2,15.3-34.2,34.2s15.3,34.2,34.2,34.2h115.6c18.9,0,34.2-15.3,34.2-34.2S281.5,51.9,262.6,51.9z"/>
<path class="svg-stroke" d="M262.6,131.9H147c-25.2-0.4-45.4-21.1-45-46.4c0.4-24.7,20.3-44.7,45-45h6.5c6.8-28.3,35.3-45.8,63.6-39
	c19.3,4.6,34.4,19.7,39,39h6.5c25.2,0.4,45.4,21.1,45,46.4C307.2,111.5,287.3,131.5,262.6,131.9L262.6,131.9z M147,63.4
	c-12.6,0.3-22.5,10.7-22.3,23.2c0.3,12.2,10.1,22,22.3,22.3h115.6c12.6-0.3,22.5-10.7,22.3-23.2c-0.3-12.2-10.1-22-22.3-22.3h-16.5
	c-6.2,0-11.3-5-11.5-11.2c-0.4-16.5-14.1-29.5-30.6-29.1c-15.9,0.4-28.7,13.2-29.1,29.1c-0.1,6.2-5.2,11.2-11.5,11.2H147z"/>
<path class="svg-stroke" d="M143,297.7c-34.2-0.1-61.9-28-61.7-62.3s28-61.9,62.3-61.7c5.3,0,10.5,0.7,15.6,2.1c6.1,1.6,9.8,7.9,8.1,14.1
	s-7.9,9.8-14.1,8.1l0,0c-20.8-5.6-42.3,6.7-47.9,27.6s6.7,42.3,27.6,47.9s42.3-6.7,47.9-27.6c0.9-3.3,1.3-6.7,1.3-10.2
	c0.2-6.3,5.5-11.3,11.8-11.1c6.1,0.2,11,5.1,11.1,11.1C205,269.9,177.3,297.6,143,297.7L143,297.7z"/>
<path class="svg-fill" d="M180.5,300.2c-11.3-7-24.3-10.6-37.5-10.6c-39.6,0.1-71.7,32.2-71.8,71.9v10.7h143.7v-10.7
	C214.8,336.4,201.8,313.3,180.5,300.2"/>
<path class="svg-stroke" d="M214.9,383.6H71.2c-6.3,0-11.5-5.1-11.5-11.4c0,0,0,0,0,0v-10.7c0.5-46,38.2-82.9,84.2-82.4
	c45.3,0.5,81.9,37.1,82.4,82.4v10.7C226.3,378.5,221.2,383.6,214.9,383.6L214.9,383.6L214.9,383.6z M82.6,360.7h120.8
	c-0.4-33.3-27.8-60-61.2-59.6C109.5,301.5,83.1,327.9,82.6,360.7z"/>
<path class="svg-stroke" d="M338.5,248.8h-76.9c-6.3-0.2-11.3-5.5-11.1-11.8c0.2-6.1,5.1-11,11.1-11.1h76.9c6.3-0.2,11.6,4.8,11.8,11.1
	c0.2,6.3-4.8,11.6-11.1,11.8C338.9,248.8,338.7,248.8,338.5,248.8z"/>
<path class="svg-stroke" d="M338.5,331.4h-76.9c-6.4,0-11.5-5.1-11.5-11.5s5.1-11.5,11.5-11.5h76.9c6.4,0,11.5,5.1,11.5,11.5
	S344.8,331.4,338.5,331.4z"/>
</svg>
