<?xml version="1.0" encoding="utf-8"?>
<!-- Generator: Adobe Illustrator 24.0.1, SVG Export Plug-In . SVG Version: 6.00 Build 0)  -->
<svg version="1.1" id="Layer_1" xmlns="http://www.w3.org/2000/svg" xmlns:xlink="http://www.w3.org/1999/xlink" x="0px" y="0px"
	 viewBox="0 0 321.7 409.6" style="enable-background:new 0 0 321.7 409.6;" xml:space="preserve">
<title>light-bulb</title>
<path class="svg-fill" d="M160.9,221.3c-19.1,0-37.4-7.3-51.3-20.4l51.3,127.2l51.3-127.2C198.3,214,179.9,221.3,160.9,221.3L160.9,221.3
	z"/>
<path class="svg-stroke" d="M160.9,339.9c-4.8,0-9.1-2.9-10.9-7.4L98.6,205.3c-2.5-6,0.3-12.9,6.3-15.4c4.3-1.8,9.3-0.9,12.7,2.4
	c24.3,22.9,62.2,22.9,86.5,0c4.7-4.5,12.1-4.3,16.6,0.3c3.2,3.4,4.2,8.3,2.4,12.7l-51.4,127.2C170,337,165.7,339.9,160.9,339.9
	L160.9,339.9z M133.4,228.6l27.5,68.1l27.5-68.1C170.5,234.5,151.2,234.5,133.4,228.6L133.4,228.6z"/>
<path class="svg-stroke" d="M86.7,316.1c-5.9,0-10.9-4.4-11.7-10.2c-2.2-16.6-9.8-23.9-22.3-36.1l-2.9-2.8C28.8,246.5,0,218.4,0,151.6
	c0-42.9,17.1-81.9,48-110C77.7,14.8,117.7,0,160.9,0s83.2,14.8,112.8,41.6c6.7,6.1,12.8,12.7,18.3,19.9c3.1,4.1,6,8.3,8.6,12.6
	c1.3,2.2,2.6,4.4,3.8,6.6c2.4,4.5,4.6,9.1,6.5,13.8c1.4,3.5,2.7,7.2,3.9,10.8c4.7,14.9,7,30.5,7,46.2c0,27.9-4.9,51.2-15,71.2
	c-0.6,1.2-1.2,2.4-1.8,3.5c-1.8,3.3-3.8,6.5-5.9,9.6c-0.7,1-1.4,2-2,3c-2.6,3.6-5.3,7.1-8.5,10.7c-5.6,6.5-11.5,12.2-16.6,17.2
	c-4.7,4.5-12.1,4.4-16.6-0.2c-4.5-4.7-4.4-12.1,0.2-16.6c5-4.9,10.2-9.9,15.2-15.7c2.6-3,4.9-6,7.1-9c0.6-0.8,1.1-1.6,1.7-2.4
	c1.7-2.5,3.3-5.2,4.7-7.8c0.5-0.9,1-1.9,1.5-2.8c8.4-16.6,12.5-36.4,12.5-60.6c0-13.2-2-26.4-5.9-39.1c-1-3.1-2.1-6.1-3.3-9.1
	c-1.6-3.9-3.4-7.8-5.4-11.6c-1-1.9-2.1-3.8-3.2-5.6c-6.2-10.2-13.8-19.4-22.6-27.3c-25.3-22.9-59.8-35.5-97-35.5S89.1,36.1,63.8,59
	c-26,23.5-40.3,56.4-40.3,92.5c0,56.9,22.7,79.1,42.8,98.6l2.8,2.7c13.4,13,26.1,25.2,29.3,49.9c0.9,6.4-3.7,12.4-10.1,13.2
	c0,0,0,0,0,0C87.7,316.1,87.2,316.1,86.7,316.1L86.7,316.1z"/>
<path class="svg-fill" d="M141.9,397.8h38c3.8,0,7.4-1.5,10.1-4.2l13-13c2-2,3.4-4.6,3.9-7.4l12.4-63.7h-117l12.4,63.7
	c0.6,2.8,2,5.4,4,7.4l13,13C134.4,396.3,138,397.8,141.9,397.8L141.9,397.8z"/>
<path class="svg-stroke" d="M179.8,409.6h-37.9c-6.9,0-13.6-2.7-18.5-7.7l-13-13c-3.7-3.7-6.2-8.4-7.2-13.5l-12.4-63.7
	c-1.2-6.4,2.9-12.5,9.3-13.8c0.7-0.1,1.5-0.2,2.2-0.2h117c6.5,0,11.8,5.3,11.8,11.8c0,0.8-0.1,1.5-0.2,2.2l-12.4,63.7
	c-1,5.1-3.5,9.8-7.2,13.5l-13,13C193.5,406.8,186.8,409.6,179.8,409.6L179.8,409.6z M116.6,321.2l9.7,49.7c0.1,0.5,0.4,1,0.7,1.4
	l13,13c0.5,0.5,1.2,0.8,1.9,0.8h38c0.7,0,1.4-0.3,1.9-0.8l13-13c0.4-0.4,0.6-0.9,0.7-1.4l9.6-49.7H116.6z"/>
<path class="svg-stroke" d="M241.5,321H80.2c-6.5-0.2-11.6-5.6-11.4-12.1c0.2-6.2,5.2-11.2,11.4-11.4h161.4c6.5-0.2,11.9,4.9,12.1,11.4
	c0.2,6.5-4.9,11.9-11.4,12.1C242,321,241.8,321,241.5,321z"/>
<path class="svg-stroke" d="M226.7,365.3H95c-6.5-0.2-11.6-5.6-11.4-12.1c0.2-6.2,5.2-11.2,11.4-11.4h131.7c6.5,0.2,11.6,5.6,11.4,12.1
	C237.9,360.1,232.9,365.1,226.7,365.3z"/>
</svg>
