<?xml version="1.0" encoding="utf-8"?>
<!-- Generator: Adobe Illustrator 24.0.1, SVG Export Plug-In . SVG Version: 6.00 Build 0)  -->
<svg version="1.1" id="Layer_1" xmlns="http://www.w3.org/2000/svg" xmlns:xlink="http://www.w3.org/1999/xlink" x="0px" y="0px"
	 viewBox="0 0 512 511.9" style="enable-background:new 0 0 512 511.9;" xml:space="preserve">
<title>link</title>
<path class="svg-fill" d="M240.3,101.8l-58.1-58.1C144.1,5.6,81.8,5.6,43.8,43.7l0,0c-38.1,38.1-38.1,100.4,0,138.5l58.1,58.1
	c38.1,38.1,100.4,38.1,138.5,0l0,0C278.4,202.2,278.4,139.9,240.3,101.8z M141,201.2l-58.1-58.1c-16.6-16.6-16.6-43.6,0-60.2
	s43.6-16.6,60.2,0l58.1,58.1c16.6,16.6,16.6,43.6,0,60.2S157.6,217.8,141,201.2z"/>
<path class="svg-stroke" d="M171.1,284c-30,0.1-58.8-11.8-79.9-33l-58.1-58.1C-10.6,148.2-9.7,76.6,34.9,33C78.9-9.9,149-9.9,192.9,33
	l58.1,58.1c44.2,44.1,44.2,115.6,0.2,159.7C230,272.1,201.2,284,171.1,284z M113,30.3c-45.6-0.1-82.7,36.8-82.8,82.5
	c0,22,8.7,43.1,24.3,58.7l58.1,58.1c31.5,33.2,83.8,34.5,117,3.1s34.5-83.8,3.1-117c-1-1.1-2-2.1-3.1-3.1l-58.1-58.1
	C156,38.9,134.9,30.2,113,30.3z M171.1,228.8c-15.3,0-30-6-40.8-16.9l-58.1-58.1C49.8,131,50.1,94.5,72.8,72.1
	c22.5-22.1,58.5-22.1,81,0l58.1,58.1c22.5,22.5,22.5,59.1,0,81.6C201.1,222.7,186.4,228.8,171.1,228.8L171.1,228.8z M113,85.5
	c-15.1,0-27.4,12.3-27.4,27.4c0,7.3,2.9,14.3,8,19.4l58.1,58.1c10.9,10.5,28.3,10.2,38.8-0.7c10.3-10.6,10.3-27.5,0-38.1l-58.1-58.1
	C127.3,88.4,120.3,85.5,113,85.5z"/>
<path class="svg-stroke" d="M399,511.9c-30,0.1-58.8-11.8-79.9-33.1L261,420.8c-43.3-45-41.9-116.6,3.1-159.9c43.8-42.1,112.9-42.1,156.7,0
	c6,5.9,6,15.5,0.1,21.4c-5.9,6-15.5,6-21.4,0.1c0,0-0.1-0.1-0.1-0.1c-33.2-31.5-85.5-30.1-117,3.1c-30.3,31.9-30.3,82,0,113.9
	l58.1,58.1c31.5,33.2,83.8,34.5,117,3.1s34.5-83.8,3.1-117c-1-1.1-2-2.1-3.1-3.1c-5.7-6.1-5.4-15.7,0.7-21.4
	c5.8-5.5,14.9-5.5,20.8,0c44.2,44.1,44.3,115.6,0.2,159.8C457.9,500.1,429.1,512,399,511.9L399,511.9z M399,456.6
	c-15.3,0-30-6-40.8-16.9l-58.1-58.1c-22.5-22.5-22.5-59.1,0-81.6c22.5-22.5,59.1-22.5,81.6,0c6,5.9,6,15.5,0.1,21.4
	c-5.9,6-15.5,6-21.4,0.1c0,0-0.1-0.1-0.1-0.1c-10.9-10.5-28.3-10.2-38.8,0.7c-10.3,10.6-10.3,27.5,0,38.1l58.1,58.1
	c10.7,10.7,28.1,10.7,38.8,0c10.7-10.7,10.7-28.1,0-38.8c-5.9-5.9-5.9-15.5,0-21.4s15.5-5.9,21.4,0c22.5,22.5,22.6,59.1,0,81.6
	C429,450.6,414.3,456.6,399,456.6z"/>
<path class="svg-stroke" d="M310.8,325.9c-4,0-7.9-1.6-10.7-4.4L190.5,211.9c-5.8-6-5.6-15.6,0.5-21.4c5.9-5.6,15.1-5.6,20.9,0L321.5,300
	c5.9,5.9,5.9,15.5,0,21.4C318.6,324.3,314.8,325.9,310.8,325.9z"/>
</svg>
