<?xml version="1.0" encoding="utf-8"?>
<!-- Generator: Adobe Illustrator 24.0.1, SVG Export Plug-In . SVG Version: 6.00 Build 0)  -->
<svg version="1.1" id="Layer_1" xmlns="http://www.w3.org/2000/svg" xmlns:xlink="http://www.w3.org/1999/xlink" x="0px" y="0px"
	 viewBox="0 0 512 447" style="enable-background:new 0 0 512 447;" xml:space="preserve">
<title>list</title>
<path class="svg-stroke" d="M102.4,447C45.8,447,0,401.1,0,344.6s45.9-102.4,102.4-102.4c36.3,0,69.9,19.2,88.3,50.5
	c4.1,6.9,1.8,15.8-5.2,19.9c-6.9,4.1-15.8,1.8-19.9-5.2l0,0c-20.5-34.9-65.4-46.6-100.3-26.1s-46.6,65.4-26.1,100.3
	s65.4,46.6,100.3,26.1c10.2-6,18.8-14.3,25-24.3c4.3-6.8,13.2-8.9,20.1-4.6c6.8,4.3,8.9,13.2,4.6,20.1
	C170.5,428.9,137.7,447.1,102.4,447z"/>
<path class="svg-stroke" d="M497.5,327.2H254.3c-8-0.2-14.4-6.9-14.2-14.9c0.2-7.7,6.4-14,14.2-14.2h243.1c8,0.2,14.4,6.9,14.2,14.9
	C511.4,320.8,505.2,327,497.5,327.2z"/>
<path class="svg-stroke" d="M406.3,391.1h-152c-8-0.2-14.4-6.9-14.2-14.9c0.2-7.7,6.4-14,14.2-14.2h152c8,0.2,14.4,6.9,14.2,14.9
	C420.3,384.6,414,390.9,406.3,391.1z"/>
<circle class="svg-fill" cx="102.4" cy="102.4" r="87.8"/>
<path class="svg-stroke" d="M102.4,204.8C45.8,204.8,0,158.9,0,102.4S45.8,0,102.4,0s102.4,45.8,102.4,102.4c0,0,0,0,0,0
	C204.7,158.9,158.9,204.7,102.4,204.8z M102.4,29.1c-40.5,0-73.3,32.8-73.3,73.3s32.8,73.3,73.3,73.3s73.3-32.8,73.3-73.3
	C175.6,61.9,142.8,29.2,102.4,29.1z"/>
<path class="svg-stroke" d="M497.5,85H254.3c-8-0.2-14.4-6.9-14.2-14.9c0.2-7.7,6.4-14,14.2-14.2h243.1c8,0.2,14.4,6.9,14.2,14.9
	C511.4,78.6,505.2,84.8,497.5,85z"/>
<path class="svg-stroke" d="M406.3,148.8h-152c-8-0.2-14.4-6.9-14.2-14.9c0.2-7.7,6.4-14,14.2-14.2h152c8,0.2,14.4,6.9,14.2,14.9
	C420.3,142.4,414,148.6,406.3,148.8z"/>
</svg>
