<?xml version="1.0" encoding="utf-8"?>
<!-- Generator: Adobe Illustrator 24.0.1, SVG Export Plug-In . SVG Version: 6.00 Build 0)  -->
<svg version="1.1" id="Layer_1" xmlns="http://www.w3.org/2000/svg" xmlns:xlink="http://www.w3.org/1999/xlink" x="0px" y="0px"
	 viewBox="0 0 409.6 353.3" style="enable-background:new 0 0 409.6 353.3;" xml:space="preserve">
<title>loading</title>
<path class="svg-stroke" d="M176.6,353.3c-46.9,0-91.9-18.6-125-51.8c-68.9-68.9-68.9-181,0-249.9c69-69,180.9-69,249.9,0
	c24,24,40.5,54.3,47.7,87.5c0.4,1.9,0.8,3.9,1.2,6.2l2.7,14.8c1.1,6.2-3,12.2-9.3,13.3c-0.7,0.1-1.3,0.2-2,0.2h-51
	c-5.4,0-10-3.7-11.2-9l-2.1-9.9C265.3,99,210.1,63.8,154.4,76.1s-90.9,67.4-78.6,123.2c7.9,35.6,33.9,64.4,68.6,75.8
	c3,1,6.1,1.8,9.1,2.5c6.2,1.4,10,7.5,8.6,13.7c-1.4,6.2-7.5,10-13.7,8.6c-3.7-0.9-7.5-1.9-11.1-3.1C71,275,34.9,203.4,56.8,137
	c6.2-18.7,16.6-35.7,30.5-49.7C136.5,38,216.3,37.8,265.7,87c17.3,17.2,29.2,39,34.3,62.9l0.2,0.9h28.1l-0.2-1.4
	c-0.4-2-0.7-3.8-1.1-5.4C308.9,60.9,226.9,8.3,143.8,26.4c-28.8,6.3-55.2,20.7-76,41.5c-60,60-60,157.6,0,217.6
	c41,41.1,101.7,55.5,156.9,37.4L206,290.3c-3-5.6-0.9-12.5,4.6-15.5c5.3-2.9,12-1.1,15.2,4.1l25.6,44.4c3.2,5.5,1.3,12.5-4.2,15.6
	c-0.6,0.4-1.3,0.7-2,0.9l-10.8,3.7C215.8,350,196.3,353.3,176.6,353.3L176.6,353.3z"/>
<path class="svg-fill" d="M236.6,160.7l80.8,140l80.8-140L236.6,160.7z"/>
<path class="svg-stroke" d="M317.4,312.1c-4.1,0-7.9-2.2-9.9-5.7l-80.8-140c-3.2-5.5-1.3-12.5,4.2-15.6c1.7-1,3.7-1.5,5.7-1.5h161.6
	c6.3,0,11.4,5.1,11.4,11.4c0,2-0.5,4-1.5,5.7l-80.8,140C325.2,310,321.4,312.1,317.4,312.1L317.4,312.1z M256.4,172.1l61,105.7
	l61-105.7H256.4z"/>
</svg>
