<?xml version="1.0" encoding="utf-8"?>
<!-- Generator: Adobe Illustrator 24.0.1, SVG Export Plug-In . SVG Version: 6.00 Build 0)  -->
<svg version="1.1" id="Layer_1" xmlns="http://www.w3.org/2000/svg" xmlns:xlink="http://www.w3.org/1999/xlink" x="0px" y="0px"
	 viewBox="0 0 324 512" style="enable-background:new 0 0 324 512;" xml:space="preserve">
<title>lock</title>
<path class="svg-fill" d="M14.3,241.7v197.5c0,32.3,26.2,58.5,58.5,58.5h178.4c32.3,0,58.5-26.2,58.5-58.5V241.7H14.3z M162,407.9
	c-26.3,0-47.7-21.4-47.7-47.7c0-26.3,21.4-47.7,47.7-47.7s47.7,21.4,47.7,47.7C209.7,386.5,188.3,407.9,162,407.9
	C162,407.9,162,407.9,162,407.9z"/>
<path class="svg-stroke" d="M251.2,512H72.8C32.6,512,0,479.4,0,439.2V241.7c0-7.9,6.4-14.3,14.3-14.3h295.4c7.9,0,14.3,6.4,14.3,14.3
	v197.5C324,479.4,291.4,511.9,251.2,512z M28.6,256v183.2c0,24.4,19.8,44.2,44.2,44.2h178.4c24.4,0,44.2-19.8,44.2-44.2V256H28.6z
	 M162,422.2c-34.2,0-62-27.8-62-62s27.8-62,62-62s62,27.8,62,62C224,394.4,196.2,422.1,162,422.2z M162,326.8
	c-18.4,0-33.4,14.9-33.4,33.4c0,18.4,14.9,33.4,33.4,33.4s33.4-14.9,33.4-33.4C195.4,341.7,180.4,326.8,162,326.8z"/>
<path class="svg-stroke" d="M45.1,256c-7.9,0-14.3-6.4-14.3-14.3c0,0,0,0,0,0V124C30.9,55.6,86.4,0.1,154.8,0h14.3
	c68.4,0.1,123.9,55.6,124,124c0,7.9-6.4,14.3-14.3,14.3s-14.3-6.4-14.3-14.3c0,0,0,0,0,0c-0.1-52.7-42.7-95.3-95.4-95.4h-14.3
	c-52.7,0.1-95.3,42.7-95.4,95.4v117.7C59.5,249.6,53.1,256,45.1,256C45.2,256,45.1,256,45.1,256z"/>
<path class="svg-stroke" d="M68.6,234.5H20.4c-7.9,0-14.3-6.4-14.3-14.3c0-7.9,6.4-14.3,14.3-14.3h48.2c7.9,0,14.3,6.4,14.3,14.3
	C82.8,228.1,76.4,234.5,68.6,234.5z"/>
<path class="svg-stroke" d="M303.6,234.5h-48.2c-7.9,0-14.3-6.4-14.3-14.3c0-7.9,6.4-14.3,14.3-14.3h48.2c7.9,0,14.3,6.4,14.3,14.3
	C317.9,228.1,311.5,234.5,303.6,234.5z"/>
</svg>
