<?xml version="1.0" encoding="utf-8"?>
<!-- Generator: Adobe Illustrator 24.0.1, SVG Export Plug-In . SVG Version: 6.00 Build 0)  -->
<svg version="1.1" id="Layer_1" xmlns="http://www.w3.org/2000/svg" xmlns:xlink="http://www.w3.org/1999/xlink" x="0px" y="0px"
	 viewBox="0 0 512 474.1" style="enable-background:new 0 0 512 474.1;" xml:space="preserve">
<title>map</title>
<polygon class="svg-fill" points="336.4,392.2 175.6,459.4 175.6,81.9 336.4,14.7 "/>
<path class="svg-stroke" d="M497.2,163.3c-8.1,0-14.7,6.6-14.8,14.7v223l-131.3-21.3V32.1l143.7,23.3c8.1,1.1,15.5-4.5,16.6-12.6
	c1.1-7.8-4.2-15.1-11.9-16.5L338.8,0.2c-0.2,0-0.4,0-0.5,0L337.5,0c-0.4,0-0.7,0-1.1,0h-0.6c-0.4,0-0.8,0.1-1.2,0.1l-0.5,0
	c-1.1,0.2-2.3,0.5-3.3,0.9h-0.1L175,66.1L19.5,13.2c-7.7-2.6-16.1,1.5-18.7,9.2C0.3,23.9,0,25.5,0,27.1v377.5
	c-0.2,8.1,6.2,14.9,14.4,15.1s14.9-6.2,15.1-14.4c0-0.3,0-0.5,0-0.8V47.8l131.3,44.7v366.9c0,0.6,0,1.1,0.1,1.7c0,0.2,0,0.3,0.1,0.5
	c0.1,0.4,0.1,0.8,0.2,1.2l0.1,0.5c0.1,0.4,0.2,0.8,0.4,1.2c0,0.1,0.1,0.3,0.1,0.4c0.2,0.5,0.4,1,0.7,1.5c0,0,0,0,0,0
	c0.3,0.5,0.6,1,0.9,1.4l0.3,0.3c0.2,0.3,0.5,0.6,0.8,1c0.1,0.1,0.2,0.3,0.4,0.4c0.3,0.3,0.6,0.6,0.9,0.8c0.1,0.1,0.2,0.2,0.4,0.3
	c0.4,0.4,0.9,0.7,1.3,1l0,0h0.1c0.5,0.3,1.1,0.7,1.7,0.9l0.3,0.2c0.6,0.3,1.2,0.5,1.9,0.7h0.1c0.6,0.2,1.2,0.3,1.8,0.4l0.4,0.1
	c0.6,0.1,1.3,0.1,1.9,0.1l0,0c0.5,0,1,0,1.5-0.1c0.3,0,0.7-0.1,1-0.1l0.4-0.1c0.4-0.1,0.9-0.2,1.3-0.3h0.1c0.5-0.2,1-0.3,1.5-0.5
	l156.8-65.5l156.7,25.5c0.8,0.1,1.6,0.2,2.4,0.2c8.1,0,14.8-6.6,14.8-14.8c0,0,0,0,0,0V178C512,169.9,505.4,163.3,497.2,163.3z
	 M190.3,91.7l131.3-54.8v345.5l-131.3,54.8V91.7z"/>
</svg>
