<?xml version="1.0" encoding="utf-8"?>
<!-- Generator: Adobe Illustrator 24.0.1, SVG Export Plug-In . SVG Version: 6.00 Build 0)  -->
<svg version="1.1" id="Layer_1" xmlns="http://www.w3.org/2000/svg" xmlns:xlink="http://www.w3.org/1999/xlink" x="0px" y="0px"
	 viewBox="0 0 316.5 409.6" style="enable-background:new 0 0 316.5 409.6;" xml:space="preserve">
<title>medal</title>
<path class="svg-stroke" d="M158.2,409.6c-59.4,0-107.5-48.2-107.5-107.5S99,194.6,158.3,194.6s107.5,48.2,107.5,107.5
	c0,20-5.6,39.6-16.1,56.6c-3.4,5.5-10.6,7.1-16,3.7s-7.1-10.6-3.7-16l0,0c24.4-39.5,12.2-91.3-27.3-115.8S111.3,218.5,86.8,258
	s-12.2,91.3,27.3,115.8c22.5,13.9,50.2,16.4,74.8,6.8c6-2.3,12.7,0.6,15.1,6.6c2.3,6-0.6,12.7-6.6,15.1l0,0
	C184.9,407.1,171.6,409.6,158.2,409.6L158.2,409.6z"/>
<path class="svg-fill" d="M158.2,206.2c19.9,0,39.4,6.2,55.6,17.8l88.1-152.5c4.6-8,3.7-18-2.2-25l-23-27.1c-4.1-4.9-10.2-7.7-16.6-7.7
	H56.4c-6.4,0-12.5,2.8-16.6,7.7l-23,27.2c-6,7-6.9,17-2.2,25L102.6,224C118.8,212.4,138.3,206.2,158.2,206.2L158.2,206.2z
	 M231.6,72.2l-73.3,127L84.9,72.2L231.6,72.2z"/>
<path class="svg-stroke" d="M213.8,235.6c-2.4,0-4.8-0.8-6.8-2.2c-29.2-20.8-68.5-20.8-97.7,0c-5.2,3.7-12.5,2.5-16.2-2.7
	c-0.2-0.3-0.4-0.6-0.6-0.9L4.5,77.3c-7-12.2-5.7-27.5,3.4-38.3l23-27.2C37.2,4.3,46.6,0,56.4,0h203.7c9.8,0,19.2,4.3,25.5,11.8
	l23,27.1c9.1,10.8,10.5,26.1,3.4,38.3l-88.1,152.5c-1.6,2.8-4.4,4.9-7.6,5.6C215.5,235.5,214.7,235.6,213.8,235.6L213.8,235.6z
	 M56.4,23.3c-3,0-5.8,1.3-7.8,3.6L25.7,54c-2.8,3.3-3.2,7.9-1,11.7l82.1,142c11.2-6.1,23.4-10.2,36-12.1L74.8,78
	c-3.2-5.6-1.3-12.7,4.3-15.9c1.8-1,3.8-1.6,5.8-1.6h146.7c6.4,0,11.6,5.2,11.6,11.7c0,2-0.5,4-1.6,5.8l-67.9,117.7
	c12.6,1.8,24.8,5.9,36,12.1l82-142c2.1-3.7,1.7-8.4-1-11.6l-23-27.2c-1.9-2.3-4.8-3.6-7.7-3.6L56.4,23.3z M105.1,83.8l53.2,92.1
	l53.2-92.1L105.1,83.8z"/>
<path class="svg-stroke" d="M150.2,276.7l-4.4,2.7c-1.1,0.8-2.4,1.2-3.8,1.2c-4.4,0-7.4-4.7-7.4-9.4c-0.1-3.3,1.6-6.3,4.4-8l20-12.1
	c1.3-0.8,2.9-1.1,4.4-1.1c4.8,0,10.4,2.9,10.4,7.4v96.2c0,4.9-5.9,7.3-11.8,7.3s-11.8-2.4-11.8-7.3L150.2,276.7z"/>
</svg>
