<?xml version="1.0" encoding="utf-8"?>
<!-- Generator: Adobe Illustrator 24.0.1, SVG Export Plug-In . SVG Version: 6.00 Build 0)  -->
<svg version="1.1" id="Layer_1" xmlns="http://www.w3.org/2000/svg" xmlns:xlink="http://www.w3.org/1999/xlink" x="0px" y="0px"
	 viewBox="0 0 409.6 362.5" style="enable-background:new 0 0 409.6 362.5;" xml:space="preserve">
<title>megaphone</title>
<path class="svg-stroke" d="M343.4,302.9L343.4,302.9L61,302.5c-25.3-0.2-47.5-16.8-54.8-40.9l-3.9-12.9c-7.1-24.2,2.5-50.3,23.5-64.2
	L262.1,29.8c5.7-3.7,13.3-2.1,17,3.6c0.7,1,1.2,2.1,1.5,3.2l74.3,249.8c2.4,6.4-0.9,13.5-7.3,15.8
	C346.3,302.7,344.8,302.9,343.4,302.9L343.4,302.9z M261.8,59.4L39.3,205c-12,7.9-17.4,22.8-13.4,36.6l3.8,12.9
	c4.2,13.8,16.8,23.3,31.2,23.4l265.8,0.4L261.8,59.4z"/>
<path class="svg-stroke" d="M138,362.5c-40.4,0-72.8-31.1-73.6-70.8c0-6.8,5.5-12.3,12.3-12.3c6.6,0,12.1,5.2,12.3,11.8
	c0.6,26.2,22.1,46.7,49,46.7c14.2,0,27.7-6.2,37-16.9c4.5-5.1,12.2-5.7,17.4-1.2c5.1,4.5,5.7,12.2,1.2,17.4
	C179.6,353.3,159.3,362.5,138,362.5z"/>
<path class="svg-fill" d="M183.4,96l57.8,194.5l102.1,0.1L268.8,40.1L183.4,96z"/>
<path class="svg-stroke" d="M343.4,302.9L343.4,302.9l-102.1-0.1c-5.4,0-10.2-3.6-11.8-8.8L171.6,99.5c-1.6-5.2,0.5-10.8,5.1-13.8
	l85.4-55.9c5.7-3.7,13.3-2.1,17,3.6c0.7,1,1.2,2.1,1.5,3.2l74.5,250.6c1.9,6.5-1.8,13.4-8.3,15.3
	C345.7,302.7,344.5,302.9,343.4,302.9L343.4,302.9z M250.5,278.2l76.4,0.1L261.8,59.4l-63.9,41.8L250.5,278.2z"/>
<path class="svg-stroke" d="M351.8,330.6c-5.4,0-10.2-3.6-11.8-8.8L249,15.8c-2.1-6.5,1.3-13.4,7.8-15.6c6.5-2.1,13.4,1.3,15.6,7.8
	c0.1,0.3,0.2,0.5,0.2,0.8l91,305.9c1.9,6.5-1.8,13.4-8.3,15.3c0,0,0,0,0,0C354.2,330.4,353,330.6,351.8,330.6L351.8,330.6z"/>
<path class="svg-stroke" d="M338,91.7c-6.8,0-12.3-5.5-12.3-12.3c0-1.8,0.4-3.6,1.2-5.3l13.4-28.5c2.9-6.2,10.2-8.8,16.4-5.9
	c6.2,2.9,8.8,10.2,5.9,16.4l0,0l-13.4,28.5C347.1,88.9,342.8,91.7,338,91.7z"/>
<path class="svg-stroke" d="M366.2,156.6c-6.8,0-12.3-5.5-12.3-12.3c0-5.7,3.9-10.6,9.4-12l31.1-7.5c6.6-1.5,13.2,2.6,14.7,9.3
	c1.5,6.5-2.5,13-9,14.7l-31.2,7.4C368.1,156.5,367.1,156.6,366.2,156.6L366.2,156.6z"/>
<path class="svg-stroke" d="M395.3,246.6c-2.7,0-5.4-0.9-7.5-2.6l-24.9-19.4c-5.4-4.2-6.3-11.9-2.2-17.3s11.9-6.3,17.3-2.2l24.9,19.4
	c5.4,4.2,6.3,11.9,2.1,17.3C402.7,244.8,399.1,246.5,395.3,246.6L395.3,246.6z"/>
</svg>
