<?xml version="1.0" encoding="utf-8"?>
<!-- Generator: Adobe Illustrator 24.0.1, SVG Export Plug-In . SVG Version: 6.00 Build 0)  -->
<svg version="1.1" id="Layer_1" xmlns="http://www.w3.org/2000/svg" xmlns:xlink="http://www.w3.org/1999/xlink" x="0px" y="0px"
	 viewBox="0 0 337.8 409.6" style="enable-background:new 0 0 337.8 409.6;" xml:space="preserve">
<title>paint-roller</title>
<path class="svg-fill" d="M239.8,157h-185c-23.8,0-43.1-19.3-43.1-43.1c0,0,0,0,0,0V54.8c0-23.8,19.3-43.1,43.1-43.1h185
	c23.8,0,43.1,19.3,43.2,43.1c0,0,0,0,0,0v59.1C282.9,137.7,263.6,157,239.8,157L239.8,157z"/>
<path class="svg-stroke" d="M239.8,168.6h-185C24.5,168.6,0,144.1,0,113.8V54.8C0,24.5,24.5,0,54.8,0h185c30.2,0,54.7,24.5,54.8,54.8v59.1
	C294.5,144.1,270,168.6,239.8,168.6L239.8,168.6z M54.8,23.2c-17.4,0-31.5,14.1-31.5,31.5v59.1c0,17.4,14.1,31.5,31.5,31.5h185
	c17.4,0,31.5-14.1,31.5-31.5V54.8c0-17.4-14.1-31.5-31.5-31.5L54.8,23.2z"/>
<path class="svg-stroke" d="M147.3,302.7c-6.4,0-11.6-5.2-11.6-11.6v-47.5c0-21.7,17.6-39.2,39.3-39.3h123.6c8.8,0,16-7.2,16-16V112
	c0-8.8-7.2-16-16-16h-14.2c-6.4,0-11.6-5.2-11.6-11.6c0-6.4,5.2-11.6,11.6-11.6h14.2c21.7,0,39.2,17.6,39.3,39.2v76.4
	c0,21.7-17.6,39.2-39.3,39.2H174.9c-8.8,0-16,7.2-16,16v47.5C158.9,297.5,153.7,302.7,147.3,302.7L147.3,302.7z"/>
<path class="svg-stroke" d="M160.6,409.6h-26.7c-16.3,0-29.6-13.3-29.6-29.6v-17.6c0-6.4,5.2-11.6,11.6-11.6c6.4,0,11.6,5.2,11.6,11.6
	c0,0,0,0,0,0V380c0,3.5,2.9,6.4,6.4,6.4h26.7c3.5,0,6.4-2.9,6.4-6.4v-68.6c0-3.5-2.9-6.4-6.4-6.4h-26.7c-3.5,0-6.4,2.9-6.4,6.4v2.9
	c0,6.4-5.2,11.6-11.6,11.6c-6.4,0-11.6-5.2-11.6-11.6v-2.9c0-16.4,13.3-29.6,29.6-29.6h26.7c16.3,0,29.6,13.3,29.6,29.6V380
	C190.2,396.3,177,409.6,160.6,409.6L160.6,409.6z"/>
</svg>
