<?xml version="1.0" encoding="utf-8"?>
<!-- Generator: Adobe Illustrator 24.0.1, SVG Export Plug-In . SVG Version: 6.00 Build 0)  -->
<svg version="1.1" id="Layer_1" xmlns="http://www.w3.org/2000/svg" xmlns:xlink="http://www.w3.org/1999/xlink" x="0px" y="0px"
	 viewBox="0 0 512 512" style="enable-background:new 0 0 512 512;" xml:space="preserve">
<title>paper-plane</title>
<path class="svg-stroke" d="M289,512c-5.3,0-10.3-2.8-13-7.4l-54.4-91.2c-4.3-7.2-1.9-16.5,5.3-20.7s16.5-1.9,20.7,5.3l39.3,65.9
	L467.9,44.1L48.2,225.2l146.1,87.2c7.2,4.3,9.5,13.6,5.3,20.7c-4.3,7.2-13.6,9.5-20.7,5.3L7.4,236c-7.2-4.3-9.5-13.5-5.2-20.7
	c1.6-2.7,4.1-4.9,7-6.1L490.9,1.2c7.7-3.3,16.6,0.2,19.9,7.9c1.6,3.8,1.6,8.2,0,12L302.9,502.9c-2.2,5.2-7.2,8.7-12.9,9.1H289z"/>
<polygon class="svg-fill" points="496.9,15.1 15.1,223 186.6,325.4 "/>
<path class="svg-stroke" d="M186.6,340.5c-2.7,0-5.4-0.7-7.7-2.1L7.4,236c-7.2-4.3-9.5-13.5-5.2-20.7c1.6-2.7,4.1-4.9,7-6.1L490.9,1.2
	c7.7-3.3,16.6,0.2,19.9,7.9c2.5,5.7,1.2,12.3-3.2,16.7L197.3,336.1C194.5,338.9,190.6,340.5,186.6,340.5z M48.2,225.2l136,81.2
	L430.4,60.3L48.2,225.2z"/>
</svg>
