<?xml version="1.0" encoding="utf-8"?>
<!-- Generator: Adobe Illustrator 24.0.1, SVG Export Plug-In . SVG Version: 6.00 Build 0)  -->
<svg version="1.1" id="Layer_1" xmlns="http://www.w3.org/2000/svg" xmlns:xlink="http://www.w3.org/1999/xlink" x="0px" y="0px"
	 viewBox="0 0 409.6 391.6" style="enable-background:new 0 0 409.6 391.6;" xml:space="preserve">
<title>photo-camera</title>
<path class="svg-fill" d="M100.3,69.1V34.9c0-12.9,10.4-23.3,23.3-23.3H286c12.9,0,23.3,10.4,23.3,23.3v34.2"/>
<path class="svg-stroke" d="M309.2,80.8c-6.4,0-11.6-5.2-11.6-11.6c0,0,0,0,0,0V34.9c0-6.4-5.2-11.6-11.6-11.6H123.7
	c-6.4,0-11.6,5.2-11.7,11.6v34.2c0.2,6.4-4.9,11.8-11.3,12s-11.8-4.9-12-11.3c0-0.2,0-0.5,0-0.7V34.9C88.7,15.7,104.4,0,123.7,0H286
	c19.3,0,34.9,15.7,34.9,34.9v34.2C320.9,75.5,315.7,80.8,309.2,80.8C309.3,80.8,309.3,80.8,309.2,80.8L309.2,80.8z"/>
<path class="svg-stroke" d="M351.4,391.6H58.2C26.1,391.6,0,365.6,0,333.5v-217c0-32.1,26-58.2,58.2-58.2h293.3c32.1,0,58.1,26.1,58.2,58.2
	v217C409.6,365.6,383.5,391.6,351.4,391.6z M58.2,81.5c-19.2,0-34.8,15.6-34.9,34.9v217c0,19.2,15.6,34.8,34.9,34.9h293.3
	c19.2,0,34.8-15.6,34.9-34.9v-217c0-19.2-15.6-34.8-34.9-34.9L58.2,81.5z"/>
<path class="svg-fill" d="M304.6,231.8c0,55.1-44.7,99.8-99.8,99.8S105,286.9,105,231.8c0-55.1,44.7-99.8,99.8-99.8
	C259.9,132,304.6,176.7,304.6,231.8C304.6,231.8,304.6,231.8,304.6,231.8L304.6,231.8z"/>
<path class="svg-stroke" d="M204.8,343.2c-61.5,0-111.4-49.9-111.4-111.4c0-61.5,49.9-111.4,111.4-111.4c61.5,0,111.4,49.9,111.4,111.4
	c0,0,0,0,0,0C316.2,293.3,266.3,343.2,204.8,343.2z M204.8,143.7c-48.7,0-88.1,39.5-88.1,88.1s39.5,88.1,88.1,88.1
	s88.1-39.5,88.1-88.1l0,0C292.9,183.1,253.5,143.7,204.8,143.7z"/>
<path class="svg-stroke" d="M204.8,286.5c-30.2,0-54.8-24.5-54.8-54.8s24.5-54.8,54.8-54.8c6.4,0,11.7,5.2,11.7,11.6
	c0,6.4-5.2,11.7-11.7,11.7c-17.4,0-31.5,14.1-31.5,31.4s14.1,31.5,31.4,31.5s31.5-14.1,31.5-31.4c0,0,0,0,0,0
	c0-6.4,5.2-11.6,11.7-11.6c6.4,0,11.6,5.2,11.6,11.6C259.5,262,235,286.5,204.8,286.5L204.8,286.5z"/>
<path class="svg-stroke" d="M344.6,128.1H298c-6.4,0.2-11.8-4.9-12-11.3c-0.2-6.4,4.9-11.8,11.3-12c0.2,0,0.5,0,0.7,0h46.6
	c6.4-0.2,11.8,4.9,12,11.3c0.2,6.4-4.9,11.8-11.3,12C345,128.1,344.8,128.1,344.6,128.1L344.6,128.1z"/>
</svg>
