<?xml version="1.0" encoding="utf-8"?>
<!-- Generator: Adobe Illustrator 24.0.1, SVG Export Plug-In . SVG Version: 6.00 Build 0)  -->
<svg version="1.1" id="Layer_1" xmlns="http://www.w3.org/2000/svg" xmlns:xlink="http://www.w3.org/1999/xlink" x="0px" y="0px"
	 viewBox="0 0 512 412.3" style="enable-background:new 0 0 512 412.3;" xml:space="preserve">
<title>picture</title>
<circle class="svg-fill" cx="316.6" cy="102.2" r="51.5"/>
<path class="svg-stroke" d="M316.6,167.9c-36.3,0-65.7-29.4-65.7-65.7s29.4-65.7,65.7-65.7s65.7,29.4,65.7,65.7
	C382.3,138.5,352.9,167.9,316.6,167.9z M316.6,65c-20.6,0-37.2,16.7-37.2,37.2s16.7,37.2,37.2,37.2s37.2-16.7,37.2-37.2c0,0,0,0,0,0
	C353.8,81.7,337.2,65,316.6,65L316.6,65z"/>
<polygon class="svg-fill" points="319,397.1 192.9,164.3 38.3,397.1 "/>
<path class="svg-stroke" d="M319,411.3H38.3c-7.9,0-14.2-6.4-14.2-14.2c0-2.8,0.8-5.5,2.4-7.9L181,156.4c4.3-6.5,13.2-8.3,19.7-4
	c1.9,1.3,3.5,3,4.6,5.1l126.2,232.8c3.7,6.9,1.2,15.5-5.7,19.3C323.7,410.7,321.4,411.3,319,411.3L319,411.3z M64.8,382.9h230.3
	l-103.5-191L64.8,382.9z"/>
<polygon class="svg-fill" points="473.7,397.1 347.6,243 221.4,397.1 "/>
<path class="svg-stroke" d="M473.7,411.3H221.4c-7.9,0-14.2-6.4-14.2-14.2c0-3.3,1.1-6.5,3.2-9L336.6,234c5-6.1,13.9-7,20-2
	c0.7,0.6,1.4,1.3,2,2l126.2,154.1c5,6.1,4.1,15-2,20C480.2,410.2,477,411.3,473.7,411.3z M251.5,382.9h192.2l-96.1-117.4
	L251.5,382.9z"/>
<path class="svg-stroke" d="M472.8,412.3H39.2C17.6,412.2,0,394.7,0,373.1V39.2C0,17.6,17.6,0,39.2,0h433.6C494.4,0,512,17.6,512,39.2
	v333.9C512,394.7,494.4,412.2,472.8,412.3z M39.2,28.5c-5.9,0-10.7,4.8-10.8,10.8v333.9c0,5.9,4.8,10.7,10.8,10.7h433.6
	c5.9,0,10.7-4.8,10.8-10.7V39.2c0-5.9-4.8-10.7-10.8-10.8H39.2z"/>
<path class="svg-stroke" d="M123.7,87.6H14.2c-7.9,0.2-14.4-6-14.6-13.8s6-14.4,13.8-14.6c0.3,0,0.5,0,0.8,0h109.5
	c7.9-0.2,14.4,6,14.6,13.8c0.2,7.9-6,14.4-13.8,14.6C124.2,87.6,123.9,87.6,123.7,87.6z"/>
<path class="svg-stroke" d="M96.7,145.4H14.2c-7.9,0-14.2-6.4-14.2-14.2c0-7.9,6.4-14.2,14.2-14.2h82.4c7.9,0,14.2,6.4,14.2,14.2
	C110.9,139.1,104.5,145.4,96.7,145.4z"/>
</svg>
