<?xml version="1.0" encoding="utf-8"?>
<!-- Generator: Adobe Illustrator 24.0.1, SVG Export Plug-In . SVG Version: 6.00 Build 0)  -->
<svg version="1.1" id="Layer_1" xmlns="http://www.w3.org/2000/svg" xmlns:xlink="http://www.w3.org/1999/xlink" x="0px" y="0px"
	 viewBox="0 0 512 512" style="enable-background:new 0 0 512 512;" xml:space="preserve">

<circle class="svg-fill" cx="339.5" cy="247.2" r="43.7"/>
<path class="svg-stroke" d="M339.5,304.6c-31.6,0-57.4-25.7-57.4-57.4s25.7-57.4,57.4-57.4s57.4,25.7,57.4,57.4
	C396.9,278.9,371.2,304.6,339.5,304.6z M339.5,217.1c-16.6,0-30.1,13.5-30.1,30.1s13.5,30.1,30.1,30.1s30.1-13.5,30.1-30.1
	S356.1,217.1,339.5,217.1z"/>
<polygon class="svg-fill" points="346.4,443.4 239.2,269.7 107.9,443.4 "/>
<path class="svg-stroke" d="M346.4,457H107.9c-5.2,0-9.9-2.9-12.2-7.6c-2.3-4.6-1.8-10.2,1.3-14.3l131.4-173.6c2.7-3.6,7-5.6,11.5-5.4
	c4.5,0.2,8.6,2.6,11,6.5l107.2,173.6c2.6,4.2,2.7,9.5,0.3,13.8C356,454.3,351.4,457,346.4,457z M135.3,429.7H322l-83.9-135.8
	L135.3,429.7z"/>
<polygon class="svg-fill" points="477.9,443.4 370.7,324.5 263.5,443.4 "/>
<path class="svg-stroke" d="M477.9,457H263.5c-5.4,0-10.3-3.2-12.5-8.1c-2.2-4.9-1.3-10.7,2.3-14.7l107.2-118.9c2.6-2.9,6.3-4.5,10.1-4.5
	s7.6,1.6,10.1,4.5L488,434.2c3.6,4,4.5,9.8,2.3,14.7C488.2,453.8,483.3,457,477.9,457z M294.2,429.7h153l-76.5-84.8L294.2,429.7z"/>
<path class="svg-stroke" d="M477.1,457.5H108.6c-19.2,0-34.9-15.6-34.9-34.9V163.1c0-19.2,15.6-34.9,34.9-34.9h368.5
	c19.2,0,34.9,15.6,34.9,34.9v193.4c0,7.5-6.1,13.7-13.7,13.7s-13.7-6.1-13.7-13.7V163.1c0-4.2-3.4-7.6-7.6-7.6H108.6
	c-4.2,0-7.6,3.4-7.6,7.6v259.5c0,4.2,3.4,7.6,7.6,7.6h368.5c7.5,0,13.7,6.1,13.7,13.7S484.7,457.5,477.1,457.5z"/>
<path class="svg-fill" d="M87.4,163.1c0-11.7,9.5-21.2,21.2-21.2h315.9V89.3c0-11.7-9.5-21.2-21.2-21.2H34.9c-11.7,0-21.2,9.5-21.2,21.2
	v259.5c0,11.7,9.5,21.2,21.2,21.2h52.5V163.1L87.4,163.1z"/>
<path class="svg-stroke" d="M403.4,54.5H34.9C15.6,54.5,0,70.1,0,89.3v259.5c0,19.2,15.6,34.9,34.9,34.9h52.5c7.5,0,13.7-6.1,13.7-13.7V255
	h56.4c7.5,0,13.7-6.1,13.7-13.7c0-7.5-6.1-13.7-13.7-13.7h-56.4v-21.9h79.4c7.5,0,13.7-6.1,13.7-13.7c0-7.5-6.1-13.7-13.7-13.7
	h-79.4v-15.4c0-4.2,3.4-7.6,7.6-7.6h315.9c7.5,0,13.7-6.1,13.7-13.7V89.3C438.2,70.1,422.6,54.5,403.4,54.5z M410.9,128.2H108.6
	c-19.2,0-34.9,15.6-34.9,34.9v29c0,0,0,0,0,0s0,0,0,0v49.1c0,0,0,0,0,0s0,0,0,0v115.1H34.9c-4.2,0-7.6-3.4-7.6-7.6V89.3
	c0-4.2,3.4-7.6,7.6-7.6v0h368.5c4.2,0,7.6,3.4,7.6,7.6V128.2z"/>
</svg>
