<?xml version="1.0" encoding="utf-8"?>
<!-- Generator: Adobe Illustrator 24.0.1, SVG Export Plug-In . SVG Version: 6.00 Build 0)  -->
<svg version="1.1" id="Layer_1" xmlns="http://www.w3.org/2000/svg" xmlns:xlink="http://www.w3.org/1999/xlink" x="0px" y="0px"
	 viewBox="0 0 512 512" style="enable-background:new 0 0 512 512;" xml:space="preserve">
<title>pie-chart</title>
<path class="svg-fill" d="M438.3,285.5H226.2l137.4,161.4C411.1,406.7,438.4,347.6,438.3,285.5z"/>
<path class="svg-stroke" d="M453,285.5c0-8.1-6.6-14.7-14.7-14.7H241v-197c0-8.1-6.6-14.7-14.7-14.8c0,0,0,0-0.1,0l0,0
	C101.5,59.1,0,160.8,0,285.5C0,410.4,101.6,512,226.5,512c53.7,0,105.7-19.1,146.7-53.9l0,0C423.9,415,453,351.9,453,285.5z
	 M29.4,285.5c0-103.5,80.4-188.8,182-196.5v181.7H108.7c-8.1,0.2-14.6,7-14.4,15.1c0.2,7.8,6.5,14.1,14.4,14.4h110.8l123.1,144.5
	c-33.7,24.5-74.3,37.8-116,37.8C117.9,482.5,29.5,394.1,29.4,285.5L29.4,285.5z M365,425.7L258.1,300.2H423
	C419.5,347.7,398.9,392.2,365,425.7z"/>
<path class="svg-stroke" d="M492.2,134l-1.1-2.5c-11.1-23.9-26.2-45.7-44.8-64.4l-2.6-2.6c-18.9-18.5-40.8-33.5-64.9-44.5l-2.3-1
	C347.8,6.5,316.8,0,285.5,0H285c-8.1,0.1-14.5,6.7-14.5,14.7v211.8c0,8.1,6.6,14.7,14.7,14.7h105.5c0.5,0,1,0,1.5-0.1h0.1
	c0.5,0,0.9-0.1,1.3-0.2l0.4-0.1c0.4-0.1,0.7-0.2,1-0.3l0.4-0.1c0.3-0.1,0.6-0.2,1-0.4c0.1-0.1,0.2-0.1,0.4-0.2
	c0.3-0.1,0.6-0.3,0.9-0.4l0.3-0.2c0.3-0.2,0.6-0.4,0.9-0.6l0.3-0.2c0.3-0.2,0.6-0.4,0.9-0.6l0.2-0.2c0.3-0.2,0.5-0.5,0.8-0.7
	l71.6-71.6c6.5,19.7,9.7,40.4,9.7,61.2c-0.2,8.1,6.2,14.9,14.4,15.1s14.9-6.2,15.1-14.4c0-0.3,0-0.5,0-0.8
	C512,194.6,505.3,163.1,492.2,134z M299.9,125.6l74.8-74.8c13.9,7.1,26.9,15.8,38.7,25.9L299.9,190.3V125.6L299.9,125.6z
	 M345.2,38.7L299.9,84V30C315.3,31.1,330.5,34,345.2,38.7L345.2,38.7z M384.7,211.7h-64.6L434.3,97.5c10.2,11.8,19,24.7,26.1,38.5
	L384.7,211.7z"/>
</svg>
