<?xml version="1.0" encoding="utf-8"?>
<!-- Generator: Adobe Illustrator 24.0.1, SVG Export Plug-In . SVG Version: 6.00 Build 0)  -->
<svg version="1.1" id="Layer_1" xmlns="http://www.w3.org/2000/svg" xmlns:xlink="http://www.w3.org/1999/xlink" x="0px" y="0px"
	 viewBox="0 0 408.1 409.6" style="enable-background:new 0 0 408.1 409.6;" xml:space="preserve">
<title>pie-chart-2</title>
<path class="svg-stroke" d="M396.3,192.3h-33.4c-6.4,0-11.6-5.2-11.6-11.6c0-6.4,5.2-11.6,11.6-11.6h19.7C363.2,71.1,268.1,7.3,170.1,26.6
	c-4.2,0.8-8.4,1.8-12.6,2.9l77.6,139.5h72c6.4,0,11.6,5.2,11.6,11.6c0,6.4-5.2,11.6-11.6,11.6h-78.9c-4.2,0-8.1-2.3-10.1-6
	L130.2,28.2c-3.1-5.6-1.1-12.6,4.5-15.7c0.7-0.4,1.5-0.7,2.3-1l8.1-2.5c107.8-33.1,222,27.4,255.1,135.2c2.7,8.7,4.8,17.6,6.3,26.6
	l1.3,8c1.1,6.3-3.2,12.3-9.5,13.3C397.6,192.3,397,192.3,396.3,192.3L396.3,192.3z"/>
<path class="svg-stroke" d="M204.6,409.6c-20.4-0.1-40.6-3.2-60.1-9.2l-8.1-2.5c-6.1-1.9-9.6-8.4-7.7-14.5c0.2-0.8,0.6-1.5,1-2.2
	l88.4-158.3c2.1-3.7,5.9-5.9,10.1-5.9h33.2c6.4,0.2,11.4,5.5,11.2,11.9c-0.2,6.1-5.1,11.1-11.2,11.2h-26.4L157,379.9
	c96.8,26.3,196.6-30.9,222.9-127.8c1.1-4,2-8,2.8-12h-65.4c-6.4,0.2-11.7-4.8-11.9-11.2c-0.2-6.4,4.8-11.7,11.2-11.9
	c0.2,0,0.5,0,0.7,0h79.1c6.4,0,11.6,5.2,11.6,11.6c0,0.6-0.1,1.3-0.2,1.9l-1.3,7.9C390,337,304.7,409.4,204.6,409.6L204.6,409.6z"/>
<path class="svg-fill" d="M93,361.8C6,300.1-14.5,179.6,47.1,92.6c12.7-17.9,28.4-33.5,46.3-46.2l6.2-4.4l90,161.7L99.2,366.2L93,361.8z"
	/>
<path class="svg-stroke" d="M99.2,377.8c-2.4,0-4.7-0.7-6.7-2.1l-6.2-4.4c-92.2-65.4-114-193.1-48.6-285.3c13.5-19,30-35.5,49.1-48.9
	l6.2-4.4c5.2-3.7,12.4-2.4,16.1,2.8c0.2,0.3,0.5,0.7,0.7,1.1l90,161.7c1.9,3.5,1.9,7.8,0,11.3l-90.4,162.4c-1.6,2.9-4.3,4.9-7.6,5.7
	C101,377.7,100.1,377.8,99.2,377.8z M95.8,59C15.6,119.1-0.7,232.9,59.4,313.1c10.2,13.7,22.4,25.8,36,36.1l81-145.4L95.8,59z"/>
</svg>
