<?xml version="1.0" encoding="utf-8"?>
<!-- Generator: Adobe Illustrator 24.0.1, SVG Export Plug-In . SVG Version: 6.00 Build 0)  -->
<svg version="1.1" id="Layer_1" xmlns="http://www.w3.org/2000/svg" xmlns:xlink="http://www.w3.org/1999/xlink" x="0px" y="0px"
	 viewBox="0 0 382.7 512" style="enable-background:new 0 0 382.7 512;" xml:space="preserve">
<title>pin-2</title>
<circle class="svg-fill" cx="191.4" cy="192" r="106.2"/>
<path class="svg-stroke" d="M191.4,312.6c-66.6,0-120.6-54-120.6-120.6s54-120.6,120.6-120.6C258,71.4,312,125.4,312,192
	C311.9,258.6,257.9,312.5,191.4,312.6z M191.4,100.1c-50.7,0-91.9,41.1-91.9,91.9s41.1,91.9,91.9,91.9c50.7,0,91.9-41.1,91.9-91.9
	C283.2,141.3,242.1,100.2,191.4,100.1z"/>
<path class="svg-stroke" d="M191.4,512c-3.6,0-7.1-1.3-9.7-3.8c-1.8-1.7-45.7-42.2-90.2-101.2C30.8,326.7,0,254.1,0,191.4
	c-0.1-29.6,6.8-58.9,20-85.4c3.4-7.2,11.9-10.3,19.1-6.9S49.4,111,46,118.2c-0.1,0.2-0.2,0.4-0.3,0.6c-11.3,22.5-17.1,47.4-17,72.5
	c0,116.8,126.3,250.3,162.7,286.4c11-10.9,30.3-30.6,51.6-56c5.1-6.1,14.2-6.9,20.2-1.8s6.9,14.2,1.8,20.2l0,0
	c-34.3,40.8-62.7,66.9-63.9,68C198.4,510.6,194.9,512,191.4,512z"/>
<path class="svg-stroke" d="M301.5,382.6c-7.9,0-14.4-6.4-14.3-14.4c0-2.9,0.9-5.6,2.4-8c42.7-63.3,64.4-120.2,64.4-168.9
	c0-89.7-73-162.6-162.6-162.6c-34.6-0.1-68.3,10.9-96.2,31.5c-6.4,4.7-15.4,3.3-20.1-3.1S71.8,41.7,78.2,37l0,0
	C111,12.9,150.6-0.1,191.4,0c105.5,0,191.4,85.8,191.4,191.4c0,54.5-23.3,116.8-69.2,184.9C310.8,380.2,306.3,382.6,301.5,382.6z"/>
<path class="svg-stroke" d="M183.6,235.1c-3.8,0-7.5-1.5-10.1-4.2l-38.9-38.9c-5.6-5.6-5.6-14.7,0-20.3s14.7-5.6,20.3,0l28.8,28.8
	l44.4-44.4c5.7-5.5,14.8-5.4,20.3,0.4c5.4,5.6,5.4,14.4,0,19.9l-54.5,54.5C191,233.5,187.4,235.1,183.6,235.1z"/>
</svg>
