<?xml version="1.0" encoding="utf-8"?>
<!-- Generator: Adobe Illustrator 24.0.1, SVG Export Plug-In . SVG Version: 6.00 Build 0)  -->
<svg version="1.1" id="Layer_1" xmlns="http://www.w3.org/2000/svg" xmlns:xlink="http://www.w3.org/1999/xlink" x="0px" y="0px"
	 viewBox="0 0 386.7 512" style="enable-background:new 0 0 386.7 512;" xml:space="preserve">
<title>pin</title>
<circle class="svg-fill" cx="193.4" cy="193.4" r="96.8"/>
<path class="svg-stroke" d="M193.4,304.5c-61.4,0-111.1-49.7-111.1-111.1S132,82.2,193.3,82.2S304.5,132,304.5,193.3c0,0,0,0,0,0
	C304.4,254.7,254.7,304.4,193.4,304.5z M193.4,110.9c-45.5,0-82.4,36.9-82.4,82.4s36.9,82.4,82.4,82.4s82.4-36.9,82.4-82.4
	C275.7,147.9,238.8,111,193.4,110.9L193.4,110.9z"/>
<path class="svg-stroke" d="M193.4,0C86.7,0,0,86.7,0,193.4c0,69.7,37.6,134,98.3,168.3l82.7,143.2c4,6.9,12.8,9.2,19.6,5.2
	c2.2-1.3,4-3.1,5.2-5.2l84-145.5c4.4-6.6,2.7-15.5-3.9-19.9c-6.6-4.4-15.5-2.7-19.9,3.9c-0.4,0.5-0.7,1.1-1,1.7l-71.6,124
	l-51.5-89.2c16.8,4.6,34.1,7,51.5,7c7.9,0,14.4-6.4,14.4-14.4s-6.4-14.4-14.4-14.4c-90.8,0-164.7-73.9-164.7-164.7
	S102.6,28.7,193.4,28.7S358,102.6,358,193.4c0,40.8-15.1,80.2-42.5,110.4c-5.5,5.7-5.4,14.8,0.3,20.3s14.8,5.4,20.3-0.3
	c0.2-0.2,0.5-0.5,0.7-0.8c32.2-35.5,50-81.7,49.9-129.6C386.7,86.7,300,0,193.4,0z"/>
</svg>
