<?xml version="1.0" encoding="utf-8"?>
<!-- Generator: Adobe Illustrator 24.0.1, SVG Export Plug-In . SVG Version: 6.00 Build 0)  -->
<svg version="1.1" id="Layer_1" xmlns="http://www.w3.org/2000/svg" xmlns:xlink="http://www.w3.org/1999/xlink" x="0px" y="0px"
	 viewBox="0 0 339.7 512" style="enable-background:new 0 0 339.7 512;" xml:space="preserve">
<title>price-tag</title>
<path class="svg-fill" d="M240.1,60.2H99.7L15.8,176.8v194.8h308.1V176.8L240.1,60.2z M169.9,211.5c-27.5,0-49.8-22.3-49.8-49.9
	c0-27.5,22.3-49.8,49.9-49.8c27.5,0,49.8,22.3,49.8,49.9l0,0C219.7,189.2,197.4,211.5,169.9,211.5
	C169.9,211.5,169.9,211.5,169.9,211.5z"/>
<path class="svg-stroke" d="M323.9,387.4c8.7,0,15.8-7.1,15.8-15.8V176.8c0-3.3-1.1-6.5-3-9.2L252.9,51c-3-4.1-7.7-6.6-12.8-6.6h-54.4V15.8
	c0-8.7-7.1-15.8-15.8-15.8s-15.8,7.1-15.8,15.8v28.6H99.7c-5.1,0-9.9,2.5-12.8,6.6L3,167.6c-1.9,2.7-3,5.9-3,9.2v319.4
	c0,8.7,7.1,15.8,15.8,15.8h308.1c8.7,0,15.8-7.1,15.8-15.8v-38.8c0-8.7-7.1-15.8-15.8-15.8c-8.7,0-15.8,7.1-15.8,15.8v23H31.6v-93
	L323.9,387.4z M31.6,181.9L107.8,76h46.3v22c-35.2,8.7-56.6,44.3-47.9,79.5s44.3,56.6,79.5,47.9c35.2-8.7,56.6-44.3,47.9-79.5
	c-5.9-23.6-24.3-42.1-47.9-47.9V76H232l76.1,105.9v173.9H31.6V181.9z M169.9,127.6c18.8,0,34,15.2,34,34s-15.2,34-34,34
	s-34-15.2-34-34l0,0C135.9,142.9,151.1,127.7,169.9,127.6L169.9,127.6z"/>
</svg>
