<?xml version="1.0" encoding="utf-8"?>
<!-- Generator: Adobe Illustrator 24.0.1, SVG Export Plug-In . SVG Version: 6.00 Build 0)  -->
<svg version="1.1" id="Layer_1" xmlns="http://www.w3.org/2000/svg" xmlns:xlink="http://www.w3.org/1999/xlink" x="0px" y="0px"
	 viewBox="0 0 409.6 404.3" style="enable-background:new 0 0 409.6 404.3;" xml:space="preserve">
<title>printer</title>
<path class="svg-fill" d="M378.8,88.8h-55.1v75.8c0,10.5-8.5,18.9-19,18.9h-200c-10.5,0-19-8.5-19-18.9V88.8h-55
	c-10.5,0-18.9,8.5-19,18.9c0,0,0,0,0,0.1v185.9c0,10.5,8.5,18.9,18.9,19c0,0,0,0,0.1,0h348c10.5,0,18.9-8.5,19-19V107.8
	C397.8,97.3,389.3,88.8,378.8,88.8L378.8,88.8z"/>
<path class="svg-stroke" d="M409.6,226c0-0.1,0-0.1,0-0.2v-118c0-17-13.8-30.8-30.8-30.8h-43.2V30.8c0-17-13.8-30.8-30.8-30.8H149.2
	c-8.2,0-16,3.2-21.8,9L83,53.6c-5.8,5.8-9,13.6-9,21.7V77H30.8C13.8,77,0,90.8,0,107.8v118c0,0.1,0,0.1,0,0.2c0,0.1,0,0.1,0,0.2
	v67.5c0,17,13.8,30.8,30.8,30.8h281.1v49c0,3.9-3.2,7.1-7.1,7.1h-200c-3.9,0-7.1-3.2-7.1-7.1v-13.9c0-6.5-5.3-11.8-11.8-11.8
	c-6.5,0-11.8,5.3-11.8,11.8v13.9c0,17,13.8,30.8,30.8,30.8h200c17,0,30.8-13.8,30.8-30.8v-49h43.2c17,0,30.8-13.8,30.8-30.8v-67.5
	C409.6,226.1,409.6,226,409.6,226z M97.7,75.3c0-1.9,0.7-3.7,2.1-5l44.4-44.5c1.3-1.3,3.1-2.1,5-2.1h155.6c3.9,0,7.1,3.2,7.1,7.1v58
	v75.8c0,3.9-3.2,7.1-7.1,7.1h-200c-3.9,0-7.1-3.2-7.1-7.1V88.8V75.3z M378.8,300.8h-348c-3.9,0-7.1-3.2-7.1-7.1v-55.9h50.2
	c0,0,0,0,0,0c6.5,0,11.8-5.3,11.8-11.8c0-6.5-5.3-11.8-11.8-11.8H23.7V107.8c0-3.9,3.2-7.1,7.1-7.1l43.2,0v64
	c0,17,13.8,30.8,30.8,30.8h200c17,0,30.8-13.8,30.8-30.8v0v-64h43.2c3.9,0,7.1,3.2,7.1,7.1v106.4h-50.2c-6.5,0-11.8,5.3-11.8,11.8
	c0,6.5,5.3,11.8,11.8,11.8h50.2v55.9C385.9,297.6,382.7,300.8,378.8,300.8z"/>
</svg>
