<?xml version="1.0" encoding="utf-8"?>
<!-- Generator: Adobe Illustrator 24.0.1, SVG Export Plug-In . SVG Version: 6.00 Build 0)  -->
<svg version="1.1" id="Layer_1" xmlns="http://www.w3.org/2000/svg" xmlns:xlink="http://www.w3.org/1999/xlink" x="0px" y="0px"
	 viewBox="0 0 346.9 409.6" style="enable-background:new 0 0 346.9 409.6;" xml:space="preserve">
<title>puzzle</title>
<path class="svg-fill" d="M130.2,398.9c23-1.6,40.3-21.6,38.7-44.6c-0.7-9.2-4.3-17.9-10.4-24.8c-4.8-5.5-7.6-12.4-8.1-19.6H104
	c-0.5,7.3-3.3,14.3-8.1,19.8c-15.2,17.4-13.4,43.7,3.9,58.9C108.2,396,119.1,399.7,130.2,398.9L130.2,398.9z"/>
<path class="svg-fill" d="M124.3,10.7c-23,1.6-40.3,21.6-38.7,44.6C86.3,64.5,90,73.2,96.1,80c4.8,5.5,7.6,12.4,8,19.6h46.4
	c0.5-7.3,3.3-14.3,8.1-19.8c15.2-17.4,13.4-43.8-4-58.9C146.3,13.6,135.4,9.9,124.3,10.7z"/>
<path class="svg-stroke" d="M346.7,201.1c-1.7-25-21.8-45.8-46.7-48.3c-14.6-1.6-29.3,3.1-40.3,12.9c-1.6,1.4-3.4,2.5-5.3,3.4v-52
	c0-15.5-12.5-28-28-28h-61.6c0.5-0.8,1.1-1.6,1.7-2.3c8.4-9.5,13-21.8,13-34.5c0-28.9-23.4-52.3-52.3-52.3c-1.2,0-2.5,0-3.7,0.1
	c-25,1.7-45.8,21.8-48.3,46.7c-1.6,14.6,3.1,29.3,12.9,40.3c0.6,0.7,1.1,1.3,1.6,2H28c-15.5,0-28,12.5-28,28v58.3
	c0,2.2,0.7,4.4,2,6.2c3.4,4.7,10,5.7,14.8,2.3c1.1-0.8,2.1-1.6,3-2.5c11.8-10.4,29.4-10.5,41.3-0.1c13,11.4,14.3,31.1,2.9,44
	c-11.4,13-31.1,14.3-44,2.9c-1.1-0.9-2.2-1.8-3.3-2.6c-1.8-1.3-3.9-2-6.1-2c-5.8,0-10.6,4.7-10.6,10.5v58.3c0,15.5,12.5,28,28,28
	h61.7c-0.5,0.8-1.1,1.6-1.7,2.3c-8.4,9.5-13,21.8-13,34.5c0,28.9,23.4,52.3,52.3,52.3h0c1.2,0,2.5,0,3.7-0.1
	c25-1.7,45.7-21.8,48.3-46.7c1.6-14.6-3.1-29.3-12.9-40.3c-0.6-0.6-1.1-1.3-1.6-2h61.7v0c15.5,0,28-12.5,28-28V191.2
	c7.1-1.6,13.7-4.9,19.3-9.8c6.6-5.9,15.3-8.7,24.1-7.7c15,1.7,26.6,13.8,27.8,28.8c0.1,0.8,0.1,1.5,0.1,2.3
	c0,17.2-14,31.2-31.2,31.2c-2.5,0-5-0.3-7.5-0.9c-5.5-1.2-10.9,2.1-12.4,7.5c-1.5,5.6,1.8,11.4,7.4,13c4.1,1,8.3,1.5,12.5,1.5v0
	c14.5,0,28.3-6,38.2-16.6C342.8,229.9,347.8,215.6,346.7,201.1z M96.3,49C98,34,110,22.4,125,21.2c0.8-0.1,1.5-0.1,2.2-0.1
	c7.6,0,14.9,2.7,20.5,7.7c13,11.3,14.3,31,2.9,44c-4.1,4.7-7.2,10.2-9,16.2h-28.9c-1.8-5.9-4.8-11.4-8.9-16.1
	C98.1,66.5,95.3,57.7,96.3,49z M158.3,360.7c-1.7,15-13.8,26.6-28.8,27.7c-0.7,0.1-1.5,0.1-2.2,0.1c-7.6,0-14.9-2.7-20.5-7.7
	c-13-11.3-14.3-31-2.9-44c4.1-4.7,7.2-10.2,9-16.2l28.9,0c1.8,5.9,4.8,11.4,8.9,16.1C156.5,343.2,159.3,351.9,158.3,360.7z
	 M233.4,292.5c0,3.8-3.1,6.9-6.9,6.9H28c-3.8,0-6.9-3.1-6.9-6.9v-39.1c20,8,43,2.9,57.7-12.9c10-10.6,15-24.9,13.9-39.4
	c-1.8-25-21.8-45.8-46.7-48.3c-8.5-0.9-17.1,0.3-25,3.5v-39.1c0-3.8,3.1-6.9,6.9-6.9h76.1h46.5h76c3.8,0,6.9,3.1,6.9,6.9V292.5z"/>
</svg>
