<?xml version="1.0" encoding="utf-8"?>
<!-- Generator: Adobe Illustrator 24.0.1, SVG Export Plug-In . SVG Version: 6.00 Build 0)  -->
<svg version="1.1" id="Layer_1" xmlns="http://www.w3.org/2000/svg" xmlns:xlink="http://www.w3.org/1999/xlink" x="0px" y="0px"
	 viewBox="0 0 507.4 512" style="enable-background:new 0 0 507.4 512;" xml:space="preserve">
<title>puzzle-2</title>
<path class="svg-fill" d="M257.9,15.2v65.1c-28.7-15.6-64.7-5-80.3,23.8s-5,64.7,23.8,80.3c17.6,9.6,38.9,9.6,56.6,0v65.1h59.9
	c-8.4-31.6,10.5-64,42.1-72.4c31.6-8.4,64,10.5,72.4,42.1c2.6,9.9,2.6,20.4,0,30.3h59.9V70.7c0-30.7-24.9-55.5-55.5-55.5L257.9,15.2
	z"/>
<path class="svg-stroke" d="M436.7,0h-172h-6.7H70.7C31.7,0,0,31.7,0,70.7v176.7v2.1v191.8c0,39,31.7,70.7,70.7,70.7h188.1
	c8.4,0,15.2-6.8,15.2-15.1V453c5.5,1,11.2,1.3,16.8,1c17.5-0.9,34.2-7.9,47.1-19.9c30.1-28,31.7-75.1,3.7-105.2
	c-23.2-24.8-60.2-30.8-90-14.6c-7.3,4-10.1,13.2-6.1,20.6c4,7.4,13.2,10.1,20.6,6.1c7.4-4,15.7-5.8,24.1-5.2
	c24.3,1.7,42.6,22.8,40.9,47c-1.5,21.8-19.8,39.8-41.7,40.8c-8.1,0.4-16.1-1.4-23.2-5.3c-2.2-1.2-4.7-1.8-7.3-1.8
	c-8.4,0-15.2,6.8-15.2,15.2v49.9H70.7c-22.3,0-40.3-18.1-40.3-40.3V264.6h28.7c-0.5,2.6-0.8,5.2-1,7.8c-2.9,41,28,76.6,69,79.5
	c1.8,0.1,3.6,0.2,5.3,0.2c18.8,0.1,37-7.1,50.7-20c24.8-23.2,30.8-60.1,14.6-89.9c-0.1-0.2-0.2-0.3-0.3-0.5
	c-4.1-7.3-13.4-9.9-20.7-5.7c-7.3,4.1-9.9,13.4-5.7,20.7c4,7.4,5.8,15.8,5.2,24.2c-1.7,24.3-22.8,42.5-47.1,40.8
	c-21.8-1.5-39.8-19.8-40.8-41.7c-0.4-8.1,1.4-16.1,5.2-23.3c1.2-2.2,1.9-4.7,1.9-7.3c0-8.4-6.8-15.2-15.2-15.2H30.4V70.7
	c0-22.3,18.1-40.3,40.3-40.3h172v28.7c-8.7-1.6-17.6-1.6-26.2,0c-40.5,7.2-67.4,45.9-60.1,86.4s45.9,67.4,86.4,60.1v43.9
	c0,8.4,6.8,15.2,15.2,15.2h59.9c1.6,0,3.2-0.3,4.7-0.7c8-2.6,12.3-11.2,9.7-19.2c-0.6-2.5-1-5.1-1.2-7.7
	c-1.5-24.3,16.9-45.2,41.2-46.7c0.9-0.1,1.8-0.1,2.7-0.1c3.8,0,7.6,0.5,11.3,1.5c23.5,6.2,37.5,30.4,31.3,53.9
	c-0.3,1.3-0.5,2.6-0.5,3.9c0,8.4,6.8,15.2,15.2,15.2h59.9c0,0,0,0,0,0c8.4,0,15.2-6.8,15.2-15.2V70.7C507.3,31.7,475.7,0,436.7,0z
	 M477,234.2h-27.5l0,0c0-41.1-33.3-74.4-74.4-74.4c-1.5,0-3,0-4.6,0.1c-36,2.2-65.9,30.9-69.5,66.8c-0.2,2.5-0.4,5-0.4,7.5h-27.5
	v-49.9c0-2.5-0.6-5-1.8-7.3c-4-7.4-13.2-10.1-20.6-6.1c-7.4,4-15.7,5.8-24.1,5.2c-24.3-1.7-42.6-22.8-40.9-47
	c1.5-21.8,19.8-39.8,41.7-40.8c8.1-0.4,16.1,1.4,23.2,5.3c2.2,1.2,4.7,1.8,7.3,1.8c8.4,0,15.2-6.8,15.2-15.2V30.4h163.6
	c22.3,0,40.3,18.1,40.3,40.3V234.2z"/>
</svg>
