<?xml version="1.0" encoding="utf-8"?>
<!-- Generator: Adobe Illustrator 24.0.1, SVG Export Plug-In . SVG Version: 6.00 Build 0)  -->
<svg version="1.1" id="Layer_1" xmlns="http://www.w3.org/2000/svg" xmlns:xlink="http://www.w3.org/1999/xlink" x="0px" y="0px"
	 viewBox="0 0 294.2 409.6" style="enable-background:new 0 0 294.2 409.6;" xml:space="preserve">
<title>rocket</title>
<path class="svg-stroke" d="M31.2,342.9c-2.4,1.7-5.8,1.1-7.5-1.3c-0.6-0.9-1-2-1-3.1v-77.1l68.9-77.2V150L5,247.1c-3.2,3.6-5,8.2-5,13
	v78.4c0,15.5,12.6,28.1,28.1,28.1c5.8,0,11.5-1.8,16.2-5.1l9.6-6.8l-13.1-18.6L31.2,342.9z"/>
<path class="svg-stroke" d="M289.3,247.1L200.7,148v34.2l70.8,79.3v77.1c0,3-2.4,5.4-5.4,5.4c-1.1,0-2.2-0.3-3.1-1l-9.6-6.7l-13.1,18.6
	l9.6,6.7c12.7,8.9,30.3,5.9,39.2-6.9c3.3-4.7,5.1-10.4,5.1-16.1v-78.4C294.2,255.4,292.4,250.7,289.3,247.1L289.3,247.1z"/>
<path class="svg-stroke" d="M147.1,409.6l-6.1-3.9c-2-1.3-49.3-32-49.3-72.5c0-40,23.3-72.6,53.1-74.2c0.8,0,1.6-0.1,2.3-0.1
	c4.1,0,8.1,0.6,12.1,1.7c9.1,2.7,17.6,8.4,24.6,16.6c11.9,14,18.7,34.4,18.7,55.9c0,40.5-47.2,71.2-49.3,72.5L147.1,409.6z
	 M147.1,281.7c-0.3,0-0.6,0-1,0c-17.5,0.9-31.7,24-31.7,51.5c0,19.6,19.9,39.1,32.6,48.9c12.7-9.8,32.6-29.3,32.6-48.9
	c0-16.2-4.9-31.2-13.3-41.1c-4.1-4.8-8.8-8.1-13.6-9.5C150.9,282,149,281.7,147.1,281.7L147.1,281.7z"/>
<path class="svg-fill" d="M147.1,11.4c-13.1,0-96.4,71.4-96.4,143.4c0,24.5,29.3,178.4,29.3,178.4h134.1c0,0,29.3-153.9,29.3-178.4
	C243.5,82.4,159.5,11.4,147.1,11.4L147.1,11.4z M196.9,170.6c-1,4.9-2.7,9.6-5.1,14c-0.8,1.4-1.6,2.8-2.5,4.2
	c-3.7,5.4-8.3,10.1-13.7,13.7c-1.3,0.9-2.7,1.8-4.2,2.5c-24.7,13.4-55.6,4.2-68.9-20.5s-4.2-55.6,20.5-68.9c7.4-4,15.8-6.2,24.3-6.1
	c3.4,0,6.9,0.3,10.2,1c4.9,1,9.6,2.7,14,5.1c7.2,3.9,13.4,9.5,17.9,16.3c5.7,8.4,8.7,18.3,8.7,28.4
	C198,163.8,197.7,167.2,196.9,170.6L196.9,170.6z"/>
<path class="svg-stroke" d="M147.1,222.6c-34.4,0-62.2-28-62.2-62.3c0-34.4,28-62.2,62.3-62.2c10.3,0,20.4,2.6,29.5,7.5
	c2.6,1.4,5.2,3.1,7.6,4.9c24.8,18.5,32.2,52.4,17.5,79.6c-1,1.8-2,3.5-3.1,5.1c-4.5,6.6-10.2,12.3-16.8,16.8
	c-1.6,1.1-3.4,2.2-5.1,3.1C167.7,220,157.5,222.6,147.1,222.6L147.1,222.6z M147.1,120.9c-21.8-0.3-39.7,17-40.1,38.8
	s17,39.7,38.8,40.1c0.4,0,0.8,0,1.3,0c2.7,0,5.4-0.3,8-0.8c3.8-0.8,7.4-2.1,10.8-4c1.1-0.6,2.2-1.3,3.2-2c4.2-2.8,7.8-6.5,10.7-10.7
	c0.7-1.1,1.4-2.1,2-3.3c1.9-3.4,3.2-7,4-10.8c0.5-2.6,0.8-5.3,0.8-8c0-12.5-5.9-24.2-15.9-31.6c-1.5-1.1-3.1-2.2-4.8-3.1
	c-3.4-1.9-7-3.2-10.8-4c-2.6-0.5-5.3-0.8-8-0.8L147.1,120.9z"/>
<path class="svg-stroke" d="M89.5,321.8h115.2c9-47.9,27.4-149.1,27.4-167c0-63-69.5-123.9-85-131.5c-6.7,3.3-26.8,18.4-46.8,43.2
	c-24.6,30.4-38.2,61.8-38.2,88.4C62.1,172.8,80.5,274,89.5,321.8z M223.6,344.6H70.7l-1.8-9.3c-3-15.9-29.5-155.7-29.5-180.6
	c0-42.2,25-80.9,45.9-106C101.1,29.9,131.8,0,147.1,0c15,0,45.7,29.8,61.5,48.6c21.1,25.1,46.2,63.8,46.2,106.2
	c0,24.9-26.5,164.7-29.5,180.6L223.6,344.6z"/>
</svg>
