<?xml version="1.0" encoding="utf-8"?>
<!-- Generator: Adobe Illustrator 24.0.1, SVG Export Plug-In . SVG Version: 6.00 Build 0)  -->
<svg version="1.1" id="Layer_1" xmlns="http://www.w3.org/2000/svg" xmlns:xlink="http://www.w3.org/1999/xlink" x="0px" y="0px"
	 viewBox="0 0 506.5 512" style="enable-background:new 0 0 506.5 512;" xml:space="preserve">
<title>scale</title>
<path class="svg-fill" d="M301.5,430.3h124.7V81.7h-346v348.6h134.8 M219.3,430.3H100.7l96.1-171l104.7,171 M318.9,243.9
	c-24.7,0-44.7-20-44.7-44.7s20-44.7,44.7-44.7c24.7,0,44.7,20,44.7,44.7l0,0C363.6,223.9,343.6,243.9,318.9,243.9z"/>
<path class="svg-stroke" d="M301.5,445.2c-0.5,0-0.9,0-1.4-0.1c-4.3-0.4-8.3-2.7-10.8-6.2c-0.2-0.3-0.5-0.7-0.7-1.1l-91.3-149.1
	l-71.2,126.6h93.1c8.2,0,14.9,6.7,14.9,14.9s-6.7,14.9-14.9,14.9l0,0H80.3c-8.2,0-14.9-6.7-14.9-14.9l0,0V81.7
	c0-8.2,6.7-14.9,14.9-14.9h0h346c8.2,0,14.9,6.7,14.9,14.9v0v348.6c0,8.2-6.7,14.9-14.9,14.9l0,0H301.5z M309.9,415.4h101.5V96.6
	H95.2v313.1L183.9,252c4-7.2,13.1-9.7,20.3-5.7c2.2,1.2,4.1,3,5.4,5.2L309.9,415.4z M318.9,258.8c-32.9,0-59.6-26.7-59.7-59.6
	c0-32.9,26.7-59.7,59.6-59.7s59.7,26.7,59.7,59.6v0C378.5,232.1,351.8,258.8,318.9,258.8L318.9,258.8z M318.9,169.4
	c-16.5,0-29.8,13.4-29.8,29.8s13.4,29.8,29.8,29.8c16.5,0,29.8-13.4,29.8-29.8c0,0,0,0,0,0C348.7,182.7,335.3,169.4,318.9,169.4
	L318.9,169.4z"/>
<path class="svg-stroke" d="M491.6,100.4c-8.2,0-14.9-6.7-14.9-14.9v0V29.8H421c-8.2-0.2-14.7-7.1-14.5-15.3C406.7,6.6,413.1,0.2,421,0
	h70.6c8.2,0,14.9,6.7,14.9,14.9c0,0,0,0,0,0v70.6C506.5,93.7,499.8,100.4,491.6,100.4z"/>
<path class="svg-stroke" d="M14.9,100.4C6.7,100.4,0,93.7,0,85.5V14.9C0,6.7,6.7,0,14.9,0h70.6c8.2,0.2,14.7,7.1,14.5,15.3
	c-0.2,7.9-6.6,14.3-14.5,14.5H29.8v55.7C29.8,93.7,23.1,100.4,14.9,100.4z"/>
<path class="svg-stroke" d="M85.5,512H14.9C6.7,512,0,505.3,0,497.1v-70.6c0.2-8.2,7.1-14.7,15.3-14.5c7.9,0.2,14.3,6.6,14.5,14.5v55.7
	h55.7c8.2,0.2,14.7,7.1,14.5,15.3C99.8,505.4,93.4,511.8,85.5,512L85.5,512z"/>
<path class="svg-stroke" d="M491.6,512H421c-8.2-0.2-14.7-7.1-14.5-15.3c0.2-7.9,6.6-14.3,14.5-14.5h55.7v-55.7c0-8.2,6.7-14.9,14.9-14.9
	s14.9,6.7,14.9,14.9l0,0v70.6C506.5,505.3,499.8,512,491.6,512z"/>
</svg>
