<?xml version="1.0" encoding="utf-8"?>
<!-- Generator: Adobe Illustrator 24.0.1, SVG Export Plug-In . SVG Version: 6.00 Build 0)  -->
<svg version="1.1" id="Layer_1" xmlns="http://www.w3.org/2000/svg" xmlns:xlink="http://www.w3.org/1999/xlink" x="0px" y="0px"
	 viewBox="0 0 512 511.9" style="enable-background:new 0 0 512 511.9;" xml:space="preserve">
<title>search</title>
<path class="svg-fill" d="M233,278.9c-46.6-46.5-46.6-122,0-168.6s122-46.6,168.6,0s46.6,122,0,168.6c0,0,0,0,0,0
	C355,325.4,279.6,325.4,233,278.9z"/>
<path class="svg-stroke" d="M317.3,328.5c-73.8-0.1-133.6-60-133.6-133.8c0.1-73.8,60-133.6,133.8-133.6s133.6,60,133.6,133.8
	c0,35.4-14.1,69.4-39.2,94.4C386.9,314.5,352.8,328.6,317.3,328.5z M317.3,90.2C259.6,90.3,213,137,213,194.7
	s46.8,104.3,104.5,104.2S421.8,252,421.7,194.4c0-27.6-11-54.1-30.6-73.7C371.6,101.1,345,90.1,317.3,90.2L317.3,90.2z"/>
<g>
	<path class="svg-stroke" d="M144.1,258.9L144.1,258.9c1.4,0.1,2.8-0.1,4.1-0.5c7.8-2.2,12.3-10.4,10.1-18.1c-16.5-57.8-0.4-120,42.1-162.5
		c64.5-64.5,169.4-64.5,233.9,0c5.7,5.7,15,5.7,20.8,0s5.7-15,0-20.8c-76-76-199.5-76-275.5,0c-50,50.1-68.9,123.2-49.5,191.3
		C131.8,254.6,137.6,258.9,144.1,258.9z"/>
	<path class="svg-stroke" d="M504.5,141c-2.2-7.8-10.4-12.3-18.2-10.1s-12.3,10.4-10.1,18.2c16.5,57.8,0.4,120-42.1,162.5
		c-64.5,64.5-169.4,64.5-233.9,0c-5.3-5.1-13.4-5.4-19.1-1c-1,0.6-1.9,1.3-2.8,2.2l-26.9,26.9l-11.3-11.3c-5.7-5.7-15-5.7-20.8,0
		L4.3,443.5c-5.7,5.7-5.7,15,0,20.8l43.3,43.3c2.8,2.8,6.5,4.3,10.4,4.3c3.9,0,7.6-1.5,10.4-4.3l115.2-115.2c0,0,0,0,0,0
		c5.7-5.7,5.7-15,0-20.8l-11.3-11.3l18-18c35.2,30.3,80.2,47,126.9,46.9c0.8,0,1.5,0,2.3,0C427,388.1,513.2,300,512,192.6
		C511.8,175.1,509.3,157.8,504.5,141z M58,476.5l-22.6-22.5l94.4-94.4l22.6,22.6L58,476.5z"/>
</g>
</svg>
