<?xml version="1.0" encoding="utf-8"?>
<!-- Generator: Adobe Illustrator 24.0.1, SVG Export Plug-In . SVG Version: 6.00 Build 0)  -->
<svg version="1.1" id="Layer_1" xmlns="http://www.w3.org/2000/svg" xmlns:xlink="http://www.w3.org/1999/xlink" x="0px" y="0px"
	 viewBox="0 0 512 427.5" style="enable-background:new 0 0 512 427.5;" xml:space="preserve">
<title>settings-3</title>
<rect x="186.9" y="353.4" class="svg-fill" width="138.3" height="59.6"/>
<path class="svg-stroke" d="M460.2,0H51.8C23.2,0,0,23.2,0,51.7v264.4c0,28.6,23.2,51.7,51.8,51.8h120.6v30.7h-28.8
	c-8,0-14.5,6.5-14.5,14.5c0,8,6.5,14.5,14.5,14.5h43.3h138.3h43.3c8,0,14.5-6.5,14.5-14.5c0-8-6.5-14.5-14.5-14.5h-28.8v-41.9
	c0.3-1.2,0.4-2.4,0.4-3.6c-0.2-8-6.9-14.3-14.8-14.1H186.9H51.8c-12.6,0-22.8-10.2-22.8-22.8V51.7c0-12.6,10.2-22.8,22.8-22.8h408.5
	c12.6,0,22.8,10.2,22.8,22.8v264.4c0,12.6-10.2,22.8-22.8,22.8h-45.9c-0.3,0-0.5,0-0.8,0c-8,0.2-14.3,6.9-14.1,14.8
	c0.2,8,6.9,14.3,14.8,14.1h45.9c28.6,0,51.7-23.2,51.8-51.7V51.7C512,23.2,488.8,0,460.2,0z M310.7,367.9v30.7H201.3v-30.7H310.7z"
	/>
<path class="svg-fill" d="M220.1,271.6c-12.7-19.8-6.9-46.3,12.9-59s46.3-6.9,59,12.9c9,14,9,32,0,46.1h100.6v-50.3l-30.4-4.9
	c-4.9-16.3-13.6-31.3-25.3-43.7l11-28.7l-47.3-27.3l-19.4,23.8c-16.6-3.9-33.9-3.9-50.5,0l-19.4-23.8L164.1,144l11,28.7
	c-11.7,12.4-20.3,27.4-25.3,43.7l-30.3,4.9v50.3L220.1,271.6z"/>
<path class="svg-stroke" d="M392.5,286.1H291.9c-8,0-14.5-6.5-14.5-14.5c0-2.8,0.8-5.5,2.3-7.8c8.4-13.1,4.6-30.6-8.6-39
	c-13.1-8.4-30.6-4.6-39,8.6c-5.9,9.3-5.9,21.1,0,30.4c4.3,6.7,2.4,15.7-4.3,20c-2.3,1.5-5.1,2.3-7.8,2.3H119.4
	c-8,0-14.5-6.5-14.4-14.5l0,0v-50.3c0-7.1,5.2-13.1,12.2-14.3l21.8-3.5c4.7-12.2,11.3-23.6,19.5-33.7l-7.9-20.6
	c-2.5-6.6,0.1-14.1,6.3-17.7l47.3-27.3c6.2-3.5,14-2.1,18.5,3.4l13.9,17.1c12.9-2,26.1-2,39,0l13.9-17.1c4.5-5.5,12.3-7,18.5-3.4
	l47.3,27.3c6.2,3.6,8.8,11.1,6.3,17.7l-7.9,20.6c8.2,10.2,14.7,21.5,19.4,33.7l21.8,3.5c7,1.1,12.2,7.2,12.2,14.3v50.3
	C407,279.6,400.5,286.1,392.5,286.1C392.5,286.1,392.5,286.1,392.5,286.1z M312.5,257.1h65.6v-23.5l-18.2-2.9
	c-5.5-0.9-10-4.8-11.6-10.1c-4.3-14.2-11.9-27.2-22-38c-3.8-4-5-9.9-3-15.1l6.6-17.2l-25.9-15l-11.6,14.3c-3.5,4.3-9.1,6.2-14.5,5
	c-14.5-3.3-29.5-3.3-43.9,0c-5.4,1.2-11-0.7-14.5-5l-11.6-14.3l-25.9,15l6.6,17.2c2,5.2,0.8,11-3,15.1c-10.1,10.8-17.7,23.8-22,38
	c-1.6,5.3-6.1,9.2-11.6,10.1l-18.2,2.9v23.5h65.6c-0.4-2.8-0.6-5.7-0.6-8.6c0.4-31.6,26.3-56.8,57.9-56.4c31,0.4,56,25.4,56.4,56.4
	C313.1,251.4,312.9,254.3,312.5,257.1L312.5,257.1z"/>
</svg>
