<?xml version="1.0" encoding="utf-8"?>
<!-- Generator: Adobe Illustrator 24.0.1, SVG Export Plug-In . SVG Version: 6.00 Build 0)  -->
<svg version="1.1" id="Layer_1" xmlns="http://www.w3.org/2000/svg" xmlns:xlink="http://www.w3.org/1999/xlink" x="0px" y="0px"
	 viewBox="0 0 512 494.1" style="enable-background:new 0 0 512 494.1;" xml:space="preserve">
<title>settings-2</title>
<path class="svg-stroke" d="M175.6,494.1h-55.2c-7.2,0-13.3-5.2-14.4-12.3l-3.5-22c-12.3-4.8-23.8-11.4-34.1-19.7l-20.9,8
	c-6.7,2.6-14.3-0.1-17.9-6.4L2,393.9c-3.6-6.2-2.2-14.1,3.4-18.7l17.3-14.1c-2-13-2-26.3,0-39.4L5.4,307.7c-5.6-4.5-7-12.5-3.4-18.7
	l27.6-47.8c3.6-6.2,11.2-8.9,17.9-6.4l20.9,8c10.3-8.3,21.8-14.9,34.1-19.7l3.5-22c1.1-7.1,7.3-12.3,14.4-12.3h55.2
	c7.1,0,13.2,5.2,14.4,12.3l5,30.7c1.2,8-4.4,15.4-12.4,16.6c-7.8,1.1-15.2-4.2-16.5-12l-3-18.4h-30.3l-2.9,18.4
	c-0.9,5.5-4.8,10.1-10.2,11.7c-14.3,4.4-27.5,12-38.4,22.2c-4.1,3.8-10,5-15.2,3l-17.4-6.6l-15.1,26.2L48,304.5
	c4.3,3.5,6.3,9.2,5,14.7c-3.4,14.6-3.4,29.8,0,44.4c1.3,5.4-0.7,11.1-5,14.7L33.5,390l15.1,26.2l17.4-6.6c5.2-2,11.1-0.8,15.2,3
	c10.9,10.3,24.1,17.9,38.4,22.2c5.4,1.6,9.3,6.2,10.2,11.7l2.9,18.4h30.3l2.9-18.4c0.9-5.5,4.8-10.1,10.2-11.7
	c14.3-4.4,27.5-12,38.4-22.2c4.1-3.8,10-5,15.2-3l17.4,6.6l15.1-26.2L248,378.3c-4.3-3.5-6.3-9.2-5-14.7c3.4-14.6,3.4-29.8,0-44.4
	c-1.8-7.9,3.1-15.7,10.9-17.6c7.9-1.8,15.7,3.1,17.6,10.9c3.7,15.9,4.3,32.4,1.8,48.5l17.3,14.1c5.6,4.5,7,12.4,3.4,18.7l-27.6,47.8
	c-3.6,6.2-11.2,8.9-17.9,6.3l-20.9-8c-10.3,8.3-21.8,14.9-34.1,19.7l-3.5,22C188.9,488.8,182.8,494.1,175.6,494.1z"/>
<circle class="svg-fill" cx="148" cy="341.4" r="43.2"/>
<path class="svg-stroke" d="M148,399.2c-31.9,0-57.8-25.9-57.8-57.8s25.9-57.8,57.8-57.8c31.9,0,57.8,25.9,57.8,57.8
	C205.8,373.3,179.9,399.2,148,399.2z M148,312.9c-15.8,0-28.5,12.8-28.5,28.5c0,15.8,12.8,28.5,28.5,28.5
	c15.8,0,28.5-12.8,28.5-28.5C176.5,325.7,163.8,312.9,148,312.9z"/>
<path class="svg-fill" d="M476.2,152.7c0-8.6-1-17.2-2.9-25.5l24.1-19.6l-27.6-47.8l-29,11.1c-12.6-11.8-27.7-20.5-44.2-25.5l-4.9-30.7
	h-55.3l-4.9,30.7c-16.5,5-31.6,13.7-44.2,25.5l-29-11.1l-27.6,47.8l24.1,19.6c-3.9,16.8-3.9,34.2,0,51l-24.1,19.6l27.6,47.8l29-11.1
	c12.6,11.8,27.7,20.5,44.2,25.5l4.9,30.7h55.2l4.9-30.7c16.5-5,31.6-13.7,44.2-25.5l29,11.1l27.6-47.8l-24.1-19.5
	C475.2,169.8,476.2,161.3,476.2,152.7z M364,195.8c-23.8,0-43.2-19.3-43.2-43.1s19.3-43.2,43.1-43.2c23.8,0,43.2,19.3,43.2,43.1
	c0,0,0,0,0,0C407.1,176.5,387.8,195.8,364,195.8z"/>
<path class="svg-stroke" d="M391.6,305.4h-55.2c-7.2,0-13.3-5.3-14.4-12.4l-3.5-22c-12.3-4.8-23.8-11.4-34.1-19.7l-20.9,8
	c-6.7,2.6-14.3-0.1-17.9-6.4L218,205.1c-3.6-6.2-2.1-14.1,3.4-18.7l17.3-14.1c-2-13.1-2-26.3,0-39.4l-17.3-14.1
	c-5.6-4.5-7-12.4-3.4-18.7l27.6-47.8c3.6-6.2,11.2-8.9,17.9-6.3l20.9,8c10.3-8.3,21.8-14.9,34.1-19.7l3.5-22
	C323.1,5.3,329.2,0,336.4,0h55.2c7.2,0,13.3,5.2,14.4,12.3l3.5,22c12.3,4.8,23.8,11.4,34.1,19.7l20.9-8c6.7-2.6,14.3,0.1,17.9,6.3
	l27.6,47.9c3.6,6.2,2.1,14.1-3.4,18.7L489.3,133c2,13.1,2,26.3,0,39.4l17.3,14.1c5.6,4.5,7,12.4,3.4,18.7l-27.6,47.8
	c-3.6,6.2-11.2,8.9-17.9,6.4l-20.9-8c-10.3,8.3-21.8,14.9-34.1,19.7l-3.5,22C404.9,300.1,398.8,305.3,391.6,305.4z M348.9,276.1
	h30.3l2.9-18.4c0.9-5.5,4.8-10.1,10.2-11.7c14.3-4.4,27.5-12,38.4-22.2c4.1-3.8,10-5,15.2-3l17.4,6.6l15.1-26.2L464,189.6
	c-4.3-3.5-6.3-9.2-5-14.7c3.4-14.6,3.4-29.8,0-44.4c-1.3-5.4,0.7-11.1,5-14.7l14.4-11.7l-15.1-26.2l-17.4,6.7
	c-5.2,2-11.1,0.8-15.2-3c-10.9-10.2-24.1-17.8-38.4-22.2c-5.4-1.6-9.3-6.2-10.2-11.7l-2.9-18.4h-30.3l-2.9,18.4
	c-0.9,5.5-4.8,10.1-10.2,11.7c-14.3,4.4-27.5,12-38.4,22.2c-4.1,3.8-10,5-15.2,3l-17.4-6.7l-15.1,26.2l14.4,11.7
	c4.3,3.5,6.3,9.2,5,14.7c-3.4,14.6-3.4,29.8,0,44.4c1.3,5.4-0.7,11.1-5,14.7l-14.4,11.7l15.1,26.2l17.4-6.6c5.2-2,11.1-0.8,15.2,3
	c10.9,10.2,24.1,17.8,38.4,22.2c5.4,1.6,9.3,6.2,10.2,11.7L348.9,276.1z M364,210.5c-31.9,0-57.8-25.9-57.8-57.8
	c0-31.9,25.9-57.8,57.8-57.8s57.8,25.9,57.8,57.8c0,0,0,0,0,0C421.7,184.6,395.9,210.4,364,210.5z M364,124.1
	c-15.8,0-28.5,12.8-28.5,28.5s12.8,28.5,28.5,28.6s28.5-12.8,28.5-28.5c0,0,0,0,0,0C392.5,136.9,379.7,124.2,364,124.1z"/>
</svg>
