<?xml version="1.0" encoding="utf-8"?>
<!-- Generator: Adobe Illustrator 24.0.1, SVG Export Plug-In . SVG Version: 6.00 Build 0)  -->
<svg version="1.1" id="Layer_1" xmlns="http://www.w3.org/2000/svg" xmlns:xlink="http://www.w3.org/1999/xlink" x="0px" y="0px"
	 viewBox="0 0 339.8 409.6" style="enable-background:new 0 0 339.8 409.6;" xml:space="preserve">
<title>shield</title>
<path class="svg-stroke" d="M169.9,409.6c-5.5,0-10.9-1.2-15.8-3.5C107.8,384.8,0,327.5,0,255.5V72.1c0-10.7,8.7-19.4,19.4-19.5
	c2.1,0,4.2,0.3,6.1,1c9.2,3.1,18.9,4.7,28.6,4.6c31.5,0.1,60.7-16.3,76.9-43.3c5.6-9.2,15.6-14.9,26.4-14.9h25
	c10.8,0.1,20.8,5.7,26.4,14.9c16.2,27,45.4,43.4,76.9,43.3c9.7,0,19.4-1.6,28.6-4.6c10.2-3.4,21.2,2.1,24.6,12.3c0.7,2,1,4.1,1,6.1
	v48c0,6.5-5.3,11.8-11.7,11.8c-6.5,0-11.8-5.3-11.8-11.7c0,0,0,0,0,0V77.6c-10,2.8-20.3,4.2-30.6,4.2c-39.7,0.2-76.5-20.6-97-54.6
	c-1.3-2.2-3.7-3.6-6.3-3.6h-25c-2.6,0-5,1.4-6.3,3.6c-20.5,34-57.3,54.8-97,54.6c-10.3,0-20.6-1.4-30.6-4.2v178
	c0,47.7,72.5,98,140.4,129.3c3.8,1.7,8.2,1.7,12,0c67.9-31.3,140.4-81.6,140.4-129.3v-74.9c0-6.5,5.3-11.8,11.8-11.7
	c6.5,0,11.7,5.3,11.7,11.7v74.9c0,72-107.8,129.3-154.1,150.6C180.8,408.4,175.4,409.6,169.9,409.6L169.9,409.6z"/>
<path class="svg-fill" d="M156,269l-62.2-31.1c-11.8-5.9-16.6-20.2-10.7-32c5.9-11.8,20.2-16.6,32-10.7l44.9,22.5l56.6-70.7
	c8.2-10.3,23.2-12,33.5-3.7c10.3,8.2,12,23.2,3.7,33.5l0,0l-68.6,85.8C178.3,271.4,166.1,274.1,156,269z"/>
<path class="svg-stroke" d="M166.7,283.3c-5.5,0-11-1.3-15.9-3.8l-62.2-31.1c-17.6-8.8-24.7-30.2-15.9-47.8s30.2-24.7,47.8-15.9l36.4,18.2
	l50.6-63.3c12.3-15.4,34.7-17.9,50.1-5.6c15.4,12.3,17.9,34.7,5.6,50.1l0,0l-68.6,85.8C187.8,278.4,177.5,283.3,166.7,283.3z
	 M104.5,204.5c-6.7,0-12.1,5.4-12.1,12.1c0,4.6,2.6,8.8,6.7,10.8l62.2,31.1c5.1,2.6,11.3,1.2,14.9-3.3l68.6-85.8
	c4.3-5.1,3.7-12.8-1.4-17.1c-5.1-4.3-12.8-3.7-17.1,1.4c-0.1,0.2-0.3,0.3-0.4,0.5l-56.6,70.7c-3.5,4.3-9.5,5.6-14.4,3.2l-44.9-22.5
	C108.3,204.9,106.4,204.5,104.5,204.5L104.5,204.5z"/>
</svg>
