<?xml version="1.0" encoding="utf-8"?>
<!-- Generator: Adobe Illustrator 24.0.1, SVG Export Plug-In . SVG Version: 6.00 Build 0)  -->
<svg version="1.1" id="Layer_1" xmlns="http://www.w3.org/2000/svg" xmlns:xlink="http://www.w3.org/1999/xlink" x="0px" y="0px"
	 viewBox="0 0 512 506.7" style="enable-background:new 0 0 512 506.7;" xml:space="preserve">
<title>shopping-cart</title>
<polygon class="svg-fill" points="146.9,388 451.1,388 479,229.8 118.9,229.8 "/>
<path class="svg-stroke" d="M508.4,119.6c-2.9-3.4-7.2-5.4-11.7-5.4h-70.5c-8.4-0.2-15.4,6.4-15.6,14.8c-0.2,8.4,6.4,15.4,14.8,15.6
	c0.3,0,0.5,0,0.8,0h52.4l-12.4,70H131.7l-12.4-70h222.8c8.4,0.2,15.4-6.4,15.6-14.8s-6.4-15.4-14.8-15.6c-0.3,0-0.5,0-0.8,0H113.5
	L94.3,12.4C93,5.2,86.7,0,79.4,0H15.2C6.8-0.2-0.2,6.4-0.4,14.8S6,30.2,14.4,30.4c0.3,0,0.5,0,0.8,0h51.5l65.1,360.2
	c1.3,7.3,7.6,12.6,15,12.6h66.9c20.2,0,36.5,16.4,36.5,36.5c0,20.2-16.4,36.5-36.5,36.5s-36.5-16.4-36.5-36.5l0,0
	c-0.2-8.4-7.2-15-15.6-14.8c-8.1,0.2-14.6,6.7-14.8,14.8c-0.1,37,29.7,67.1,66.7,67.3c37,0.1,67.1-29.7,67.3-66.7
	c0.1-13.2-3.8-26-11-37h114.8c20.2,0,36.5,16.4,36.5,36.5s-16.4,36.5-36.5,36.5s-36.5-16.4-36.5-36.5v0c-0.2-8.4-7.2-15-15.6-14.8
	c-8.1,0.2-14.6,6.7-14.8,14.8c-0.1,37,29.7,67.1,66.7,67.3c37,0.1,67.1-29.7,67.3-66.7c0.1-13.2-3.8-26-11-37h10.4
	c7.4,0,13.7-5.3,15-12.6l28-158.2L511.8,132C512.6,127.6,511.3,123,508.4,119.6z M438.4,372.8H159.6L137.1,245h323.9L438.4,372.8z"
	/>
</svg>
