<?xml version="1.0" encoding="utf-8"?>
<!-- Generator: Adobe Illustrator 24.0.1, SVG Export Plug-In . SVG Version: 6.00 Build 0)  -->
<svg version="1.1" id="Layer_1" xmlns="http://www.w3.org/2000/svg" xmlns:xlink="http://www.w3.org/1999/xlink" x="0px" y="0px"
	 viewBox="0 0 512 442.1" style="enable-background:new 0 0 512 442.1;" xml:space="preserve">
<title>shope-3</title>
<path class="svg-fill" d="M459.9,15.2H52.1c-20.4,0-36.9,16.5-36.9,36.9l0,0v101.3c0,26.6,21.6,48.2,48.2,48.2l0,0
	c26.6,0,48.2-21.6,48.2-48.2l0,0c0,26.6,21.6,48.2,48.2,48.2l0,0c26.6,0,48.2-21.6,48.2-48.2c0,26.6,21.6,48.2,48.2,48.2l0,0
	c26.6,0,48.2-21.6,48.2-48.2c0,26.6,21.6,48.2,48.2,48.2l0,0l0,0c26.6,0,48.2-21.6,48.2-48.1l0,0c0,26.6,21.6,48.2,48.2,48.2l0,0
	c26.6,0,48.2-21.6,48.2-48.2l0,0V52.1C496.8,31.7,480.3,15.2,459.9,15.2L459.9,15.2z"/>
<path class="svg-stroke" d="M459.9,0H52.1C23.3,0,0,23.3,0,52.1v101.3c0,22.3,11.7,42.9,30.8,54.3v219.2c0,8.4,6.8,15.2,15.2,15.2h420
	c8.4,0,15.2-6.8,15.2-15.2l0,0V273.8c0-8.4-6.8-15.2-15.2-15.2c-8.4,0-15.2,6.8-15.2,15.2l0,0v137.9H335.5v-130
	c0-8.4-6.8-15.2-15.2-15.2H191.7c-8.4,0-15.2,6.8-15.2,15.2v56.1c0,8.4,6.8,15.2,15.2,15.2s15.2-6.8,15.2-15.2l0,0v-41h98.2v114.9
	H61.2v-195c0.7,0,1.4,0.1,2.2,0.1c18.5,0,36.1-8.1,48.2-22.2c22.7,26.6,62.6,29.8,89.2,7.2c2.6-2.2,5-4.6,7.2-7.2
	c22.7,26.6,62.6,29.8,89.2,7.1c2.6-2.2,5-4.6,7.1-7.1c22.7,26.6,62.6,29.8,89.2,7.2c2.6-2.2,5-4.6,7.2-7.2
	c22.7,26.6,62.6,29.8,89.2,7.1c14.1-12,22.3-29.7,22.3-48.2V52.1C512,23.3,488.7,0,459.9,0z M481.7,153.4c0,18.2-14.8,33-33,33
	s-33-14.8-33-33v-44.1c0-8.4-6.8-15.2-15.2-15.2c-8.4,0-15.2,6.8-15.2,15.2v44.1c0,18.2-14.8,33-33,33s-33-14.8-33-33v-73
	c-0.2-8.4-7.2-15-15.6-14.8c-8.1,0.2-14.6,6.7-14.8,14.8v73c0,18.2-14.8,33-33,33s-33-14.8-33-33v-44.1c-0.2-8.4-7.2-15-15.6-14.8
	c-8.1,0.2-14.6,6.7-14.8,14.8v44.1c0,18.2-14.8,33-33,33s-33-14.8-33-33v-73c0-8.4-6.8-15.2-15.2-15.2S96.1,72,96.1,80.4v73
	c0,18.2-14.8,33-33,33s-33-14.8-33-33V52.1c0-12,9.8-21.8,21.8-21.8l0,0h407.8c12,0,21.7,9.7,21.8,21.8v101.3H481.7z"/>
</svg>
