<?xml version="1.0" encoding="utf-8"?>
<!-- Generator: Adobe Illustrator 24.0.1, SVG Export Plug-In . SVG Version: 6.00 Build 0)  -->
<svg version="1.1" id="Layer_1" xmlns="http://www.w3.org/2000/svg" xmlns:xlink="http://www.w3.org/1999/xlink" x="0px" y="0px"
	 viewBox="0 0 512 412.9" style="enable-background:new 0 0 512 412.9;" xml:space="preserve">
<title>shopping-basket</title>
<polygon class="svg-fill" points="453.8,238.1 444.2,314.4 67.8,314.4 58.2,238.1 "/>
<circle class="svg-fill" cx="178.1" cy="149.9" r="35.1"/>
<circle class="svg-fill" cx="333.9" cy="149.9" r="35.1"/>
<path class="svg-stroke" d="M498.6,136.5h-60.2c-7.4-0.2-13.6,5.7-13.8,13.1c-0.2,7.4,5.7,13.6,13.1,13.8c0.2,0,0.5,0,0.7,0h11.1l-7.5,61.3
	H70.1l-7.5-61.3h68.9c7.4,25.7,34.3,40.6,60,33.1c16-4.6,28.5-17.1,33.1-33.1h62.6c7.4,25.7,34.3,40.6,60,33.2
	c25.7-7.4,40.6-34.3,33.2-60c-4.9-17.1-18.9-30.1-36.3-33.9l-39-94.2c-2.8-6.9-10.7-10.1-17.6-7.3s-10.1,10.7-7.3,17.6l35.7,86.2
	c-14,5.5-24.6,17.2-28.8,31.6h-62.6c-4.2-14.4-14.8-26.1-28.8-31.7l35.7-86.2c2.8-6.9-0.4-14.7-7.3-17.6s-14.7,0.4-17.6,7.3l0,0
	l-39.1,94.2c-17.4,3.8-31.3,16.9-36.2,33.9H13.4c-7.4,0.2-13.3,6.4-13.1,13.8c0.2,7.1,5.9,12.9,13.1,13.1h22.1l29.8,237.8
	c0.9,6.7,6.6,11.8,13.3,11.8h354.8c6.8,0,12.5-5,13.3-11.8l29.8-237.8h22c7.4-0.2,13.3-6.4,13.1-13.8
	C511.4,142.4,505.7,136.7,498.6,136.5z M333.6,128.3c0.4,0,0.9,0.1,1.3,0.1c0.2,0,0.5,0,0.7,0c11.9,0.9,20.8,11.3,19.9,23.2
	c-0.9,11.9-11.3,20.8-23.2,19.9c-11.9-0.9-20.8-11.3-19.9-23.2C313.2,137.2,322.4,128.6,333.6,128.3L333.6,128.3z M176.5,128.4
	c0.2,0,0.5,0,0.7,0c0.4,0,0.9-0.1,1.3-0.1c11.9,0.2,21.4,10,21.3,22c-0.2,11.9-10,21.4-22,21.3c-11.9-0.2-21.4-10-21.3-22
	C156.7,138.4,165.4,129.2,176.5,128.4L176.5,128.4z M73.5,251.5h365.1l-6.3,49.5H79.7L73.5,251.5z M90.4,386l-7.4-58.1h345.9
	l-7.4,58.1H90.4z"/>
</svg>
