<?xml version="1.0" encoding="utf-8"?>
<!-- Generator: Adobe Illustrator 24.0.1, SVG Export Plug-In . SVG Version: 6.00 Build 0)  -->
<svg version="1.1" id="Layer_1" xmlns="http://www.w3.org/2000/svg" xmlns:xlink="http://www.w3.org/1999/xlink" x="0px" y="0px"
	 viewBox="0 0 512 466.4" style="enable-background:new 0 0 512 466.4;" xml:space="preserve">
<title>shop-2</title>
<polygon class="svg-fill" points="201.4,172.5 105.4,172.5 131.5,14.1 214.5,14.1 "/>
<polygon class="svg-fill" points="406.6,172.5 310.6,172.5 297.5,14.1 380.5,14.1 "/>
<path class="svg-fill" d="M189.9,269.6c7.2-7,16.8-10.9,26.9-10.8c9.6,0,18.8,3.1,26.9,5.8c4,1.4,8.1,2.6,12.3,3.5
	c4.2-0.9,8.3-2.1,12.3-3.5c8.1-2.7,17.3-5.8,26.9-5.8c10-0.1,19.7,3.7,26.9,10.8c24.4,22.9,15.9,48.4,10.9,63.7l-0.3,0.8
	c-4.6,14-22,59.8-51.4,59.8c-15.6,0-20.9-2.5-24.8-4.4l-0.6-0.3l-0.6,0.3c-3.9,1.9-9.1,4.4-24.8,4.4c-29.3,0-46.7-45.8-51.4-59.8
	l-0.3-0.8C174,318,165.5,292.5,189.9,269.6z"/>
<path class="svg-stroke" d="M511.1,147.4l-6.4-25.9c-1.9-7.6-9.6-12.1-17.2-10.2c-7.5,1.9-12.1,9.5-10.3,17l6.4,25.9
	c0.4,1.8-0.7,3.6-2.5,4.1c-0.3,0.1-0.5,0.1-0.8,0.1h-61.7l-14.2-86l-7.3-44.1h52.6c1.5,0,2.9,1,3.2,2.5l6.6,26.8
	c1.9,7.6,9.6,12.1,17.2,10.2c7.5-1.9,12.1-9.5,10.3-17L480.5,24C477,9.9,464.3,0,449.8,0H62.2C47.7,0,35,9.9,31.5,24L0.9,147.4
	c-4.2,17,6.1,34.1,23.1,38.3c2.5,0.6,5.1,0.9,7.6,0.9h8.1v265.6c0,7.8,6.3,14.1,14.2,14.1h404.2c7.8,0,14.1-6.3,14.1-14.1V257.8
	c0-7.8-6.3-14.2-14.1-14.2c-7.8,0-14.2,6.3-14.2,14.1c0,0,0,0,0,0v180.3H68V186.7h412.4c17.5,0,31.6-14.2,31.6-31.6
	C512,152.5,511.7,149.9,511.1,147.4z M227.5,28.3h56.9l10.8,130.1h-78.4L227.5,28.3z M29,157.1c-0.7-0.8-0.9-1.9-0.6-2.9L59,30.8
	c0.4-1.5,1.7-2.5,3.2-2.5h52.6l-5.3,32.1l-16.2,98H31.6C30.6,158.4,29.6,157.9,29,157.1z M127.3,126.3l16.2-98h55.6l-10.7,130.1H122
	L127.3,126.3z M323.6,158.4L315.2,57l-2.4-28.7h55.6l16.2,98l5.3,32.1H323.6z"/>
<path class="svg-stroke" d="M256,220c-7.8,0-14.1,6.3-14.1,14.1v15c-7.4-2.3-15.9-4.4-25-4.4c-13.6-0.1-26.8,5.1-36.6,14.6
	c-31,29.1-19.9,62.4-14.6,78.4l0.3,0.8c6.9,20.9,27,69.5,64.8,69.5c12.6,0,19.9-1.5,25.3-3.4c5.4,2,12.8,3.4,25.3,3.4
	c37.8,0,57.9-48.6,64.8-69.5l0.3-0.8c5.3-16,16.3-49.3-14.6-78.4c-9.8-9.5-22.9-14.7-36.6-14.6c-9.1,0-17.6,2.1-25,4.4v-15
	C270.2,226.3,263.9,220,256,220C256,220,256,220,256,220z M295.2,273c6.4-0.1,12.7,2.4,17.2,6.9c16.5,15.5,13,31.3,7.1,48.9
	l-0.3,0.8c-8.2,24.9-23.2,50.1-37.9,50.1c-12.4,0-15.8-1.7-18.6-3l-0.7-0.3c-3.9-1.8-8.3-1.8-12.2,0l-0.6,0.3c-2.8,1.3-6.2,3-18.6,3
	c-14.8,0-29.7-25.1-37.9-50l-0.3-0.8c-5.8-17.6-9.3-33.4,7.1-48.9c4.5-4.6,10.8-7.1,17.2-6.9c7.3,0,15,2.6,22.5,5
	c4.6,1.7,9.4,3,14.2,4c1.7,0.3,3.3,0.3,5,0c4.8-1,9.6-2.3,14.2-4C280.2,275.5,287.9,273,295.2,273z"/>
</svg>
