<?xml version="1.0" encoding="utf-8"?>
<!-- Generator: Adobe Illustrator 24.0.1, SVG Export Plug-In . SVG Version: 6.00 Build 0)  -->
<svg version="1.1" id="Layer_1" xmlns="http://www.w3.org/2000/svg" xmlns:xlink="http://www.w3.org/1999/xlink" x="0px" y="0px"
	 viewBox="0 0 512 499.1" style="enable-background:new 0 0 512 499.1;" xml:space="preserve">
<title>shop</title>
<path class="svg-fill" d="M159.7,231.9L159.7,231.9c-26.6,0-48.2-21.6-48.2-48.2l0,0V15.2h96.3v168.6
	C207.8,210.3,186.3,231.9,159.7,231.9z"/>
<path class="svg-fill" d="M352.3,231.9L352.3,231.9c-26.6,0-48.2-21.6-48.2-48.2V15.2h96.3v168.6C400.5,210.3,378.9,231.9,352.3,231.9
	C352.3,231.9,352.3,231.9,352.3,231.9z"/>
<rect x="191.4" y="305.8" class="svg-fill" width="129.2" height="178.2"/>
<path class="svg-stroke" d="M496.8,98.6c8.4,0,15.2-6.8,15.2-15.2c0,0,0,0,0,0V52.1C512,23.3,488.7,0,459.9,0H52.1C23.3,0,0,23.3,0,52.1
	v131.6c0,19.4,8.9,37.7,24.1,49.7V484c0,8.4,6.8,15.2,15.2,15.2h433.5c8.4,0,15.2-6.8,15.2-15.2v0V305.8c-0.2-8.4-7.2-15-15.6-14.8
	c-8.1,0.2-14.6,6.7-14.8,14.8v163H335.8v-163c0-8.4-6.8-15.2-15.2-15.2h0H191.4c-8.4,0-15.2,6.8-15.2,15.2l0,0v163H54.4V246.4
	c21.5,3.1,43-5.1,57.1-21.6c22.6,26.6,62.5,29.8,89.1,7.2c2.6-2.2,5-4.6,7.2-7.2c22.6,26.6,62.5,29.8,89.1,7.2
	c2.6-2.2,5-4.6,7.2-7.2c22.6,26.6,62.5,29.8,89.1,7.2c2.6-2.2,5-4.6,7.2-7.2c22.6,26.6,62.6,29.9,89.2,7.2
	c14.2-12,22.3-29.7,22.3-48.3v-26.2c0-8.4-6.8-15.2-15.2-15.2c-8.4,0-15.2,6.8-15.2,15.2v26.2c0,18.2-14.8,33-33,33s-33-14.8-33-33
	V30.3h44.2c12,0,21.7,9.7,21.8,21.8v31.3C481.7,91.7,488.5,98.5,496.8,98.6z M206.6,320.9h98.9v147.9h-98.9L206.6,320.9z
	 M63.3,216.7c-18.2,0-33-14.8-33-33V52.1c0-12,9.7-21.7,21.8-21.8h44.2v153.4C96.3,202,81.6,216.7,63.3,216.7z M159.7,216.7
	c-18.2,0-33-14.8-33-33V30.3h66v153.4C192.7,202,177.9,216.7,159.7,216.7z M256,216.7c-18.2,0-33-14.8-33-33V30.3h66v153.4
	C289,202,274.2,216.7,256,216.7z M352.3,216.7c-18.2,0-33-14.8-33-33V30.3h66v153.4C385.3,202,370.6,216.7,352.3,216.7L352.3,216.7z
	"/>
</svg>
