<?xml version="1.0" encoding="utf-8"?>
<!-- Generator: Adobe Illustrator 24.0.1, SVG Export Plug-In . SVG Version: 6.00 Build 0)  -->
<svg version="1.1" id="Layer_1" xmlns="http://www.w3.org/2000/svg" xmlns:xlink="http://www.w3.org/1999/xlink" x="0px" y="0px"
	 viewBox="0 0 512 340.1" style="enable-background:new 0 0 512 340.1;" xml:space="preserve">
<title>show</title>
<path class="svg-stroke" d="M256,340.1c-58.1,0-120.5-28.2-180.4-81.6C31,218.9,3.6,179.7,2.5,178c-3.3-4.8-3.3-11.1,0-15.9
	c1.2-1.6,28.5-40.8,73.1-80.5C135.5,28.2,197.9,0,256,0c38.6,0,78.6,12.1,118.9,36C454,82.9,507.3,158.9,509.5,162.1
	c4.9,6,3.9,14.8-2.1,19.7c-6,4.9-14.8,3.9-19.7-2.1c-0.4-0.5-0.8-1.1-1.2-1.7c-0.5-0.7-52.2-74.3-125.9-118
	C324.8,38.7,289.5,27.9,256,27.9C148,27.9,55.2,139,31.4,170.1c23.9,31,116.8,142.1,224.6,142.1c64.2,0,122.8-40,160.7-73.5
	c5.4-5.5,14.3-5.6,19.8-0.2c5.5,5.4,5.6,14.3,0.2,19.8c-0.5,0.5-0.9,0.9-1.4,1.3C375.7,312.3,313.7,340.1,256,340.1z"/>
<path class="svg-fill" d="M330.1,96c-40.9-40.9-107.2-40.9-148.2,0s-40.9,107.2,0,148.2c40.9,40.9,107.2,40.9,148.1,0L256,170.1L330.1,96
	z"/>
<path class="svg-stroke" d="M256,288.7c-65.6,0-118.7-53.2-118.7-118.8S190.5,51.3,256.1,51.3c31.5,0,61.7,12.5,83.9,34.8
	c5.4,5.5,5.4,14.3,0,19.8l-64.2,64.2l64.2,64.2c5.4,5.5,5.4,14.3,0,19.7C317.7,276.3,287.5,288.8,256,288.7z M256,79.3
	c-50.1,0-90.8,40.7-90.8,90.8c0,50.1,40.7,90.8,90.8,90.8c19.2,0,38-6.1,53.5-17.5l-63.4-63.4c-5.4-5.5-5.4-14.3,0-19.8l63.4-63.4
	C294,85.4,275.3,79.3,256,79.3z"/>
</svg>
