<?xml version="1.0" encoding="utf-8"?>
<!-- Generator: Adobe Illustrator 24.0.1, SVG Export Plug-In . SVG Version: 6.00 Build 0)  -->
<svg version="1.1" id="Layer_1" xmlns="http://www.w3.org/2000/svg" xmlns:xlink="http://www.w3.org/1999/xlink" x="0px" y="0px"
	 viewBox="0 0 306.7 409.6" style="enable-background:new 0 0 306.7 409.6;" xml:space="preserve">
<title>smartphone-2</title>
<path class="svg-stroke" d="M11.1,348.5c-6.1,0-11.1-5-11.1-11.1V72.2C0,66,5,61.1,11.1,61.1h284.5c6.1,0,11.1,5,11.1,11.1c0,0,0,0,0,0V257
	c0,6.1-5,11.1-11.1,11.1s-11.1-5-11.1-11.1V83.2H22.2v254.2C22.2,343.6,17.2,348.6,11.1,348.5C11.1,348.6,11.1,348.6,11.1,348.5
	L11.1,348.5z"/>
<path class="svg-fill" d="M48.8,398.5H258c20.8,0,37.7-16.9,37.7-37.7v-23.4H11.1v23.4C11.1,381.6,28,398.5,48.8,398.5z"/>
<path class="svg-stroke" d="M258,409.6H48.8C21.9,409.6,0,387.7,0,360.8v-23.4c0-6.1,5-11.1,11.1-11.1c0,0,0,0,0,0h284.5
	c6.1,0,11.1,5,11.1,11.1l0,0v23.4C306.7,387.7,284.9,409.5,258,409.6z M22.2,348.5v12.3c0,14.7,11.9,26.6,26.6,26.6H258
	c14.7,0,26.6-11.9,26.6-26.6v-12.3H22.2z"/>
<path class="svg-stroke" d="M295.6,83.2H11.1C5,83.2,0,78.3,0,72.2V48.8C0,21.9,21.9,0,48.8,0H258c26.9,0,48.8,21.9,48.8,48.8v23.4
	C306.8,78.3,301.8,83.2,295.6,83.2L295.6,83.2L295.6,83.2z M22.2,61h262.3V48.8c0-14.7-11.9-26.5-26.5-26.6H48.8
	c-14.7,0-26.6,11.9-26.6,26.6V61z"/>
<polyline class="st2" points="65.1,130.8 85,145.3 108.3,116.4 "/>
<path class="svg-stroke" d="M85,156.4c-2.3,0-4.6-0.7-6.5-2.1l-20-14.4c-5-3.6-6.1-10.5-2.5-15.5s10.5-6.1,15.5-2.5l0,0l11.5,8.3l16.7-20.7
	c3.9-4.8,10.9-5.5,15.6-1.6s5.5,10.9,1.6,15.6l0,0l-23.3,28.8C91.6,154.9,88.4,156.4,85,156.4z"/>
<path class="svg-stroke" d="M241.7,142H159c-6.1-0.2-11-5.3-10.8-11.4c0.2-5.9,4.9-10.6,10.8-10.8h82.7c6.1,0.2,11,5.3,10.8,11.4
	C252.3,137.1,247.6,141.8,241.7,142L241.7,142z"/>
<polyline class="st2" points="65.1,204.8 85,219.2 108.3,190.4 "/>
<path class="svg-stroke" d="M85,230.3c-2.3,0-4.6-0.7-6.5-2.1l-20-14.4c-5-3.6-6.1-10.5-2.5-15.5s10.5-6.1,15.5-2.5l11.5,8.3l16.7-20.7
	c3.8-4.8,10.8-5.5,15.6-1.7s5.5,10.8,1.7,15.6l-23.3,28.9C91.6,228.8,88.4,230.3,85,230.3z"/>
<path class="svg-stroke" d="M241.7,215.9H159c-6.1,0-11.1-5-11.1-11.1s5-11.1,11.1-11.1c0,0,0,0,0,0h82.7c6.1,0,11.1,5,11.1,11.1
	S247.8,215.9,241.7,215.9C241.7,215.9,241.7,215.9,241.7,215.9L241.7,215.9z"/>
<polyline class="st2" points="65.1,278.8 85,293.2 108.3,264.3 "/>
<path class="svg-stroke" d="M85,304.3c-2.3,0-4.6-0.7-6.5-2.1l-20-14.4c-5-3.6-6.1-10.5-2.5-15.5s10.5-6.1,15.5-2.5L83,278l16.7-20.7
	c3.9-4.8,10.9-5.5,15.6-1.7s5.5,10.9,1.7,15.6l-23.3,28.9C91.6,302.8,88.4,304.3,85,304.3z"/>
<path class="svg-stroke" d="M241.7,289.9H159c-6.1,0-11.1-5-11.1-11.1s5-11.1,11.1-11.1h82.7c6.1,0,11.1,5,11.1,11.1
	S247.8,289.9,241.7,289.9L241.7,289.9z"/>
</svg>
