<?xml version="1.0" encoding="utf-8"?>
<!-- Generator: Adobe Illustrator 24.0.1, SVG Export Plug-In . SVG Version: 6.00 Build 0)  -->
<svg version="1.1" id="Layer_1" xmlns="http://www.w3.org/2000/svg" xmlns:xlink="http://www.w3.org/1999/xlink" x="0px" y="0px"
	 viewBox="0 0 327.4 512" style="enable-background:new 0 0 327.4 512;" xml:space="preserve">
<title>smartphone</title>
<path class="svg-fill" d="M313.7,72.3V47c0-18.4-14.9-33.2-33.2-33.2H47c-18.4,0-33.2,14.9-33.2,33.2v25.3H313.7z"/>
<path class="svg-fill" d="M13.8,398.4V465c0,18.4,14.9,33.2,33.2,33.2h233.4c18.4,0,33.2-14.9,33.2-33.2v-66.6H13.8z"/>
<path class="svg-stroke" d="M280.4,0H47C21.1,0,0,21.1,0,47v418c0,25.9,21.1,47,47,47h233.4c25.9,0,47-21.1,47-47V352.3
	c0-7.6-6.2-13.8-13.8-13.7c-7.6,0-13.7,6.2-13.7,13.7v32.3H27.5V86.1h272.4V256c0,7.6,6.1,13.8,13.7,13.8s13.8-6.1,13.8-13.7l0,0V47
	C327.4,21.1,306.4,0,280.4,0z M299.9,412.1V465c0,10.8-8.7,19.5-19.5,19.5H47c-10.8,0-19.5-8.7-19.5-19.5v-52.9H299.9z M27.5,58.6
	V47c0-10.8,8.7-19.5,19.5-19.5h233.4c10.8,0,19.5,8.7,19.5,19.5v11.6H27.5z"/>
<circle cx="163.7" cy="448.3" r="9.4"/>
<path class="svg-stroke" d="M163.7,471.5c-12.8,0-23.2-10.4-23.2-23.2c0-12.8,10.4-23.2,23.2-23.2s23.2,10.4,23.2,23.2
	S176.5,471.5,163.7,471.5z"/>
<path class="svg-stroke" d="M138.3,223.4H69.5c-7.6,0-13.8-6.2-13.8-13.8V150c0-7.6,6.2-13.8,13.8-13.8h68.8c7.6,0,13.8,6.2,13.8,13.8
	s-6.2,13.8-13.8,13.8h-55v32.1h55c7.6,0,13.8,6.2,13.8,13.8C152,217.2,145.9,223.4,138.3,223.4L138.3,223.4z"/>
<rect x="189.2" y="150" class="svg-fill" width="68.8" height="59.6"/>
<path class="svg-stroke" d="M258,223.4h-68.8c-7.6,0-13.8-6.2-13.8-13.8V150c0-7.6,6.2-13.8,13.8-13.8H258c7.6,0,13.7,6.2,13.7,13.8v59.6
	C271.7,217.2,265.6,223.4,258,223.4z M203,195.9h41.3v-32.1h-41.4L203,195.9z"/>
<rect x="69.5" y="265.6" class="svg-fill" width="68.8" height="59.6"/>
<path class="svg-stroke" d="M138.3,339H69.5c-7.6,0-13.8-6.2-13.8-13.8l0,0v-59.7c0-7.6,6.2-13.8,13.8-13.8h68.8c7.6,0,13.7,6.2,13.7,13.8
	v59.6C152,332.8,145.9,339,138.3,339L138.3,339z M83.3,311.5h41.2v-32.1H83.2L83.3,311.5L83.3,311.5z"/>
<path class="svg-stroke" d="M258,339h-68.8c-7.6,0-13.8-6.2-13.7-13.8c0-7.6,6.2-13.7,13.7-13.7h55v-32.1h-55c-7.6,0-13.8-6.2-13.8-13.8
	c0-7.6,6.2-13.8,13.8-13.8H258c7.6,0,13.8,6.2,13.8,13.8l0,0v59.6C271.8,332.8,265.6,339,258,339L258,339z"/>
</svg>
