<?xml version="1.0" encoding="utf-8"?>
<!-- Generator: Adobe Illustrator 24.0.1, SVG Export Plug-In . SVG Version: 6.00 Build 0)  -->
<svg version="1.1" id="Layer_1" xmlns="http://www.w3.org/2000/svg" xmlns:xlink="http://www.w3.org/1999/xlink" x="0px" y="0px"
	 viewBox="0 0 409.6 409.6" style="enable-background:new 0 0 409.6 409.6;" xml:space="preserve">
<title>square</title>
<path class="svg-stroke" d="M226.2,350.7H69.8c-6,0-10.8-4.9-10.8-10.9V183.4c-0.2-6,4.5-11,10.5-11.2s11,4.5,11.2,10.5c0,0.2,0,0.4,0,0.7
	V329h145.5c6-0.2,11,4.5,11.2,10.5s-4.5,11-10.5,11.2C226.6,350.7,226.4,350.7,226.2,350.7L226.2,350.7z"/>
<path class="svg-fill" d="M10.8,60.2l338.6,338.5h25.2c21.5,0,32.2-25.9,17-41.1L52,18C36.8,2.8,10.9,13.6,10.9,35L10.8,60.2z"/>
<path class="svg-stroke" d="M399.3,350L59.7,10.4c0,0,0,0,0,0l-0.1-0.1c-0.6-0.6-1.1-1.1-1.7-1.7c-0.1,0-0.1-0.1-0.2-0.1
	C51.5,3,43.4,0,35.1,0c-6.4,0-12.4,1.7-17.6,4.8C7.2,10.5,0.6,21.3,0.1,33.2C0,33.8,0,34.4,0,35v25.2v314.5
	c0,19.3,15.7,34.9,34.9,34.9H269c5.7-0.2,10.3-4.8,10.5-10.5c0.2-6-4.5-11-10.5-11.2H34.9c-7.3,0-13.2-5.9-13.2-13.2V86.4l320,320
	c2.1,2.1,4.8,3.2,7.7,3.2h25.2c9.2,0,18.1-3.7,24.7-10.2C412.9,385.8,412.9,363.6,399.3,350z M374.6,387.9h-20.7L21.7,55.7V35.1
	c0-0.3,0-0.6,0-0.9c0-0.2,0-0.4,0-0.6c0-0.3,0.1-0.6,0.1-0.9c0-0.1,0-0.2,0.1-0.4c0.1-0.4,0.2-0.8,0.3-1.1c0,0,0-0.1,0-0.1
	c0.6-2.1,1.8-3.9,3.3-5.5c2.1-2.2,4.9-3.4,7.7-3.8c0.1,0,0.3,0,0.4-0.1c0.2,0,0.4,0,0.6,0c0.2,0,0.4,0,0.7,0c3.4,0,6.7,1.3,9.3,3.9
	l33.4,33.4L66.5,70.3c-2.1,2.1-3.2,4.8-3.2,7.7c0,6,4.8,10.8,10.8,10.8c2.8,0.1,5.6-1.1,7.6-3.1L93,74.4l36.2,36.1L118,121.7
	c-2.1,2.1-3.2,4.8-3.2,7.7c0,6,4.8,10.9,10.8,10.9c2.8,0,5.6-1.1,7.6-3.2l11.3-11.3l36.2,36.2l-11.2,11.2c-2.1,2.1-3.2,4.8-3.2,7.7
	c0,6,4.8,10.9,10.8,10.9c2.9,0.1,5.6-1.1,7.7-3.2l11.2-11.2l34.7,34.7l1.5,1.5L221,224.8c-2.1,2.1-3.2,4.8-3.2,7.7
	c0,6,4.8,10.8,10.8,10.8c2.9,0.1,5.6-1.1,7.7-3.2l11.2-11.2l36.2,36.2l-11.2,11.2c-2.1,2.1-3.2,4.8-3.2,7.7c0,6,4.8,10.9,10.8,10.9
	c2.9,0,5.7-1.2,7.7-3.2l11.3-11.3l19.3,19.3l16.9,16.9L324,327.9c-2.1,2-3.2,4.7-3.2,7.6c0,6,4.8,10.9,10.8,10.9
	c2.9,0,5.7-1.2,7.7-3.1l11.3-11.3l33.3,33.2c2.5,2.5,3.9,5.9,3.9,9.4C387.8,382,381.9,387.9,374.6,387.9z"/>
</svg>
