<?xml version="1.0" encoding="utf-8"?>
<!-- Generator: Adobe Illustrator 24.0.1, SVG Export Plug-In . SVG Version: 6.00 Build 0)  -->
<svg version="1.1" id="Layer_1" xmlns="http://www.w3.org/2000/svg" xmlns:xlink="http://www.w3.org/1999/xlink" x="0px" y="0px"
	 viewBox="0 0 512 512" style="enable-background:new 0 0 512 512;" xml:space="preserve">
<title>target</title>
<circle class="svg-fill" cx="283.8" cy="283.8" r="143"/>
<path class="svg-stroke" d="M283.8,441.8c-87.1,0-158-70.9-158-158s70.9-158,158-158s158,70.9,158,158S370.9,441.8,283.8,441.8z
	 M283.8,155.7c-70.7,0-128.1,57.3-128.1,128.1S213,411.9,283.8,411.9s128.1-57.3,128.1-128.1C411.8,213.1,354.5,155.8,283.8,155.7
	L283.8,155.7z"/>
<path class="svg-fill" d="M283.8,210.5c40.5,0,73.3,32.8,73.3,73.3s-32.8,73.3-73.3,73.3s-73.3-32.8-73.3-73.3l0,0"/>
<path class="svg-stroke" d="M283.8,372.1c-48.7-0.1-88.2-39.5-88.2-88.3c0.2-8.2,7.1-14.8,15.3-14.5c7.9,0.2,14.3,6.6,14.5,14.5
	c0,32.2,26.1,58.4,58.4,58.4s58.4-26.1,58.4-58.4s-26.1-58.4-58.4-58.4c-8.2-0.2-14.8-7.1-14.5-15.3c0.2-7.9,6.6-14.3,14.5-14.5
	c48.7-0.5,88.7,38.6,89.2,87.3s-38.6,88.7-87.3,89.2C285.1,372.1,284.4,372.1,283.8,372.1L283.8,372.1z"/>
<polygon class="svg-fill" points="107.9,55.1 102.6,102.6 55.1,107.9 14.9,67.8 67.8,14.9 "/>
<path class="svg-stroke" d="M283.8,55.7c-55.3,0-108.8,20.1-150.4,56.7l-15.2-15.2l4.5-40.4c0.5-4.5-1.1-9-4.3-12.2L78.3,4.4
	c-5.8-5.8-15.3-5.8-21.1,0L4.4,57.2c-5.8,5.8-5.8,15.3,0,21.1l40.1,40.1c2.8,2.8,6.6,4.4,10.6,4.4c0.5,0,1.1,0,1.6-0.1l40.4-4.5
	l15.2,15.2c-36.6,41.5-56.7,95-56.7,150.4C55.7,409.6,158,512,283.8,512c66.2,0,129.1-28.7,172.4-78.7c5.6-6.1,5.1-15.6-1-21.1
	s-15.6-5.1-21.1,1c-0.2,0.2-0.3,0.3-0.5,0.5c-37.7,43.4-92.3,68.4-149.8,68.4c-109.3,0-198.3-89-198.3-198.3
	c0-47.4,17-93.3,48-129.2l140.2,140.2c5.8,5.8,15.3,5.8,21.1,0s5.8-15.3,0-21.1L154.6,133.5c35.9-31,81.8-48,129.2-48
	c109.4,0,198.3,89,198.3,198.3c0,8.3,6.7,14.9,14.9,14.9s14.9-6.7,14.9-14.9C512,158,409.6,55.7,283.8,55.7z M36.1,67.8l31.7-31.7
	l24.5,24.5l-3.2,28.5l-28.5,3.2L36.1,67.8z"/>
</svg>
