<?xml version="1.0" encoding="utf-8"?>
<!-- Generator: Adobe Illustrator 24.0.1, SVG Export Plug-In . SVG Version: 6.00 Build 0)  -->
<svg version="1.1" id="Layer_1" xmlns="http://www.w3.org/2000/svg" xmlns:xlink="http://www.w3.org/1999/xlink" x="0px" y="0px"
	 viewBox="0 0 409.6 356.2" style="enable-background:new 0 0 409.6 356.2;" xml:space="preserve">
<title>team</title>
<path class="svg-fill" d="M265.2,180.7H144.4v-17.6c0-33.3,27-60.4,60.4-60.4s60.4,27,60.4,60.4L265.2,180.7L265.2,180.7z"/>
<path class="svg-stroke" d="M265.2,191.7H144.4c-6.1,0-11.1-5-11.1-11.1V163c-0.5-39.5,31.1-71.8,70.6-72.3s71.8,31.1,72.3,70.6
	c0,0.6,0,1.1,0,1.7v17.6C276.2,186.8,271.3,191.7,265.2,191.7L265.2,191.7L265.2,191.7z M155.5,169.6h98.6v-6.5
	c0.4-27.2-21.4-49.6-48.6-50s-49.6,21.4-50,48.6c0,0.5,0,0.9,0,1.4V169.6z"/>
<path class="svg-fill" d="M250.4,56.7c0,25.2-20.4,45.6-45.6,45.6s-45.6-20.4-45.6-45.6s20.4-45.6,45.6-45.6l0,0
	C230,11.1,250.4,31.5,250.4,56.7L250.4,56.7z"/>
<path class="svg-stroke" d="M204.8,113.3c-31.3,0-56.7-25.4-56.7-56.7s25.4-56.7,56.7-56.7s56.7,25.4,56.7,56.7l0,0
	C261.4,87.9,236.1,113.3,204.8,113.3L204.8,113.3z M204.8,22.1c-19.1,0-34.5,15.4-34.5,34.5s15.4,34.5,34.5,34.5
	s34.5-15.4,34.5-34.5l0,0C239.3,37.6,223.8,22.2,204.8,22.1z"/>
<path class="svg-stroke" d="M398.5,356.2H296.8c-6.1,0-11.1-5-11.1-11.1v-14.8c0-34.2,27.8-62,62-62c6.1-0.2,11.2,4.6,11.4,10.7
	s-4.6,11.2-10.7,11.4c-0.2,0-0.4,0-0.7,0c-22,0-39.8,17.8-39.8,39.8v3.8h79.6v-3.7c0-3.2-0.4-6.5-1.2-9.6c-1.4-6,2.3-11.9,8.3-13.3
	c5.8-1.4,11.7,2.2,13.2,8c1.2,4.9,1.8,9.9,1.8,14.9v14.8C409.6,351.2,404.7,356.2,398.5,356.2L398.5,356.2z"/>
<path class="svg-stroke" d="M347.6,290.5c-27.3,0-49.5-22.2-49.5-49.5s22.2-49.5,49.5-49.5s49.5,22.2,49.5,49.5S374.9,290.5,347.6,290.5z
	 M347.6,213.6c-15.1,0-27.3,12.3-27.3,27.4c0,15.1,12.3,27.3,27.4,27.3S375,256,375,241C375,225.9,362.7,213.7,347.6,213.6
	L347.6,213.6z"/>
<path class="svg-stroke" d="M112.8,356.2H11.1c-6.1,0-11.1-5-11.1-11.1v-14.8c0-34.2,27.8-62,62-62c6.1,0.2,10.9,5.3,10.7,11.4
	c-0.2,5.9-4.9,10.6-10.7,10.7c-22,0-39.8,17.8-39.8,39.8v3.8h79.6v-3.7c0-3.2-0.4-6.5-1.2-9.6c-1.5-5.9,2.2-11.9,8.1-13.4
	s11.9,2.2,13.4,8.1c1.2,4.9,1.8,9.9,1.8,14.9v14.8C124,351.2,119,356.2,112.8,356.2C112.9,356.2,112.9,356.2,112.8,356.2
	L112.8,356.2z"/>
<path class="svg-stroke" d="M61.9,290.5c-27.3,0-49.5-22.2-49.5-49.5s22.2-49.5,49.5-49.5s49.5,22.2,49.5,49.5S89.3,290.5,61.9,290.5z
	 M61.9,213.6c-15.1,0-27.3,12.2-27.3,27.4c0,15.1,12.2,27.4,27.4,27.4c15.1,0,27.3-12.2,27.3-27.3C89.3,225.9,77,213.7,61.9,213.6
	L61.9,213.6z"/>
<path class="svg-stroke" d="M204.8,285.7c-6.1,0-11.1-5-11.1-11.1v-56.4c-0.2-6.1,4.6-11.2,10.7-11.4c6.1-0.2,11.2,4.6,11.4,10.7
	c0,0.2,0,0.4,0,0.7v56.4C215.9,280.8,210.9,285.7,204.8,285.7L204.8,285.7L204.8,285.7z"/>
<path class="svg-stroke" d="M279.5,285.7H130.1c-6.1,0.2-11.2-4.6-11.4-10.7s4.6-11.2,10.7-11.4c0.2,0,0.4,0,0.7,0h149.5
	c6.1-0.2,11.2,4.6,11.4,10.7s-4.6,11.2-10.7,11.4C280,285.7,279.8,285.7,279.5,285.7z"/>
</svg>
