<?xml version="1.0" encoding="utf-8"?>
<!-- Generator: Adobe Illustrator 24.0.1, SVG Export Plug-In . SVG Version: 6.00 Build 0)  -->
<svg version="1.1" id="Layer_1" xmlns="http://www.w3.org/2000/svg" xmlns:xlink="http://www.w3.org/1999/xlink" x="0px" y="0px"
	 viewBox="0 0 390.9 409.6" style="enable-background:new 0 0 390.9 409.6;" xml:space="preserve">
<title>telephone</title>
<path class="svg-fill" d="M280.5,115.2v-24c-1.6-0.5-3.2-1-5-1.5c-16-4.6-50.4-10.9-80.1-10.9s-64.2,6.3-80.2,10.9
	c-1.7,0.5-2.7,0.9-4.2,1.4l0.7,21.8v2.3c0,17.8-14.5,32.3-32.3,32.3H44.2c-17.8,0-32.3-14.5-32.3-32.3c0-0.1,0-0.2,0-0.3l0.1-9.4
	c0.9-7.2,2.8-14.2,5.8-20.8c2.6-6,6-11.7,10.1-16.8C59,28.1,107.5,11.9,195.4,11.9c121.5,0,165.8,53.5,167.7,55.9
	c4.1,5.2,7.5,10.9,10.1,16.9c2.9,6.6,4.8,13.7,5.7,20.8l0.1,9.4c0.2,17.8-14.2,32.4-32,32.6c-0.1,0-0.2,0-0.3,0h-33.9
	C295,147.6,280.6,133.1,280.5,115.2C280.5,115.3,280.5,115.3,280.5,115.2L280.5,115.2z"/>
<path class="svg-stroke" d="M346.7,159.4h-33.9c-24.4,0-44.2-19.8-44.2-44.2v-15.1c-15.6-4-46.1-9.5-73.2-9.5c-26.7,0-56.4,5.2-72.3,9.2
	l0.4,12.7c0,0.1,0,0.2,0,0.4v2.3c0,24.4-19.8,44.2-44.2,44.2H44.2C19.8,159.4,0,139.6,0,115.2c0-0.1,0-0.2,0-0.4l0.1-9.5
	c0-0.5,0-0.9,0.1-1.3c1.1-8.3,3.3-16.5,6.7-24.2l0.1-0.1c3-6.9,6.9-13.4,11.6-19.3C52.2,17.5,103.4,0,195.4,0
	c52.5,0,97.6,9.6,134.1,28.4c28.6,14.8,41.4,30.3,42.9,32c4.7,6,8.6,12.5,11.7,19.5c3.4,7.7,5.6,15.9,6.6,24.2
	c0.1,0.4,0.1,0.9,0.1,1.3l0.1,9.4c0.2,24.4-19.4,44.4-43.8,44.6C347,159.4,346.9,159.4,346.7,159.4L346.7,159.4z M195.5,66.9
	c32.1,0,67.4,6.8,83.4,11.4c1.1,0.3,2.2,0.7,3.3,1l1.8,0.6c5.1,1.5,8.5,6.1,8.5,11.4v24c0,11.3,9.1,20.4,20.4,20.4h33.9
	c11.3,0,20.4-9.2,20.4-20.4c0-0.1,0-0.1,0-0.2l-0.1-8.8c-0.8-5.8-2.4-11.5-4.7-16.9c-2.2-5.1-5.1-9.9-8.5-14.3
	c-0.1-0.1-10.6-13-35.2-25.7C295.8,37.8,256,23.8,195.4,23.8c-83.8,0-129.6,14.9-158.2,51.4c0,0,0,0.1-0.1,0.1
	c-3.4,4.4-6.3,9.1-8.5,14.2c-2.3,5.4-3.9,11-4.7,16.8l-0.1,8.7c-0.1,11.3,9,20.5,20.2,20.6c0.1,0,0.1,0,0.2,0h35.2
	c11.3,0,20.4-9.1,20.4-20.4v-2.1l-0.7-21.7c-0.2-5.4,3.4-10.3,8.6-11.8c0.5-0.1,0.9-0.3,1.3-0.4c0.8-0.3,1.8-0.6,3-1
	C127.9,73.7,163.2,66.9,195.5,66.9z"/>
<path class="svg-stroke" d="M333.9,409.6H57c-17.1,0-31-13.9-31-31c0-0.7,0-1.5,0.1-2.2l11.8-159.1c1-14.4,11.9-26.2,26.2-28.3l64.3-11
	l7.8-22.7c4.3-12.5,16.1-20.9,29.3-20.9h59.9c13.2,0,25,8.4,29.3,20.9l7.8,22.7l64.3,11c14.3,2.1,25.2,13.9,26.2,28.3l11.8,159.1
	c1.2,17.1-11.6,31.9-28.7,33.2C335.4,409.6,334.7,409.6,333.9,409.6z M165.5,158.1c-3.1,0-5.8,2-6.8,4.9l-10.1,29.3
	c-1.4,4.1-5,7.1-9.2,7.9l-71.4,12.2l-0.3,0.1c-3.3,0.5-5.9,3.2-6.1,6.6L49.8,378.1c-0.3,3.9,2.7,7.4,6.6,7.7c0.2,0,0.4,0,0.5,0
	h276.9c4,0,7.2-3.2,7.2-7.2c0-0.2,0-0.4,0-0.5L329.3,219c-0.2-3.4-2.8-6.1-6.1-6.6l-0.3-0.1l-71.4-12.2c-4.3-0.7-7.8-3.8-9.2-7.9
	l-10-29.3c-1-2.9-3.7-4.8-6.8-4.9H165.5z"/>
<path class="svg-stroke" d="M195.5,357.1c-39.7,0-71.8-32.2-71.8-71.8s32.2-71.8,71.8-71.8c6.6,0,11.9,5.3,11.9,11.9
	c0,6.6-5.3,11.9-11.9,11.9c-26.5,0-48,21.5-48,48c0,26.5,21.5,48,48,48s48-21.5,48-48c0-10.9-3.7-21.5-10.5-30
	c-4.1-5.1-3.3-12.6,1.8-16.7s12.6-3.3,16.7,1.8c24.8,31,19.8,76.2-11.2,101C227.6,351.6,211.7,357.1,195.5,357.1L195.5,357.1z"/>
</svg>
