<?xml version="1.0" encoding="utf-8"?>
<!-- Generator: Adobe Illustrator 24.0.1, SVG Export Plug-In . SVG Version: 6.00 Build 0)  -->
<svg version="1.1" id="Layer_1" xmlns="http://www.w3.org/2000/svg" xmlns:xlink="http://www.w3.org/1999/xlink" x="0px" y="0px"
	 viewBox="0 0 507 512" style="enable-background:new 0 0 507 512;" xml:space="preserve">
<title>telephone-3</title>
<path class="svg-fill" d="M402.4,437.9c0-10.5-4.4-20.4-12.6-28.7c-5.1-5.6-10.6-11-16-16.1c-2.7-2.6-5.5-5.3-8.1-8l-23.4-23.4
	c-18-18-41.3-18-59.4,0c-2.4,2.4-4.9,4.8-7.3,7.2c-6.4,6.4-13.1,12.9-19.6,19.9c-11.6-5.2-23-12.4-36.5-23.2
	c-13.4-10.9-62.2-59.7-73.2-73.2c-10.7-13.5-17.9-25-23.2-36.5c7-6.4,13.5-13.1,19.9-19.6c2.4-2.4,4.8-4.9,7.2-7.3
	c18-18,18-41.3,0-59.4l-23.4-23.4c-2.7-2.7-5.4-5.4-8-8.1c-5.2-5.3-10.6-10.8-16.1-16c-8.3-8.2-18.3-12.6-28.7-12.6
	s-20.5,4.5-29.1,12.7l-0.2,0.2L33.4,134c-10.8,10.6-17.4,24.8-18.6,39.9c-2.1,25,5.3,48.4,11,63.6C39.6,275,60.4,309.7,91.3,347
	c11.2,13.3,23.2,26,35.9,37.8c11.8,12.7,24.4,24.7,37.8,35.8c37.2,31,72,51.7,109.5,65.6c15.3,5.7,38.6,13,63.6,11
	c15.1-1.2,29.3-7.8,39.9-18.6l11.6-11.4l0.2-0.2C398,458.5,402.4,448.4,402.4,437.9z"/>
<path class="svg-stroke" d="M507,237.1C507,106.4,400.7,0,270,0c-54.9,0-108.2,19.1-150.6,54c-6.1,5.1-7,14.2-1.9,20.3
	c5.1,6.1,14.1,7,20.2,2c37.3-30.6,84-47.4,132.3-47.4c114.9,0,208.3,93.4,208.3,208.3c-0.1,63.1-28.7,122.8-77.8,162.4l-0.2-0.2
	c-5.4-5.8-11.1-11.4-16.4-16.5l-0.2-0.1c-2.5-2.3-5-4.8-7.4-7.3l-23.8-23.8c-11.6-11.6-25.4-17.7-39.9-17.7s-28.3,6.1-39.9,17.7
	c-1.1,1.1-2.3,2.3-3.4,3.4s-2.6,2.5-3.8,3.7l-1.8,1.7c-3.5,3.5-7.1,7-10.8,10.7c-8.6-4.9-16.8-10.5-24.4-16.7
	c-12.9-10.5-60.4-58.1-71-71c-6.2-7.7-11.8-15.8-16.8-24.4c3.7-3.6,7.2-7.2,10.7-10.7l1.7-1.8c1.3-1.3,2.6-2.6,3.8-3.9
	c1.1-1.1,2.2-2.3,3.4-3.4c23.5-23.5,23.5-56.2,0-79.7L149,148.3c4.5-6.1,9.4-11.8,14.8-17.1c58.5-58.5,153.6-58.5,212,0
	c44.9,45,56.6,113.4,29.3,170.8c-3.4,7.2-0.4,15.8,6.8,19.2s15.8,0.4,19.2-6.8c32.6-68.4,18.7-149.9-34.9-203.5
	c-69.7-69.7-183.1-69.7-252.7,0c-5.3,5.3-10.3,10.9-14.9,16.8c-5-5.2-10.3-10.6-16-15.8c-10.9-11-24.3-16.7-38.6-16.7
	s-27.8,5.7-39.1,16.6l-0.2,0.2l-0.2,0.2l-0.1,0.1l-11.3,11.6c-13.2,13-21.3,30.3-22.7,48.8c-2.3,27.8,5.7,53.2,11.8,69.8
	c14.5,39.2,36.1,75.3,68.1,113.7C91.7,369.9,104,382.8,117,395c12.2,13,25.1,25.3,38.8,36.8c38.4,31.9,74.5,53.5,113.6,68
	c14.2,5.2,35.8,12.2,60,12.2l0,0c3.3,0,6.7-0.1,10-0.4c18.5-1.5,35.8-9.5,48.7-22.7l11.6-11.3l0.1-0.1l0.2-0.2l0.2-0.2
	c10.9-11.3,16.6-24.9,16.6-39.1c0-4.5-0.6-9-1.8-13.4C473,379.6,506.9,310.4,507,237.1z M379.5,457L368,468.4l-0.1,0.1
	c-8.2,8.4-19.2,13.6-30.9,14.4c-2.5,0.2-5,0.3-7.5,0.3l0,0c-19.5,0-37.8-6-49.9-10.4c-36-13.4-69.5-33.4-105.2-63.1
	c-12.9-10.8-25.1-22.3-36.6-34.6c-0.2-0.3-0.5-0.5-0.7-0.7c-12.3-11.4-23.8-23.6-34.6-36.5C72.7,302,52.6,268.5,39.2,232.5
	c-5.2-14.1-11.9-35.3-10.1-57.4c0.9-11.8,6-22.8,14.5-31l0.1-0.1L55,132.5c5.8-5.6,12.4-8.5,19.1-8.5s13,2.9,18.6,8.4l0.4,0.4
	c5.3,4.9,10.6,10.3,15.5,15.3c2.6,2.7,5.2,5.4,7.8,8l23.8,23.8c12.4,12.4,12.4,26.6,0,39c-1.2,1.2-2.4,2.4-3.6,3.6s-2.4,2.5-3.7,3.8
	l-1.9,1.8c-5.6,5.7-11.5,11.6-17.6,17.2c-4.6,4.2-6,10.9-3.4,16.5c5.7,12.7,13.7,25.2,25,39.5l0.1,0.2
	c11.7,14.4,60.9,63.6,75.3,75.3l0.1,0.1c14.3,11.3,26.9,19.3,39.5,25c5.7,2.6,12.3,1.2,16.5-3.4c5.6-6.1,11.5-12,17.3-17.6l1.9-1.8
	c1.2-1.2,2.4-2.4,3.7-3.6s2.4-2.4,3.6-3.6c6.1-6.1,12.8-9.3,19.5-9.3s13.4,3.2,19.5,9.3l23.8,23.8c2.6,2.6,5.3,5.2,8,7.8
	c5,4.9,10.4,10.1,15.3,15.5l0.4,0.4c3.9,3.9,8.4,10.3,8.4,18.6C388,444.6,385.1,451.2,379.5,457z"/>
<path class="svg-stroke" d="M274.8,258.4h-36.5c0.1-4.4,6.9-9,14.7-14.3c13.4-9.2,30-20.6,30-40.4c0-20.4-18.1-31.4-35.1-31.4
	c-16.6,0-34.1,10.2-34.1,29.2c0,8.7,3.9,13.2,11.6,13.2c8.6,0,13.3-5,13.3-9.7c0-7.8,5.1-9.4,9.4-9.4c7.1,0,9.6,4.8,9.6,8.8
	c0,8-9.9,15.2-20.4,22.9c-12.4,9.1-25.2,18.5-25.2,31.2v14c0,5.2,6.6,8.4,11.3,8.4h51.5c4.4,0,8.2-5.3,8.2-11.4
	S279.3,258.4,274.8,258.4z"/>
<path class="svg-stroke" d="M351.9,234.9h-4.8v-8.7c0-5-5-8.2-12.7-8.2s-12.7,3.2-12.7,8.2v8.7H313l24.6-49.3c0.5-1,0.8-2.2,0.8-3.3
	c0-6.2-8.2-10-12.7-10c-4.6-0.1-8.8,2.5-10.7,6.6l-33.4,65.5c-0.8,1.5-1.3,3.2-1.3,5c0,5.5,3.6,9.3,9,9.3h32.4v13.9
	c0,5.8,6.6,8.4,12.7,8.4s12.7-2.6,12.7-8.4v-13.9h4.8c4.3,0,8.4-5.8,8.4-11.9C360.3,241.1,357.7,234.9,351.9,234.9z"/>
</svg>
