<?xml version="1.0" encoding="utf-8"?>
<!-- Generator: Adobe Illustrator 24.0.1, SVG Export Plug-In . SVG Version: 6.00 Build 0)  -->
<svg version="1.1" id="Layer_1" xmlns="http://www.w3.org/2000/svg" xmlns:xlink="http://www.w3.org/1999/xlink" x="0px" y="0px"
	 viewBox="0 0 484.6 512" style="enable-background:new 0 0 484.6 512;" xml:space="preserve">
<title>television</title>
<path class="svg-fill" d="M67.1,404.7V198.5c0-8.6,7-15.6,15.6-15.6h239.7c8.6,0,15.6,7,15.6,15.6v0v206.2c0,8.6-7,15.6-15.6,15.6h0H82.7
	C74.1,420.3,67.1,413.3,67.1,404.7L67.1,404.7z"/>
<path class="svg-stroke" d="M322.4,434.4H82.7c-16.4,0-29.7-13.3-29.7-29.7V198.5c0-16.4,13.3-29.7,29.7-29.7h239.7
	c16.4,0,29.7,13.3,29.7,29.7v206.2C352.1,421.1,338.8,434.4,322.4,434.4z M82.7,196.9c-0.9,0-1.5,0.7-1.6,1.5c0,0,0,0,0,0v206.2
	c0,0.9,0.7,1.6,1.5,1.6c0,0,0,0,0,0h239.7c0.9,0,1.6-0.7,1.6-1.6V198.5c0-0.9-0.7-1.6-1.6-1.6H82.7z"/>
<path class="svg-stroke" d="M405.4,434.4c-23.1,0.4-42.2-18.1-42.5-41.2c-0.4-23.1,18.1-42.2,41.2-42.5c0.4,0,0.9,0,1.3,0
	c7.8,0,14.1,6.3,14.1,14.1c0,7.8-6.3,14.1-14.1,14.1c-7.6,0-13.7,6.1-13.7,13.7c0,7.6,6.1,13.7,13.7,13.7c7.6,0,13.7-6.1,13.7-13.7
	c0,0,0,0,0,0c0-7.8,6.3-14.1,14.1-14.1c7.8,0,14.1,6.3,14.1,14.1C447.3,415.6,428.5,434.4,405.4,434.4z"/>
<path class="svg-stroke" d="M422,323.4h-33.1c-7.8,0-14.1-6.3-14.1-14.1c0-7.8,6.3-14.1,14.1-14.1H422c7.8,0,14.1,6.3,14.1,14.1
	C436.1,317.1,429.8,323.4,422,323.4z"/>
<path class="svg-stroke" d="M422,273.4h-33.1c-7.8,0-14.1-6.3-14.1-14.1c0-7.8,6.3-14.1,14.1-14.1H422c7.8,0,14.1,6.3,14.1,14.1
	C436.1,267.1,429.8,273.4,422,273.4z"/>
<path class="svg-stroke" d="M422,223.4h-33.1c-7.8,0-14.1-6.3-14.1-14.1s6.3-14.1,14.1-14.1H422c7.8,0,14.1,6.3,14.1,14.1
	S429.8,223.4,422,223.4z"/>
<path class="svg-stroke" d="M336.6,459.2H28.2V143.9h116.3c7.8,0,14.1-6.3,14.1-14.1s-6.3-14.1-14.1-14.1H14.1c-7.8,0-14.1,6.3-14.1,14.1
	c0,0,0,0,0,0v343.5c0,7.8,6.3,14.1,14.1,14.1h30.1v10.5c0.2,7.8,6.7,13.9,14.5,13.7c7.5-0.2,13.5-6.2,13.7-13.7v-10.5h264.3
	c7.8,0,14.1-6.3,14.1-14.1C350.7,465.5,344.4,459.2,336.6,459.2z"/>
<path class="svg-stroke" d="M470.5,115.8H272.7L364.2,24c5.7-5.3,6-14.2,0.7-19.9c-5.3-5.7-14.2-6-19.9-0.7c-0.2,0.2-0.5,0.5-0.7,0.7
	L238.8,109.9l-78-78.3c-5.5-5.5-14.4-5.5-19.9-0.1c-5.5,5.5-5.5,14.4-0.1,19.9l0,0l88,88.3l0,0c0,0,0.1,0.1,0.1,0.1
	c0.3,0.3,0.6,0.5,0.9,0.8l0,0l0.5,0.4l0.6,0.4h0.1c0.2,0.1,0.4,0.2,0.6,0.3l0.6,0.3l0.1,0.1c0.2,0.1,0.4,0.2,0.6,0.3l0.6,0.3h0.1
	l0.6,0.2c0.2,0.1,0.4,0.2,0.6,0.2h0.1c0.2,0.1,0.4,0.1,0.6,0.1l0.7,0.2h0.1c0.2,0.1,0.5,0.1,0.7,0.1s0.4,0.1,0.6,0.1l0,0
	c0.5,0,0.9,0.1,1.4,0.1h217.8V459h-30.1c-7.8,0-14.1,6.3-14.1,14.1v24.6c0,7.8,6.3,14.1,14.1,14.1c7.8,0,14.1-6.3,14.1-14.1v-10.3
	h30.1c7.8,0,14.1-6.3,14.1-14.1V129.8C484.6,122.1,478.3,115.8,470.5,115.8z"/>
</svg>
