<?xml version="1.0" encoding="utf-8"?>
<!-- Generator: Adobe Illustrator 24.0.1, SVG Export Plug-In . SVG Version: 6.00 Build 0)  -->
<svg version="1.1" id="Layer_1" xmlns="http://www.w3.org/2000/svg" xmlns:xlink="http://www.w3.org/1999/xlink" x="0px" y="0px"
	 viewBox="0 0 512 511.4" style="enable-background:new 0 0 512 511.4;" xml:space="preserve">
<title>telephone-2</title>
<path class="svg-fill" d="M495.6,417c-18.7,10.7-38.5,16.2-59.2,16.2l0,0c-45.6,0-88.3-33-140.1-84.8L158.4,210.6
	c-40.9-41-67.7-68.8-76.3-106.1c-7.2-31.3-3-60.8,12.7-88.2c-7,2.1-13.4,5.9-18.6,11.2L53.3,50.4C17.1,86.6,8.1,123.5,18.5,168.2
	c8.6,37.3,33.8,76.9,74.7,117.9l132.6,132.6c51.8,51.8,101.2,78.1,146.8,78.1l0,0c33.6,0,60.7-10.2,88.8-38.3l22.9-22.9
	C489.6,430.5,493.5,424.1,495.6,417z"/>
<path class="svg-stroke" d="M497.3,443.1c16.2-18.4,19.3-44.9,7.7-66.5c-19-35.8-77.5-71.8-89.1-78.7l-0.2-0.1c-10.2-5.9-21.2-9-31.6-9
	c-16.3,0-30.4,7.7-38.9,21.2c-9.9,11.9-18,20.6-20.2,22.7c-6.5,4.4-11.9,6.6-16.9,6.9l-1.6-1.5L168.7,200.4
	c-39.9-40-64.8-66.1-72.4-99.1c-5.9-25.4-3.1-49.6,8.2-72.1c1.1-0.1,2.2-0.2,3.2-0.2c4.9,0,9.7,1.2,14.1,3.5
	c21.3,11.3,45.8,44.7,61.6,72.2l0.4,0.8c4.6,8.1,6.2,16.3,4.5,22.5c-1.1,4-3.8,7.4-7.4,9.4c-6.8,4.3-8.8,13.2-4.6,20
	c4.1,6.6,12.7,8.7,19.4,4.9c10-5.8,17.4-15.4,20.5-26.6c3.9-13.8,1.3-29.8-7.2-44.8l-0.1-0.2l-0.3-0.6c-11.1-19.2-40.4-66-73.2-83.4
	c-8.5-4.5-18-6.8-27.6-6.8c-13,0-25.7,4.3-36,12.3l-0.4,0.3c-0.7,0.6-1.5,1.2-2.2,1.8c-0.2,0.2-0.4,0.3-0.6,0.5
	c-0.8,0.8-1.7,1.5-2.5,2.3l-23,23C4.8,78.4-7.5,120.2,4.3,171.5c0.6,2.5,1.2,5,1.9,7.5c0.4,1.6,0.9,3.1,1.4,4.7
	c8.5,26.9,24.6,54.8,48.2,83.1c0.9,1.1,1.9,2.3,2.8,3.4s2,2.3,3.1,3.6c1.5,1.7,3.1,3.5,4.6,5.2c4,4.4,8.1,8.8,12.4,13.3
	c1.3,1.3,2.7,2.7,4,4L215.6,429c5.1,5.1,10.2,10,15.3,14.7c49.2,45,96.8,67.7,141.8,67.7l0,0c39.1,0,69.7-13.1,99.1-42.5l22.9-22.9
	c0.8-0.8,1.6-1.6,2.3-2.5L497.3,443.1z M341.7,356.4l0.3-0.2c5.5-3.9,21.3-22.7,26.1-28.4c0.5-0.6,0.9-1.2,1.3-1.9
	c3.2-5.4,8-8.1,14.7-8.1c5.4,0,11.3,1.8,17.1,5.1c23.1,13.7,65.5,43.2,78.2,67.2c2.8,5.3,4,11.3,3.4,17.2
	c-14.4,7.4-30.3,11.2-46.5,11.2c-33.6,0-67-21.8-104.7-56.4C335.1,360.6,338.5,358.6,341.7,356.4z M148.2,220.8L286,358.6
	c53.5,53.5,99.5,89.1,150.4,89.1c5.5,0,11.1-0.4,16.6-1.1l-1.8,1.8c-24.2,24.2-46.9,34-78.6,34l0,0c-41.6,0-87.6-24.9-136.6-73.9
	L103.4,275.9c-39-39-62.8-76.4-70.8-110.9c-9.7-41.7-0.4-72.9,31-104.3l1.7-1.7c-2,16.3-1.1,32.9,2.8,48.9
	C77.5,148.4,104.6,177.2,148.2,220.8z"/>
<path class="svg-stroke" d="M359,230.2c-0.7,0-1.4-0.1-2.1-0.1c-7.9-1.2-13.4-8.5-12.3-16.4c3.3-22.3-12.2-43-34.5-46.3
	c-3.9-0.6-7.9-0.6-11.8,0c-8,1-15.2-4.7-16.1-12.7c-0.9-7.7,4.3-14.7,12-16c38.2-5.6,73.6,20.9,79.2,59c1,6.7,1,13.5,0,20.1
	C372.3,224.9,366.2,230.2,359,230.2z"/>
<path class="svg-stroke" d="M415,225.8c-0.4,0-0.7,0-1.1,0c-8-0.6-14-7.5-13.4-15.5l0,0c3.8-50.8-34.2-95-85-98.8c-4.6-0.3-9.2-0.3-13.8,0
	c-8,0.8-15.1-5-15.9-13s5-15.1,13-15.9c0.2,0,0.5,0,0.7-0.1c66.7-5,124.9,45,129.9,111.8c0.5,6,0.5,12.1,0,18.1
	C428.9,220,422.6,225.8,415,225.8z"/>
</svg>
