<?xml version="1.0" encoding="utf-8"?>
<!-- Generator: Adobe Illustrator 24.0.1, SVG Export Plug-In . SVG Version: 6.00 Build 0)  -->
<svg version="1.1" id="Layer_1" xmlns="http://www.w3.org/2000/svg" xmlns:xlink="http://www.w3.org/1999/xlink" x="0px" y="0px"
	 viewBox="0 0 320.8 409.6" style="enable-background:new 0 0 320.8 409.6;" xml:space="preserve">
<title>telemarketer</title>
<path class="svg-fill" d="M276.1,367.9v-8.5c0-63.6-52.1-115.7-115.7-115.7s-115.7,52-115.7,115.7v8.5c0,16.6,13.4,30,30,30l0,0h171.5
	C262.7,397.9,276.1,384.5,276.1,367.9L276.1,367.9L276.1,367.9z"/>
<path class="svg-stroke" d="M246.1,409.6H74.6c-23,0-41.7-18.7-41.7-41.7v-8.5c0-70.4,57.1-127.5,127.5-127.5S287.9,289,287.9,359.4v8.5
	C287.8,390.9,269.2,409.6,246.1,409.6L246.1,409.6z M160.4,255.4c-57.4,0.1-103.9,46.6-104,104v8.5c0,10.1,8.2,18.2,18.2,18.2h171.5
	c10.1,0,18.2-8.2,18.2-18.2v-8.5C264.3,301.9,217.8,255.4,160.4,255.4L160.4,255.4z"/>
<path class="svg-stroke" d="M305.9,145.5h-23.5c0-67.4-54.6-122-122-122s-122,54.6-122,122H14.9C14.9,65.3,80.2,0,160.4,0
	S305.9,65.3,305.9,145.5z"/>
<path class="svg-stroke" d="M160.4,251.3c-57,0-103.2-46.2-103.2-103.2S103.4,44.9,160.4,44.9s103.2,46.2,103.2,103.2l0,0
	C263.5,205.1,217.3,251.2,160.4,251.3z M160.4,68.4c-44,0-79.7,35.7-79.7,79.7s35.7,79.7,79.7,79.7s79.7-35.7,79.7-79.7l0,0
	C240,104.1,204.4,68.5,160.4,68.4z"/>
<path class="svg-fill" d="M68.3,130.4c0-5.6-2.9-10.8-7.6-13.8c-15-9.4-34.7-4.9-44.1,10.1c-3.2,5.1-4.9,11.1-4.9,17.1v21.5
	c0,17.7,14.4,32,32.1,32.1c6,0,11.8-1.7,16.9-4.9c4.7-3,7.6-8.2,7.6-13.8V130.4z"/>
<path class="svg-stroke" d="M43.8,209.2C19.6,209.1,0,189.5,0,165.3v-21.5C0,119.6,19.5,100,43.7,100c8.2,0,16.3,2.3,23.3,6.7
	c8.2,5.1,13.1,14.1,13.1,23.8v48.4c0.1,9.7-4.9,18.7-13.1,23.8C60.1,206.9,52,209.2,43.8,209.2L43.8,209.2z M43.8,123.4
	c-11.2,0-20.3,9.1-20.4,20.4v21.5c0,11.2,9.1,20.3,20.4,20.4c3.8,0,7.5-1.1,10.7-3.1c1.3-0.9,2.1-2.3,2.1-3.9v-48.3
	c0-1.6-0.8-3-2.1-3.9C51.3,124.5,47.6,123.5,43.8,123.4z"/>
<path class="svg-fill" d="M252.4,130.4c0-5.6,2.9-10.8,7.6-13.8c15-9.4,34.7-4.9,44.1,10.1c3.2,5.1,4.9,11.1,4.9,17.1v21.5
	c0,17.7-14.4,32-32.1,32.1c-6,0-11.8-1.7-16.9-4.9c-4.7-3-7.6-8.2-7.6-13.8V130.4z"/>
<path class="svg-stroke" d="M276.9,209.2c-8.2,0-16.2-2.3-23.1-6.6c-8.2-5.1-13.2-14.1-13.1-23.8v-48.4c-0.1-9.7,4.9-18.7,13.1-23.8
	c20.5-12.8,47.5-6.6,60.3,13.9c4.4,7,6.7,15.1,6.7,23.3v21.5C320.8,189.5,301.2,209.1,276.9,209.2L276.9,209.2z M276.9,123.4
	c-3.8,0-7.5,1.1-10.7,3.1c-1.3,0.9-2.1,2.3-2.1,3.9v48.4c0,1.6,0.8,3,2.1,3.9c9.5,5.9,22.1,3,28-6.5c2-3.2,3.1-7,3.1-10.8v-21.5
	C297.3,132.6,288.2,123.5,276.9,123.4z"/>
<path class="svg-stroke" d="M251.2,195.9h-83.3c-6.5,0-11.7-5.2-11.7-11.7s5.2-11.7,11.7-11.7l0,0h83.3c6.5,0,11.7,5.3,11.7,11.7
	C262.9,190.7,257.6,195.9,251.2,195.9z"/>
</svg>
