<?xml version="1.0" encoding="utf-8"?>
<!-- Generator: Adobe Illustrator 24.0.1, SVG Export Plug-In . SVG Version: 6.00 Build 0)  -->
<svg version="1.1" id="Layer_1" xmlns="http://www.w3.org/2000/svg" xmlns:xlink="http://www.w3.org/1999/xlink" x="0px" y="0px"
	 viewBox="0 0 373.8 512" style="enable-background:new 0 0 373.8 512;" xml:space="preserve">
<title>tie</title>
<path class="svg-fill" d="M321.5,13.4L186.9,64l79.3,104.4l94.1-106.2L321.5,13.4z"/>
<path class="svg-fill" d="M13.4,62.2l94.1,106.2L186.9,64L52.3,13.4L13.4,62.2z"/>
<path class="svg-stroke" d="M370.9,53.9L332,5.1c-3.6-4.5-9.8-6.2-15.2-4.2L186.9,49.7L57,0.9c-5.5-2-11.6-0.4-15.2,4.2L2.9,53.9
	c-4,5.1-3.8,12.4,0.5,17.3l94.1,106.2c2.5,2.9,6.2,4.5,10,4.5h0.5c4-0.2,7.8-2.1,10.2-5.3l4.9-6.4l22.8,26.1l-40.3,244.8
	c-0.8,4.8,1,9.6,4.8,12.6l68.1,55.3c4.9,4,12,4,16.9,0l68.1-55.3c3.7-3,5.6-7.9,4.8-12.6l-26.9-163.3c0-0.1,0-0.1-0.1-0.2
	c-0.1-0.3-0.1-0.5-0.2-0.8s-0.1-0.4-0.1-0.5s-0.1-0.5-0.2-0.7s-0.1-0.4-0.2-0.6s-0.2-0.4-0.3-0.6s-0.2-0.4-0.3-0.6s-0.2-0.4-0.3-0.5
	s-0.2-0.4-0.4-0.6l-0.3-0.5l-0.4-0.6l-0.4-0.5c-0.1-0.2-0.3-0.3-0.5-0.5s-0.3-0.3-0.5-0.5s-0.3-0.3-0.5-0.4l-0.6-0.4
	c-0.1-0.1-0.3-0.2-0.4-0.3s-0.4-0.3-0.6-0.4l-0.4-0.3c-0.2-0.1-0.5-0.2-0.7-0.4l-0.4-0.2l-0.7-0.3l-0.5-0.2l-0.7-0.2
	c-0.2,0-0.4-0.1-0.6-0.1s-0.4-0.1-0.6-0.1l-0.7-0.1h-0.6c-0.2,0-0.5,0-0.8,0h-0.2H194c-7.4,0-13.4,6-13.4,13.4s6,13.4,13.4,13.4
	h22.8l23.8,144.4L187,481.4l-53.6-43.5l38.4-233.1h42.8c3.9,0,7.6-1.7,10.1-4.6l26.1-29.9l4.9,6.4c2.4,3.2,6.2,5.1,10.2,5.3h0.5
	c3.8,0,7.5-1.7,10-4.5l94.2-106.2C374.8,66.3,375,59,370.9,53.9z M106.8,147.3L31,61.8l25.7-32.3l108.6,40.8L106.8,147.3z
	 M208.4,177.8h-43l-25.7-29.5l47.2-62.1l47.2,62.1L208.4,177.8z M267.1,147.3l-58.6-77l108.6-40.9l25.8,32.3L267.1,147.3z"/>
</svg>
