<?xml version="1.0" encoding="utf-8"?>
<!-- Generator: Adobe Illustrator 24.0.1, SVG Export Plug-In . SVG Version: 6.00 Build 0)  -->
<svg version="1.1" id="Layer_1" xmlns="http://www.w3.org/2000/svg" xmlns:xlink="http://www.w3.org/1999/xlink" x="0px" y="0px"
	 viewBox="0 0 512 338.3" style="enable-background:new 0 0 512 338.3;" xml:space="preserve">
<title>truck</title>
<circle class="svg-fill" cx="106.1" cy="275.9" r="48.2"/>
<path class="svg-fill" d="M261.3,22.6V269h70.5c3.8-26.3,28.2-44.6,54.5-40.8c21.2,3,37.8,19.7,40.8,40.8h70.7V22.6H261.3z"/>
<path class="svg-stroke" d="M497.8,8.4H261.3c-7.8,0-14.2,6.3-14.2,14.2l0,0v232.3h-34.5v-71.7c0-7.8-6.4-14.2-14.2-14.2
	s-14.2,6.3-14.2,14.2v71.7h-19.4c-11.6-32.4-47.3-49.3-79.8-37.6c-17.5,6.3-31.3,20.1-37.6,37.6h-9.5c-5.3,0-9.6-4.3-9.6-9.6v-47.5
	c0-2.8,1.3-5.5,3.4-7.4c0.3-0.2,0.5-0.4,0.8-0.7l34.3-33.3h51.9c7.8-0.2,14-6.7,13.8-14.5c-0.2-7.5-6.3-13.6-13.8-13.8H79.8
	l25.8-67.9c8.8-19.3,28-31.8,49.2-31.9l29.4,0.1v57.4c0,7.8,6.3,14.2,14.2,14.2c7.8,0,14.2-6.3,14.2-14.2l0,0V14.3
	c0-7.8-6.3-14.1-14.1-14.2L154.8,0c-32.5,0.1-62,19.3-75.3,49c-0.1,0.2-0.2,0.5-0.3,0.7l-33.1,87.2L13,169c-8.2,7.3-13,17.8-13,28.8
	v47.5c0,20.9,17,37.9,37.9,37.9h6.2c4,34.2,35,58.7,69.2,54.6c28.7-3.4,51.3-26,54.6-54.6h149.5c3.7,31.4,30.3,55,61.9,55.1
	c7.8,0,14.2-6.3,14.2-14.2c0-7.8-6.3-14.2-14.2-14.2l0,0c-18.8,0-34-15.2-34-34c0-1.7,0.1-3.3,0.4-4.9c0.1-1,0.3-1.9,0.6-2.9
	l0.1-0.3c0.2-0.9,0.5-1.8,0.8-2.7c0-0.1,0.1-0.2,0.1-0.3c0.3-0.9,0.6-1.8,1-2.6c0,0,0-0.1,0.1-0.2c4.6-10.2,13.9-17.5,24.9-19.6h0.1
	c1-0.2,2-0.3,2.9-0.4h0.2c1-0.1,2-0.1,3-0.1s2,0.1,3,0.1h0.2c1,0.1,2,0.2,3,0.4h0.1c11,2.1,20.3,9.4,24.9,19.6l0.1,0.1
	c0.4,0.9,0.7,1.7,1,2.6c0,0.1,0.1,0.2,0.1,0.3c0.3,0.9,0.6,1.8,0.8,2.7l0.1,0.3c0.2,1,0.4,1.9,0.5,2.9c0.2,1.6,0.4,3.3,0.4,4.9
	c0,7.8,6.3,14.2,14.1,14.2c5,0,9.6-2.6,12.2-6.9h58.1c7.8,0,14.2-6.3,14.2-14.2l0,0V22.6C512,14.8,505.7,8.4,497.8,8.4L497.8,8.4z
	 M106.1,309.9c-18.8,0-34-15.2-34-34s15.2-34,34-34s34,15.2,34,34C140.1,294.7,124.9,309.9,106.1,309.9z M483.7,254.8h-45.6
	c-0.2-0.7-0.5-1.4-0.8-2.1l-0.1-0.2c-0.3-0.7-0.6-1.4-0.9-2.1v-0.1c-8.9-19.7-27.3-33.4-48.8-36.3l-1.1-0.1l-1.4-0.1l-1.7-0.1
	c-0.4,0-0.7-0.1-1.1-0.1c-1-0.1-1.9-0.1-2.9-0.1s-1.9,0-2.9,0.1c-0.4,0-0.7,0-1.1,0.1l-1.7,0.1l-1.4,0.1l-1.1,0.1
	c-21.4,2.8-39.9,16.5-48.8,36.2v0.1c-0.3,0.7-0.6,1.4-0.9,2.1l-0.1,0.3c-0.3,0.7-0.5,1.3-0.8,2h-45.3v-218h208.2v218.1H483.7z"/>
</svg>
