<?xml version="1.0" encoding="utf-8"?>
<!-- Generator: Adobe Illustrator 24.0.1, SVG Export Plug-In . SVG Version: 6.00 Build 0)  -->
<svg version="1.1" id="Layer_1" xmlns="http://www.w3.org/2000/svg" xmlns:xlink="http://www.w3.org/1999/xlink" x="0px" y="0px"
	 viewBox="0 0 441.4 512" style="enable-background:new 0 0 441.4 512;" xml:space="preserve">
<title>user</title>
<path class="svg-fill" d="M254.9,457c-14.9-8.1-24.1-23.7-24.1-40.6V285.6c26.5,11.1,57.1,4.9,77.1-15.6c-19-26.2-49.3-41.6-81.6-41.6
	H115.7c-55.7,0-100.9,45.2-100.9,100.9l0,0v167.9h312.4v-0.8L254.9,457z"/>
<path class="svg-stroke" d="M426.6,270.8c-8.2,0-14.8,6.6-14.9,14.8v130.7c0,11.5-6.3,22.1-16.4,27.6l-66.7,36.3L262,443.9
	c-10.1-5.5-16.4-16.1-16.4-27.6V305c4.1,0.6,8.2,0.9,12.3,0.9c1.3,0,2.5,0,3.8-0.1h1c1.1-0.1,2.2-0.1,3.4-0.2l1.6-0.2l1.6-0.2
	c15-2,29.3-8,41.1-17.5l1.1-0.9l1.3-1.1c0.9-0.7,1.7-1.5,2.5-2.2l0.4-0.4c1-0.9,1.9-1.8,2.8-2.7l0,0l0,0c3.8-3.9,7.2-8.1,10.1-12.6
	c7.2,10.9,16.8,19.9,28,26.5c7.1,4.1,16.2,1.8,20.3-5.3c4.1-7.1,1.8-16.2-5.3-20.3c-10-5.9-17.9-14.8-22.6-25.5
	c-2.4-5.4-7.7-8.8-13.6-8.9h-13.5c-5.9,0-11.2,3.5-13.6,8.9c-0.5,1-0.9,2-1.4,3c-12.8-12.4-28.4-21.7-45.4-27.2
	c17.4-16.5,27.2-39.4,27.2-63.3V87.5c-0.2-8.2-7-14.7-15.2-14.5c-7.9,0.2-14.3,6.6-14.5,14.5v68.3c0,31.6-25.5,57.4-57.1,57.8h-62
	c-31.6-0.5-57-26.2-57-57.8V87.5c0-31.9,25.9-57.8,57.8-57.8h60.5c8.2-0.2,14.7-7,14.5-15.2c-0.2-7.9-6.6-14.3-14.5-14.5h-60.5
	C92.5,0.1,53.3,39.2,53.3,87.5v68.3c0,23.9,9.8,46.8,27.2,63.3C32.6,234.5,0.1,279,0,329.3v167.9c0,8.2,6.6,14.8,14.8,14.8h312.4
	c0.3,0,0.5,0,0.8,0s0.4,0,0.7,0c2.5,0,4.9-0.6,7.1-1.8l73.8-40.2c19.6-10.7,31.9-31.3,31.9-53.6V285.6
	C441.4,277.4,434.8,270.8,426.6,270.8z M29.7,482.3v-153c0.1-47.5,38.5-85.9,86-86H140h0.7h15.4v144.1c0,8.2,6.6,14.8,14.8,14.8
	s14.8-6.6,14.8-14.8l0,0V243.3h15.4h0.7h24.3c22.6,0,44.3,9,60.4,24.8c-6.3,3.9-13.3,6.4-20.6,7.5h0.1c-1.1,0.2-2.3,0.3-3.5,0.4
	l-0.6,0.1c-1.2,0.1-2.5,0.1-3.7,0.1H258c-7.3,0-14.6-1.4-21.4-4.3c-7.5-3.2-16.3,0.3-19.4,7.9c-0.8,1.8-1.2,3.8-1.2,5.8v130.7
	c0,22.4,12.2,42.9,31.8,53.7l22.6,12.3H29.7z"/>
<path class="svg-stroke" d="M327.2,405.9c-2.5,0-5-0.6-7.2-1.9l-24.9-13.9c-7.2-4-9.7-13-5.7-20.2s13-9.7,20.2-5.7l15.7,8.7l34.1-30.1
	c6.1-5.4,15.5-4.9,21,1.3c5.4,6.1,4.9,15.5-1.3,21l0,0l-42,37.1C334.3,404.6,330.8,405.9,327.2,405.9z"/>
</svg>
