<?xml version="1.0" encoding="utf-8"?>
<!-- Generator: Adobe Illustrator 24.0.1, SVG Export Plug-In . SVG Version: 6.00 Build 0)  -->
<svg version="1.1" id="Layer_1" xmlns="http://www.w3.org/2000/svg" xmlns:xlink="http://www.w3.org/1999/xlink" x="0px" y="0px"
	 viewBox="0 0 409.6 332" style="enable-background:new 0 0 409.6 332;" xml:space="preserve">
<title>video-editing</title>
<path class="svg-stroke" d="M318,0H53.9C24.2,0.1,0.1,24.2,0,53.9v210.8c0,29.8,24.2,53.9,53.9,53.9H318c29.8,0,54-24.1,54-53.9V53.9
	C371.9,24.1,347.8,0,318,0z M349.3,264.7c0,17.3-14,31.3-31.3,31.3H54c-17.3,0-31.3-14-31.3-31.3V53.9c0-17.3,13.9-31.3,31.2-31.3
	H318c17.3,0,31.3,14,31.3,31.3V264.7z"/>
<path class="svg-fill" d="M152.5,189.9v-65.7c0-3.8,3-6.8,6.8-6.8c1.2,0,2.3,0.3,3.3,0.9l57.9,32.8c3.3,1.9,4.4,6,2.6,9.3
	c-0.6,1.1-1.5,1.9-2.6,2.6l-57.9,32.8c-3.3,1.9-7.4,0.7-9.3-2.6C152.8,192.2,152.5,191.1,152.5,189.9L152.5,189.9z"/>
<path class="svg-stroke" d="M159.3,208c-10,0-18.1-8.1-18.1-18.1v-65.7c0-10,8.1-18.1,18.1-18.1c3.1,0,6.2,0.8,8.9,2.3l57.9,32.9
	c8.7,4.9,11.8,16,6.8,24.7c-1.6,2.9-4,5.2-6.8,6.8l-57.9,32.8C165.5,207.2,162.4,208,159.3,208z M163.8,132v50.1L208,157L163.8,132z
	"/>
<path class="svg-stroke" d="M186,261.2c-56.3,0-101.9-45.7-101.9-101.9c0.2-6.3,5.4-11.2,11.7-11c6,0.2,10.8,5,11,11
	c0,43.8,35.5,79.3,79.3,79.3s79.3-35.5,79.3-79.3S229.8,80,186,80l0,0c-6.3-0.2-11.2-5.4-11-11.7c0.2-6,5-10.8,11-11
	c56.3,0.6,101.5,46.6,100.9,102.9C286.4,215.8,241.5,260.7,186,261.2z"/>
<path class="svg-fill" d="M201.7,314.2l-30.6,6.3c-2.2,0.5-4.3-1-4.8-3.2c-0.1-0.5-0.1-1.1,0-1.6l6.3-30.6c0.4-1.9,1.3-3.6,2.7-5
	L362.2,93.2c6.2-6.2,16.3-6.2,22.5,0l0,0l8.9,8.9c6.2,6.2,6.2,16.3,0,22.5l0,0L206.7,311.5C205.4,312.9,203.6,313.8,201.7,314.2z"/>
<path class="svg-stroke" d="M401.6,94.1l-8.9-8.9c-10.6-10.6-27.9-10.6-38.5,0l-20.5,20.5c-0.8,0.5-1.6,1.1-2.3,1.9c-0.5,0.6-1,1.2-1.4,1.8
	L167.3,272.2c-3,2.9-5,6.6-5.8,10.7l-6.3,30.6c-0.2,1-0.3,2.1-0.3,3.1c0,8.5,6.9,15.4,15.4,15.4c1,0,2.1-0.1,3.1-0.4l30.6-6.3
	c4-0.9,7.8-2.9,10.7-5.8l163.8-163.8c0.3-0.2,0.5-0.4,0.8-0.7s0.6-0.6,0.8-0.9l21.5-21.5C412.2,122,412.2,104.7,401.6,94.1z
	 M199.1,303.3l-19.4,4l4-19.4L340,131.7l15.4,15.4L199.1,303.3z M385.7,116.7L371.3,131L356,115.7l14.4-14.4c0.8-0.8,2-1.3,3.2-1.3
	s2.3,0.4,3.2,1.3l8.9,8.9C387.5,112,387.5,114.9,385.7,116.7z"/>
</svg>
