<?xml version="1.0" encoding="utf-8"?>
<!-- Generator: Adobe Illustrator 24.0.1, SVG Export Plug-In . SVG Version: 6.00 Build 0)  -->
<svg version="1.1" id="Layer_1" xmlns="http://www.w3.org/2000/svg" xmlns:xlink="http://www.w3.org/1999/xlink" x="0px" y="0px"
	 viewBox="0 0 512 442.8" style="enable-background:new 0 0 512 442.8;" xml:space="preserve">
<title>video</title>
<path class="svg-fill" d="M13.8,47.7v69.9h484.3V47.7c0-18.7-15.2-33.9-33.9-33.9H47.8C29,13.8,13.8,29,13.8,47.7z"/>
<path class="svg-stroke" d="M498.3,195.6c-7.7,0-13.9,6.2-13.9,13.8v185.7c0,11.1-9,20.1-20.1,20.1H47.8c-11.1-0.1-20.1-9-20.1-20.1V131.5
	h470.5c7.6,0,13.8-6.2,13.8-13.9V47.7C512,21.4,490.6,0,464.3,0H47.8C21.4,0,0,21.4,0,47.7v70v277.4c0,26.3,21.4,47.7,47.8,47.7
	h416.4c26.4,0,47.8-21.4,47.9-47.8V209.4C512.1,201.8,505.9,195.6,498.3,195.6z M275.6,27.7l-76.2,76.1H47.1l76.2-76.1H275.6z
	 M429.9,103.8l54.4-54.4v54.4H429.9z M466.7,27.9l-75.9,75.9H238.6l76.2-76.1h149.4C465.1,27.7,465.9,27.8,466.7,27.9z M27.7,47.1
	c0.4-10.7,9.2-19.4,20.1-19.4h36.4L27.7,84.1V47.8C27.7,47.6,27.7,47.3,27.7,47.1z"/>
<polygon class="svg-fill" points="202.7,191.3 337,270.9 202.7,350.5 "/>
<path class="svg-stroke" d="M202.7,364.4c-7.6,0-13.8-6.2-13.8-13.8l0,0V191.3c0-7.6,6.2-13.8,13.8-13.8c2.5,0,4.9,0.7,7.1,1.9L344,259
	c6.6,3.9,8.7,12.4,4.9,18.9c-1.2,2-2.9,3.7-4.9,4.9l-134.2,79.7C207.7,363.7,205.2,364.4,202.7,364.4z M216.6,215.6v110.7l93.3-55.3
	L216.6,215.6z"/>
</svg>
