<?xml version="1.0" encoding="utf-8"?>
<!-- Generator: Adobe Illustrator 24.0.1, SVG Export Plug-In . SVG Version: 6.00 Build 0)  -->
<svg version="1.1" id="Layer_1" xmlns="http://www.w3.org/2000/svg" xmlns:xlink="http://www.w3.org/1999/xlink" x="0px" y="0px"
	 viewBox="0 0 409.6 350.3" style="enable-background:new 0 0 409.6 350.3;" xml:space="preserve">
<title>video-2</title>
<path class="svg-fill" d="M312.8,275H10.7v17.3c0,26.1,21.2,47.3,47.3,47.3h293.6c26.2,0,47.4-21.2,47.4-47.4l0,0V275"/>
<path class="svg-fill" d="M175.6,169.8v-57.3c0-3.3,2.7-5.9,5.9-5.9c1,0,2,0.3,2.9,0.8l50.5,28.6c2.8,1.6,3.8,5.2,2.2,8.1
	c-0.5,0.9-1.3,1.7-2.2,2.2l-50.5,28.6c-2.8,1.6-6.4,0.6-8.1-2.2C175.9,171.8,175.6,170.8,175.6,169.8L175.6,169.8z"/>
<path class="svg-stroke" d="M181.5,186.4c-9.2,0-16.6-7.4-16.6-16.6v-57.3c0-9.2,7.4-16.6,16.5-16.6c2.9,0,5.7,0.7,8.2,2.2l50.5,28.6
	c8,4.5,10.8,14.6,6.2,22.6c-1.5,2.6-3.6,4.8-6.2,6.2l-50.5,28.6C187.2,185.6,184.4,186.4,181.5,186.4L181.5,186.4z M186.3,120.7
	v40.9l36.1-20.5L186.3,120.7z"/>
<path class="svg-stroke" d="M204.8,232.8c-49.5-0.1-89.6-40.2-89.7-89.6c0.2-5.9,5.1-10.5,11-10.3c5.6,0.2,10.2,4.7,10.3,10.3
	c0,37.7,30.6,68.3,68.3,68.3s68.3-30.6,68.3-68.3s-30.6-68.3-68.3-68.3c-5.9,0-10.7-4.8-10.7-10.7s4.8-10.7,10.7-10.7
	c49.5,0,89.7,40.1,89.7,89.6S254.3,232.8,204.8,232.8L204.8,232.8L204.8,232.8z"/>
<path class="svg-stroke" d="M351.6,0H58C26,0.1,0.1,26,0,58v217v17.3c0.1,32,26,57.9,58,58h293.6c32,0,57.9-26,58-58V275V58
	C409.5,26,383.6,0.1,351.6,0z M58,329c-20.3,0-36.7-16.5-36.7-36.7v-6.6h60.9v10c0,5.9,4.8,10.7,10.7,10.7c5.9,0,10.7-4.8,10.7-10.7
	v-10h209.2c5.9,0,10.7-4.8,10.7-10.7s-4.8-10.7-10.7-10.7H103.6v-10.9c0-5.9-4.8-10.7-10.7-10.7c-5.9,0-10.7,4.8-10.7,10.7v10.9
	H21.3V58C21.4,37.7,37.8,21.3,58,21.3h293.6c20.3,0,36.7,16.4,36.7,36.7v217v17.3c0,7.6-2.3,14.7-6.3,20.5c-1.3,2-2.8,3.8-4.5,5.4
	c-0.8,0.8-1.7,1.6-2.6,2.4c-1.8,1.5-3.8,2.8-5.9,3.9c-5.2,2.8-11.2,4.4-17.5,4.4H58z"/>
</svg>
