<?xml version="1.0" encoding="utf-8"?>
<!-- Generator: Adobe Illustrator 24.0.1, SVG Export Plug-In . SVG Version: 6.00 Build 0)  -->
<svg version="1.1" id="Layer_1" xmlns="http://www.w3.org/2000/svg" xmlns:xlink="http://www.w3.org/1999/xlink" x="0px" y="0px"
	 viewBox="0 0 409.6 318.7" style="enable-background:new 0 0 409.6 318.7;" xml:space="preserve">
<title>watercolor</title>
<path class="svg-stroke" d="M254.7,315.3c-41.1,0.1-80.5-16.2-109.6-45.3l-18.7-18.7c-19.2-19.3-19-50.6,0.3-69.7c19.2-19,50.2-19,69.4,0
	c1.4,1.4,3.6,1.4,5,0s1.4-3.6,0-5l-56-56c-19.2-19.3-19.2-50.4,0-69.7c61.3-59.7,159.4-58.3,219.1,3c58.5,60.2,58.5,156,0,216.1
	C335.2,299.1,295.8,315.5,254.7,315.3L254.7,315.3z M161.3,189.7c-14.8,0-26.7,12-26.7,26.7c0,7.1,2.8,13.9,7.8,18.9l18.7,18.7
	c51.7,51.7,135.5,51.7,187.2,0s51.7-135.5,0-187.2s-135.5-51.7-187.1,0c-10.4,10.4-10.4,27.3,0,37.8l56,56
	c10,10.4,9.7,26.9-0.7,36.9c-10.1,9.7-26.1,9.7-36.2,0C175.2,192.5,168.4,189.7,161.3,189.7L161.3,189.7z"/>
<path class="svg-fill" d="M309.9,215.2c-9.6-9.6-25.1-9.6-34.6,0c-9.6,9.6-9.6,25.1,0,34.6c9.6,9.6,25.1,9.6,34.6,0
	C319.5,240.3,319.5,224.8,309.9,215.2L309.9,215.2z"/>
<path class="svg-stroke" d="M292.6,268.3c-19.8,0-35.8-16-35.8-35.8s16-35.8,35.8-35.8s35.8,16,35.8,35.8c0,9.5-3.8,18.6-10.5,25.3
	C311.2,264.6,302.1,268.3,292.6,268.3z M292.6,219.3c-7.3,0-13.2,5.9-13.2,13.2s5.9,13.2,13.2,13.2s13.2-5.9,13.2-13.2
	c0-3.5-1.4-6.9-3.9-9.3C299.4,220.7,296.1,219.3,292.6,219.3z"/>
<path class="svg-fill" d="M263.3,55.5c-13.1-3.5-26.5,4.3-30,17.3c-3.5,13.1,4.2,26.5,17.3,30c13.1,3.5,26.5-4.2,30-17.3
	C284.2,72.5,276.4,59,263.3,55.5L263.3,55.5z"/>
<path class="svg-stroke" d="M257,115c-19.8,0-35.8-16-35.8-35.7c0-19.8,16-35.8,35.7-35.8s35.8,16,35.8,35.7c0,12.8-6.8,24.6-17.9,31
	C269.4,113.3,263.3,115,257,115z M256.9,66c-2.3,0-4.6,0.6-6.6,1.8c-3,1.7-5.3,4.6-6.1,8c-1.9,7,2.3,14.3,9.3,16.2l0,0
	c7.1,1.8,14.3-2.5,16.1-9.5s-2.3-14-9.2-16C259.3,66.1,258.1,66,256.9,66L256.9,66z"/>
<path class="svg-fill" d="M345.6,121.5c-9.6-9.6-25.1-9.6-34.6,0s-9.6,25.1,0,34.6c9.6,9.6,25.1,9.6,34.6,0c6.2-6.2,8.6-15.2,6.4-23.6
	C350.8,128.4,348.6,124.6,345.6,121.5z"/>
<path class="svg-stroke" d="M328.3,174.6L328.3,174.6c-16.2,0-30.4-10.9-34.6-26.5c-5.1-19.1,6.3-38.7,25.4-43.8c3-0.8,6.1-1.2,9.2-1.2
	c19.8,0,35.8,16,35.8,35.7c0,16.2-10.9,30.4-26.6,34.6C334.5,174.2,331.4,174.7,328.3,174.6L328.3,174.6z M328.2,125.6
	c-1.1,0-2.3,0.1-3.4,0.4c-7,1.9-11.2,9.1-9.3,16.2c1.5,5.8,6.8,9.8,12.8,9.8c1.1,0,2.3-0.2,3.4-0.4c7-1.9,11.2-9.1,9.3-16.2
	c-0.6-2.2-1.8-4.3-3.4-5.9C335.1,127,331.7,125.6,328.2,125.6L328.2,125.6z"/>
<path class="svg-fill" d="M98.5,75.7c0-34.4-43.6-62.3-43.6-62.3S11.3,41.3,11.3,75.7c0,19.4,6.2,36.7,15.9,48.1c5.4,6.4,11.9,10.9,19,13
	c2.9,0.8,5.8,1.3,8.8,1.3c0.5,0,1.1,0,1.6-0.1C79.9,136.8,98.6,109.4,98.5,75.7L98.5,75.7z"/>
<path class="svg-stroke" d="M109.8,75.7C109.8,35.6,63,5.2,61,3.9L54.9,0l-6.1,3.9C46.8,5.2,0,35.6,0,75.7c0,21.3,6.8,41.5,18.5,55.4
	c1.8,2.1,3.7,4,5.6,5.8h-3.7v22.6h4.3V290c0,15.8,12.9,28.7,28.7,28.7h3.1c15.8,0,28.7-12.8,28.8-28.7V159.5h4.2v-22.6h-4
	C100.2,123.7,109.8,101.2,109.8,75.7z M54.9,27.2C67.5,37,87.2,56.3,87.2,75.7c0,27.2-14,50.1-31.3,51c-2.2,0.1-4.5-0.2-6.6-0.8
	c-4.8-1.4-9.5-4.6-13.5-9.4c-8.4-9.9-13.2-24.8-13.2-40.8C22.6,56.2,42.3,36.9,54.9,27.2z M62.6,290c-0.1,3.3-2.8,6.1-6.2,6.1h-3.1
	c-3.3,0-6.1-2.7-6.1-6.1V160.6h15.4V290z"/>
</svg>
