<?xml version="1.0" encoding="utf-8"?>
<!-- Generator: Adobe Illustrator 24.0.1, SVG Export Plug-In . SVG Version: 6.00 Build 0)  -->
<svg version="1.1" id="Layer_1" xmlns="http://www.w3.org/2000/svg" xmlns:xlink="http://www.w3.org/1999/xlink" x="0px" y="0px"
	 viewBox="0 0 409.6 325.5" style="enable-background:new 0 0 409.6 325.5;" xml:space="preserve">
<title>web</title>
<path class="svg-stroke" d="M371.7,249v-59.6c0-27.8-22.6-50.4-50.4-50.4H215.5V97.2h10c15.4,0,27.9-12.5,27.9-27.9V27.9
	c0-15.4-12.5-27.9-27.9-27.9h-41.3c-15.4,0-27.9,12.5-27.9,27.9v41.3c0,15.4,12.5,27.9,27.9,27.9h10V139H88.3
	c-27.8,0-50.3,22.6-50.4,50.4V258h21.4v-68.6c0-16,13-29,29-29h105.8v88.7h21.4v-88.7h105.8c16,0,29,13,29,29V249H371.7z
	 M177.6,69.3V27.9c0-3.6,2.9-6.5,6.5-6.5h41.3c3.6,0,6.5,2.9,6.5,6.5v41.3c0,3.6-2.9,6.5-6.5,6.5h-41.3
	C180.5,75.8,177.6,72.9,177.6,69.3z"/>
<path class="svg-fill" d="M69.3,314.8H27.9c-9.5,0-17.2-7.7-17.2-17.2l0,0v-41.4c0-9.5,7.7-17.2,17.2-17.2h41.3c9.5,0,17.2,7.7,17.2,17.2
	v41.4C86.5,307.1,78.8,314.8,69.3,314.8L69.3,314.8z"/>
<path class="svg-stroke" d="M69.3,325.5H27.9C12.5,325.5,0,313,0,297.6v-41.4c0-15.4,12.5-27.9,27.9-27.9h41.3c15.4,0,27.9,12.5,27.9,27.9
	v41.4C97.2,313,84.7,325.5,69.3,325.5z M27.9,249.7c-3.6,0-6.5,2.9-6.5,6.5v41.4c0,3.6,2.9,6.5,6.5,6.5h41.3c3.6,0,6.5-2.9,6.5-6.5
	v-41.4c0-3.6-2.9-6.5-6.5-6.5L27.9,249.7L27.9,249.7z"/>
<path class="svg-fill" d="M225.5,314.8h-41.3c-9.5,0-17.2-7.7-17.2-17.2l0,0v-41.4c0-9.5,7.7-17.2,17.2-17.2h41.3
	c9.5,0,17.2,7.7,17.2,17.2v41.4C242.7,307.1,235,314.8,225.5,314.8L225.5,314.8z"/>
<path class="svg-stroke" d="M225.5,325.5h-41.3c-15.4,0-27.9-12.5-27.9-27.9v-41.4c0-15.4,12.5-27.9,27.9-27.9h41.3
	c15.4,0,27.9,12.5,27.9,27.9v41.4C253.4,313,240.9,325.5,225.5,325.5z M184.1,249.7c-3.6,0-6.5,2.9-6.5,6.5v41.4
	c0,3.6,2.9,6.5,6.5,6.5h41.3c3.6,0,6.5-2.9,6.5-6.5v-41.4c0-3.6-2.9-6.5-6.5-6.5L184.1,249.7L184.1,249.7z"/>
<path class="svg-fill" d="M381.7,314.8h-41.3c-9.5,0-17.2-7.7-17.2-17.2l0,0v-41.4c0-9.5,7.7-17.2,17.2-17.2l0,0h41.3
	c9.5,0,17.2,7.7,17.2,17.2l0,0v41.4C398.9,307.1,391.2,314.8,381.7,314.8L381.7,314.8L381.7,314.8z"/>
<path class="svg-stroke" d="M381.7,325.5h-41.3c-15.4,0-27.9-12.5-27.9-27.9v-41.4c0-15.4,12.5-27.9,27.9-27.9h41.3
	c15.4,0,27.9,12.5,27.9,27.9v41.4C409.6,313,397.1,325.5,381.7,325.5z M340.3,249.7c-3.6,0-6.5,2.9-6.5,6.5v41.4
	c0,3.6,2.9,6.5,6.5,6.5h41.3c3.6,0,6.5-2.9,6.5-6.5v-41.4c0-3.6-2.9-6.5-6.5-6.5L340.3,249.7L340.3,249.7z"/>
</svg>
